<svg width="664" height="137" viewBox="0 0 664 137" fill="none" xmlns="http://www.w3.org/2000/svg">
<path d="M10.92 74.15H9.12L2.73 90.41C1.95 92.36 1.41 93.83 0.36 94.91V95H3.99V94.91C3.42 93.83 3.72 92.39 4.47 90.44L5.25 88.46H14.4L15.18 90.38C15.96 92.36 16.26 93.86 15.75 94.91V95H19.83V94.91C18.87 93.83 18.33 92.42 17.46 90.29L10.92 74.15ZM9.72 77H9.84L13.77 86.87H5.85L9.72 77ZM22.5263 95H30.2963C35.2163 95 37.9163 92.54 37.9163 89.27C37.9163 86.54 35.6963 84.53 31.9763 84.14V84.02C34.8863 83.51 36.8663 81.71 36.8663 79.16C36.8663 76.16 34.3763 74.15 29.7263 74.15H22.5263V74.24C23.2763 75.29 23.4863 76.55 23.4863 78.77V90.38C23.4863 92.6 23.3063 93.89 22.5263 94.91V95ZM25.6163 83.36V75.68H29.4863C32.7863 75.68 34.5863 77.06 34.5863 79.34C34.5863 82.04 32.5463 83.36 29.4263 83.36H25.6163ZM29.4863 84.92C33.2063 84.92 35.6363 86.27 35.6363 89.15C35.6363 91.94 33.4463 93.44 29.7563 93.44H25.6163V84.92H29.4863ZM51.4657 95.3C54.3457 95.3 56.7157 94.25 58.6057 92.3L58.3057 91.04C56.2957 92.6 54.2857 93.38 51.9157 93.38C46.9957 93.38 43.2157 90.08 43.2157 84.41C43.2157 79.01 46.9957 75.47 51.6457 75.47C53.9857 75.47 56.1457 76.46 57.4957 78.38H57.6157V75.38C55.9057 74.42 54.0157 73.85 51.5557 73.85C45.8557 73.85 40.8457 77.99 40.8457 84.59C40.8457 91.25 45.6757 95.3 51.4657 95.3ZM62.7734 90.32C62.7734 92.57 62.6534 93.89 61.8134 94.91V95H68.9534C75.7334 95 80.1734 90.86 80.1734 84.56C80.1734 78.29 75.7334 74.15 68.9534 74.15H61.8134V74.24C62.5634 75.29 62.7734 76.46 62.7734 78.83V90.32ZM64.9334 75.68H68.4434C74.1134 75.68 77.7734 78.86 77.7734 84.56C77.7734 90.32 74.1134 93.44 68.4434 93.44H64.9334V75.68ZM98.3632 91.64C97.5532 92.99 96.3232 93.41 93.9532 93.41H86.9932V85.22H92.1232C94.4632 85.22 95.4532 85.52 96.2032 86.27H96.3232V82.58H96.2032C95.4532 83.33 94.4632 83.66 92.1232 83.66H86.9932V75.71H93.4732C96.0832 75.71 97.1932 76.1 97.9732 77.09H98.0932V74.15H83.9032V74.24C84.6532 75.26 84.8332 76.55 84.8332 78.77V90.38C84.8332 92.63 84.6832 93.89 83.9032 94.91V95H98.4832V91.64H98.3632ZM102.272 95H106.442V94.91C105.542 93.86 105.362 92.66 105.362 90.44V85.52H109.862C112.172 85.52 113.312 85.82 113.942 86.54H114.062V82.85H113.942C113.312 83.6 112.172 83.93 109.862 83.93H105.362V75.71H110.672C113.252 75.71 114.542 76.1 115.232 77.09H115.352V74.15H102.272V74.24C103.052 75.29 103.232 76.55 103.232 78.77V90.44C103.232 92.66 103.052 93.89 102.272 94.91V95ZM131.792 84.23C132.812 85.34 133.082 86.33 133.082 88.49V92.87C131.702 93.47 130.322 93.74 128.822 93.74C123.542 93.74 120.062 90.05 120.062 84.68C120.062 79.34 123.632 75.47 129.272 75.47C131.972 75.47 134.252 76.43 135.662 78.35H135.782V75.38C134.012 74.42 131.852 73.85 129.122 73.85C122.402 73.85 117.662 78.44 117.662 84.74C117.662 90.95 122.042 95.3 128.492 95.3C131.162 95.3 133.382 94.55 135.242 93.35V88.49C135.242 86.33 135.452 85.34 136.142 84.23V84.14H131.792V84.23ZM158.754 74.15H154.674V74.24C155.424 75.26 155.634 76.52 155.634 78.74V83.57H143.214V78.74C143.214 76.49 143.424 75.26 144.174 74.24V74.15H140.124V74.24C140.874 75.26 141.084 76.52 141.084 78.74V90.38C141.084 92.6 140.874 93.86 140.124 94.91V95H144.174V94.91C143.424 93.86 143.214 92.63 143.214 90.38V85.16H155.634V90.38C155.634 92.6 155.424 93.86 154.674 94.91V95H158.754V94.91C158.004 93.86 157.794 92.63 157.794 90.38V78.74C157.794 76.49 158.004 75.26 158.754 74.24V74.15ZM163.474 95H167.524V94.91C166.774 93.86 166.594 92.6 166.594 90.38V78.77C166.594 76.55 166.774 75.26 167.524 74.24V74.15H163.474V74.24C164.224 75.26 164.434 76.55 164.434 78.77V90.38C164.434 92.6 164.224 93.86 163.474 94.91V95ZM185.376 84.23C186.396 85.34 186.666 86.33 186.666 88.49V92.87C185.286 93.47 183.906 93.74 182.406 93.74C177.126 93.74 173.646 90.05 173.646 84.68C173.646 79.34 177.216 75.47 182.856 75.47C185.556 75.47 187.836 76.43 189.246 78.35H189.366V75.38C187.596 74.42 185.436 73.85 182.706 73.85C175.986 73.85 171.246 78.44 171.246 84.74C171.246 90.95 175.626 95.3 182.076 95.3C184.746 95.3 186.966 94.55 188.826 93.35V88.49C188.826 86.33 189.036 85.34 189.726 84.23V84.14H185.376V84.23ZM205.798 78.29C207.598 76.46 208.738 75.32 210.508 74.24V74.15H206.278V74.24C206.278 75.2 205.588 76.25 204.088 77.78L196.888 85.19H196.768V78.77C196.768 76.55 196.978 75.26 197.728 74.24V74.15H193.708V74.24C194.458 75.26 194.638 76.55 194.638 78.77V90.83C194.638 93.02 194.458 93.98 193.708 94.91V95H197.758V94.91C196.978 93.98 196.768 93.02 196.768 90.83V87.47L199.648 84.56L208.438 95H211.318V94.91L201.118 83.06L205.798 78.29ZM213.542 95H227.162V91.34H227.012C226.232 93.05 224.882 93.41 222.422 93.41H216.632V78.74C216.632 76.52 216.782 75.29 217.592 74.24V74.15H213.542V74.24C214.322 75.29 214.502 76.55 214.502 78.74V90.59C214.502 92.63 214.262 93.92 213.542 94.91V95ZM242.543 95L250.313 76.64H250.433V90.38C250.433 92.6 250.253 93.86 249.473 94.91V95H253.553V94.91C252.773 93.86 252.593 92.6 252.593 90.38V78.77C252.593 76.58 252.773 75.26 253.553 74.24V74.15H249.683L242.003 92.24H241.883L234.143 74.15H230.183V74.24C230.993 75.26 231.113 76.58 231.113 78.77V90.38C231.113 92.57 230.933 93.86 230.183 94.91V95H233.813V94.91C233.063 93.86 232.853 92.57 232.853 90.38V76.67H232.973L240.833 95H242.543ZM258.219 95H261.849V94.91C261.099 93.86 260.889 92.6 260.889 90.38V77.06H261.039L273.189 95H275.409V78.74C275.409 76.55 275.619 75.26 276.369 74.24V74.15H272.709V74.24C273.489 75.26 273.669 76.55 273.669 78.74V91.79H273.549L261.609 74.15H258.489V74.21L259.179 75.23V90.38C259.179 92.6 258.999 93.86 258.219 94.91V95ZM290.256 95.3C296.226 95.3 300.486 90.77 300.486 84.59C300.486 78.41 296.226 73.85 290.256 73.85C284.286 73.85 280.026 78.41 280.026 84.59C280.026 90.77 284.286 95.3 290.256 95.3ZM290.256 93.65C285.666 93.65 282.396 89.96 282.396 84.59C282.396 79.22 285.666 75.47 290.256 75.47C294.846 75.47 298.116 79.22 298.116 84.59C298.116 89.96 294.846 93.65 290.256 93.65ZM310.485 86.21C315.165 86.21 318.225 83.99 318.225 80.15C318.225 76.31 315.165 74.15 310.485 74.15H304.245V74.24C305.025 75.26 305.205 76.58 305.205 78.74V90.41C305.205 92.66 304.995 93.89 304.245 94.91V95H308.415V94.91C307.575 93.89 307.335 92.66 307.335 90.41V86.21H310.485ZM310.095 75.68C313.755 75.68 315.945 77.06 315.945 80.15C315.945 83.21 313.755 84.68 310.095 84.68H307.335V75.68H310.095ZM335.842 93.38C338.932 91.91 341.032 88.61 341.032 84.56C341.032 78.38 336.772 73.85 330.832 73.85C324.892 73.85 320.632 78.41 320.632 84.59C320.632 90.77 324.892 95.3 330.832 95.3C331.642 95.3 332.542 95.21 333.652 94.91L342.322 95.6H342.382V93.47H335.842V93.38ZM323.002 84.59C323.002 79.19 326.272 75.47 330.832 75.47C335.392 75.47 338.662 79.19 338.662 84.59C338.662 89.96 335.452 93.65 330.832 93.65C326.272 93.65 323.002 89.99 323.002 84.59ZM352.917 84.68C356.577 84.26 358.767 82.19 358.767 79.4C358.767 76.25 356.127 74.15 351.627 74.15H344.967V74.24C345.747 75.26 345.927 76.58 345.927 78.77V90.38C345.927 92.69 345.717 93.89 344.967 94.91V95H348.987V94.91C348.267 93.89 348.057 92.69 348.057 90.38V84.8H350.337L359.037 95H361.857V94.94L352.917 84.68ZM348.057 75.68H351.237C354.687 75.68 356.487 77.03 356.487 79.43C356.487 81.77 354.687 83.27 351.237 83.27H348.057V75.68ZM369.29 95.3C373.1 95.3 376.1 92.9 376.1 89.48C376.1 86.96 374.6 85.49 371.84 84.23L368.84 82.88C366.77 81.95 365.84 80.87 365.84 79.22C365.84 76.88 367.79 75.44 370.4 75.44C372.32 75.44 374.21 76.25 375.47 78.2H375.59V75.29C374.42 74.51 372.47 73.85 370.4 73.85C366.44 73.85 363.71 76.43 363.71 79.58C363.71 81.86 365.03 83.66 367.88 84.95L370.85 86.27C373.01 87.26 373.97 88.16 373.97 89.84C373.97 92.3 371.72 93.68 369.29 93.68C367.1 93.68 364.91 92.66 363.29 90.23H363.17V93.26C364.88 94.58 367.13 95.3 369.29 95.3ZM384.301 95H388.621V94.91C387.781 93.86 387.541 92.6 387.541 90.38V75.71H390.091C392.761 75.71 393.991 76.19 394.741 77.24H394.861V74.15H378.061V77.24H378.181C378.961 76.19 380.191 75.71 382.861 75.71H385.381V90.38C385.381 92.6 385.171 93.86 384.301 94.91V95ZM406.639 95.3C411.829 95.3 414.739 91.88 414.739 86.6V78.77C414.739 76.52 414.949 75.29 415.699 74.24V74.15H412.069V74.24C412.819 75.29 413.029 76.52 413.029 78.74V86.66C413.029 90.89 410.689 93.41 406.819 93.41C402.949 93.41 400.639 90.89 400.639 86.63V78.74C400.639 76.52 400.849 75.26 401.599 74.24V74.15H397.549V74.24C398.299 75.26 398.509 76.52 398.509 78.74V86.6C398.509 91.91 401.479 95.3 406.639 95.3ZM434.961 78.77C435.741 76.76 436.341 75.35 437.421 74.24V74.15H433.881V74.24C434.301 75.38 434.031 76.7 433.191 78.83L427.971 92.03H427.851L422.961 78.86C422.241 76.88 421.851 75.35 422.451 74.24V74.15H418.341V74.24C419.331 75.35 419.901 76.82 420.681 78.83L426.681 95H428.541L434.961 78.77ZM444.746 95H446.756L452.066 77.93H452.156L457.076 95H459.026L463.826 78.59C464.366 76.67 464.816 75.44 465.806 74.24V74.15H462.296V74.24C462.866 75.38 462.656 76.64 462.116 78.56L458.336 91.73H458.216L453.146 74.15H450.626L451.136 75.68L446.156 91.85H446.036L442.316 78.53C441.806 76.7 441.596 75.44 442.256 74.24V74.15H438.176V74.24C439.106 75.44 439.586 76.73 440.096 78.62L444.746 95ZM470.46 90.26C468.96 92.33 467.91 93.74 466.5 94.91V95H470.25V94.91C470.25 93.77 470.91 92.3 472.35 90.32L475.74 85.67H475.86L479.4 90.44C480.93 92.51 481.47 93.8 481.47 94.91V95H485.82V94.91C484.53 93.86 483.51 92.45 481.92 90.29L477.09 83.81L480.99 78.53C482.25 76.82 483.3 75.41 484.68 74.24V74.15H480.99V74.24C480.99 75.35 480.42 76.67 479.07 78.53L476.19 82.43H476.07L473.25 78.59C471.99 76.91 471.21 75.35 471.21 74.24V74.15H466.86V74.24C468.15 75.35 469.23 76.76 470.58 78.56L474.84 84.26L470.46 90.26ZM501.104 74.24C501.314 75.47 500.684 76.85 499.514 78.68L495.704 84.56H495.614L491.954 78.68C490.904 76.97 490.214 75.5 490.544 74.24V74.15H486.224V74.24C487.394 75.38 488.354 76.82 489.434 78.56L494.324 86.48V90.8C494.324 93.02 494.114 93.95 493.364 94.91V95H497.414V94.91C496.664 93.95 496.454 93.02 496.454 90.8V86.36L501.434 78.65C502.574 76.88 503.534 75.44 504.884 74.24V74.15H501.104V74.24ZM521.427 95V91.52H521.307C520.437 92.99 519.147 93.41 516.717 93.41H508.887V93.32L521.397 75.62V74.15H506.637V77.36H506.787C507.537 76.19 508.857 75.71 511.197 75.71H518.727V75.8L506.217 93.53V95H521.427ZM13.95 127.59C13.59 127.74 13.26 127.83 12.9 127.83C12.24 127.83 11.85 127.44 11.85 126.6V119.7C11.85 115.89 9.51 114.48 6.84 114.48C4.95 114.48 3.18 115.26 1.8 116.4L2.04 117.57C3.45 116.67 4.89 116.13 6.39 116.13C8.49 116.13 9.84 117.18 9.84 119.67V120.75L6.57 121.62C3.6 122.4 1.47 123.42 1.47 125.82C1.47 127.92 3.21 129.3 5.25 129.3C6.87 129.3 8.55 128.58 9.75 126.54H9.87V127.02C9.93 128.4 10.89 129.27 12.15 129.27C12.9 129.27 13.53 129.06 14.1 128.64L13.95 127.59ZM5.88 127.71C4.56 127.71 3.6 126.93 3.6 125.61C3.6 124.05 5.07 123.45 7.08 122.82L9.84 121.95V123.3C9.84 126.09 7.71 127.71 5.88 127.71ZM23.5884 129.3C27.0684 129.3 30.0984 126.45 30.0984 121.71C30.0984 117.12 27.2784 114.48 24.0384 114.48C21.9084 114.48 20.2884 115.59 19.2984 117.27H19.1784V107.61H19.1184L16.4184 107.94V108.06C16.9884 108.81 17.1684 109.53 17.1684 111.33V129H18.5184L19.0884 127.02H19.1784C20.1384 128.49 21.7884 129.3 23.5884 129.3ZM23.3784 127.89C20.8284 127.89 19.1784 125.91 19.1784 122.61V121.14C19.1784 118.14 21.0984 116.1 23.5884 116.1C26.3484 116.1 27.9984 118.53 27.9984 121.89C27.9984 125.4 26.2584 127.89 23.3784 127.89ZM40.0141 129.3C41.8141 129.3 43.4041 128.61 44.7841 127.35L44.4841 126.24C43.1941 127.11 41.9341 127.53 40.4641 127.53C37.2841 127.53 35.0041 125.25 35.0041 121.71C35.0041 118.38 37.0741 115.95 40.2241 115.95C41.6641 115.95 43.0141 116.64 43.7941 117.69H43.9141V115.38C42.8941 114.81 41.5441 114.48 40.1041 114.48C35.8441 114.48 32.8441 117.66 32.8441 121.95C32.8441 126.18 35.8441 129.3 40.0141 129.3ZM52.9102 129.3C54.8902 129.3 56.6302 128.28 57.6502 126.51H57.7402V129.09H57.8302L60.4402 128.73V128.61C59.8402 127.8 59.7802 127.02 59.7802 125.37V107.61H59.6902L56.9902 107.94V108.06C57.5902 108.84 57.7402 109.68 57.7402 111.36V116.67H57.6502C56.7202 115.35 55.1902 114.48 53.3302 114.48C49.7302 114.48 46.8202 117.48 46.8202 122.04C46.8202 126.66 49.6402 129.3 52.9102 129.3ZM53.3902 127.65C50.6902 127.65 48.9502 125.43 48.9502 121.86C48.9502 118.29 50.7502 115.89 53.5402 115.89C56.1202 115.89 57.7402 117.87 57.7402 121.14V122.7C57.7402 125.61 55.7902 127.65 53.3902 127.65ZM75.6923 126.06C74.3423 127.02 72.9623 127.53 71.3123 127.53C68.0423 127.53 65.8223 125.28 65.8223 121.38V121.23H75.8123V120.3C75.8123 116.58 73.4723 114.48 70.2923 114.48C66.5123 114.48 63.7823 117.69 63.7823 121.83C63.7823 126.33 66.8123 129.3 70.8923 129.3C72.8723 129.3 74.5523 128.58 75.9623 127.2L75.6923 126.06ZM70.1423 115.92C72.3023 115.92 73.6223 117.39 73.7123 119.79H65.9723C66.4223 117.39 67.9223 115.92 70.1423 115.92ZM80.1666 129H83.6766V128.91C82.9566 128.07 82.8966 127.17 82.8966 125.46V116.31H86.7366V114.78H82.8966V112.2C82.8966 110.01 84.0066 108.9 85.8066 108.9C86.7366 108.9 87.6066 109.29 88.0266 109.86H88.1466V107.76C87.4866 107.52 86.6766 107.4 85.8666 107.4C82.8666 107.4 80.8566 109.35 80.8566 112.71V114.78H77.7666V116.31H80.8566V125.46C80.8566 127.17 80.7666 128.07 80.1666 128.91V129ZM102.452 114.24H102.392L96.8419 114.75C96.2119 114.54 95.5819 114.48 94.9819 114.48C91.8019 114.48 89.5219 116.49 89.5219 119.31C89.5219 120.84 90.1819 122.13 91.3219 122.97V123.06C89.8219 123.81 89.0419 124.89 89.0419 126.06C89.0419 127.11 89.6719 127.92 90.6319 128.34V128.4C89.2219 129.18 88.3219 130.29 88.3219 131.55C88.3219 133.77 90.6619 135.36 94.5319 135.36C98.9719 135.36 102.272 133.26 102.272 130.32C102.272 127.92 100.202 126.87 97.3519 126.87H92.7919C91.3819 126.87 90.8419 126.3 90.8419 125.52C90.8419 124.68 91.5019 124.08 92.4919 123.66C93.2119 123.96 94.0519 124.11 94.9519 124.11C98.1019 124.11 100.322 122.07 100.322 119.28C100.322 117.93 99.7219 116.85 98.8519 116.28V116.16L102.452 116.19V114.24ZM94.9219 122.76C92.9719 122.76 91.5619 121.44 91.5619 119.31C91.5619 117.18 92.9719 115.83 94.9519 115.83C96.9319 115.83 98.3119 117.15 98.3119 119.28C98.3119 121.41 96.9319 122.76 94.9219 122.76ZM97.1719 128.67C99.2419 128.67 100.202 129.36 100.202 130.71C100.202 132.72 97.5619 133.98 94.5919 133.98C91.9519 133.98 90.2419 132.93 90.2419 131.22C90.2419 130.08 91.1119 129.15 92.4319 128.67H97.1719ZM105.912 125.52C105.912 127.2 105.852 128.07 105.252 128.91V129H108.582V128.91C108.042 128.07 107.922 127.2 107.922 125.52V120.63C107.922 118.05 109.932 116.13 112.032 116.13C114.072 116.13 115.182 117.6 115.182 119.94V125.52C115.182 127.2 115.092 128.07 114.552 128.91V129H117.882V128.91C117.312 128.07 117.222 127.2 117.222 125.52V119.91C117.222 116.16 115.032 114.48 112.572 114.48C110.652 114.48 109.122 115.53 108.042 117.21H107.922V107.61H107.862L105.162 107.94V108.06C105.792 108.84 105.912 109.8 105.912 111.48V125.52ZM123.368 111.87C124.268 111.87 124.988 111.12 124.988 110.19C124.988 109.32 124.268 108.57 123.368 108.57C122.438 108.57 121.748 109.32 121.748 110.19C121.748 111.12 122.438 111.87 123.368 111.87ZM124.418 114.69H124.358L121.658 115.02V115.14C122.228 115.92 122.408 116.73 122.408 118.32V125.55C122.408 127.23 122.348 128.07 121.748 128.91V129H125.078V128.91C124.508 128.07 124.418 127.23 124.418 125.55V114.69ZM142.12 114.24H142.06L136.51 114.75C135.88 114.54 135.25 114.48 134.65 114.48C131.47 114.48 129.19 116.49 129.19 119.31C129.19 120.84 129.85 122.13 130.99 122.97V123.06C129.49 123.81 128.71 124.89 128.71 126.06C128.71 127.11 129.34 127.92 130.3 128.34V128.4C128.89 129.18 127.99 130.29 127.99 131.55C127.99 133.77 130.33 135.36 134.2 135.36C138.64 135.36 141.94 133.26 141.94 130.32C141.94 127.92 139.87 126.87 137.02 126.87H132.46C131.05 126.87 130.51 126.3 130.51 125.52C130.51 124.68 131.17 124.08 132.16 123.66C132.88 123.96 133.72 124.11 134.62 124.11C137.77 124.11 139.99 122.07 139.99 119.28C139.99 117.93 139.39 116.85 138.52 116.28V116.16L142.12 116.19V114.24ZM134.59 122.76C132.64 122.76 131.23 121.44 131.23 119.31C131.23 117.18 132.64 115.83 134.62 115.83C136.6 115.83 137.98 117.15 137.98 119.28C137.98 121.41 136.6 122.76 134.59 122.76ZM136.84 128.67C138.91 128.67 139.87 129.36 139.87 130.71C139.87 132.72 137.23 133.98 134.26 133.98C131.62 133.98 129.91 132.93 129.91 131.22C129.91 130.08 130.78 129.15 132.1 128.67H136.84ZM153.89 117.87C155.48 116.4 156.38 115.62 157.7 114.87V114.78H153.89V114.87C153.89 115.59 153.5 116.22 152.24 117.39L147.71 121.65H147.59V107.61H147.53L144.83 107.94V108.06C145.4 108.9 145.58 109.47 145.58 111.21V125.55C145.58 127.26 145.49 128.07 144.92 128.91V129H148.25V128.91C147.68 128.07 147.59 127.26 147.59 125.55V123.63L149.42 121.95L155.48 129H158.24V128.97L150.86 120.63L153.89 117.87ZM160.36 129H163.69V128.91C163.12 128.07 163.03 127.23 163.03 125.52V107.61H162.97L160.27 107.94V108.06C160.81 108.84 161.02 109.38 161.02 111.15V125.52C161.02 127.23 160.93 128.07 160.36 128.91V129ZM168.434 125.55C168.434 127.17 168.374 128.04 167.774 128.91V129H171.104V128.91C170.534 128.04 170.444 127.17 170.444 125.55V120.57C170.444 118.02 172.364 116.13 174.404 116.13C176.294 116.13 177.314 117.39 177.314 119.73V125.55C177.314 127.26 177.224 128.07 176.684 128.91V129H180.014V128.91C179.474 128.07 179.354 127.26 179.354 125.55V120.54C179.354 118.02 181.214 116.13 183.224 116.13C184.994 116.13 186.164 117.33 186.164 119.7V125.49C186.164 127.2 186.074 128.07 185.534 128.91V129H188.864V128.91C188.264 128.07 188.204 127.2 188.204 125.49V119.61C188.204 116.28 186.224 114.48 183.764 114.48C181.934 114.48 180.284 115.47 179.174 117.51H179.084C178.454 115.5 176.894 114.48 175.034 114.48C173.174 114.48 171.584 115.47 170.564 117.24H170.444V114.69H170.384L167.684 115.02V115.14C168.314 115.95 168.434 116.82 168.434 118.53V125.55ZM193.365 125.52C193.365 127.23 193.305 128.07 192.735 128.91V129H196.065V128.91C195.525 128.07 195.405 127.23 195.405 125.52V120.63C195.405 117.99 197.445 116.13 199.515 116.13C201.495 116.13 202.665 117.57 202.665 119.91V125.52C202.665 127.23 202.575 128.04 202.005 128.91V129H205.335V128.91C204.765 128.04 204.675 127.23 204.675 125.52V119.91C204.675 116.16 202.515 114.48 199.995 114.48C198.135 114.48 196.605 115.5 195.495 117.21H195.405V114.69H195.315L192.615 115.02V115.14C193.245 115.95 193.365 116.82 193.365 118.5V125.52ZM215.47 129.3C219.46 129.3 222.46 126.21 222.46 121.86C222.46 117.51 219.46 114.48 215.47 114.48C211.51 114.48 208.48 117.51 208.48 121.86C208.48 126.21 211.51 129.3 215.47 129.3ZM215.47 127.77C212.62 127.77 210.67 125.46 210.67 121.86C210.67 118.32 212.62 116.01 215.47 116.01C218.29 116.01 220.24 118.29 220.24 121.86C220.24 125.49 218.29 127.77 215.47 127.77ZM226.469 131.52C226.469 133.23 226.409 134.07 225.809 134.91V135H229.229V134.91C228.569 134.07 228.479 133.23 228.479 131.52V127.08H228.599C229.469 128.43 231.059 129.3 232.859 129.3C236.579 129.3 239.399 126.27 239.399 121.68C239.399 117.3 236.759 114.48 233.339 114.48C231.239 114.48 229.589 115.56 228.599 117.27H228.479V114.69H228.419L225.719 115.02V115.14C226.289 115.92 226.469 116.76 226.469 118.44V131.52ZM232.709 127.89C230.219 127.89 228.479 126.06 228.479 122.52V121.02C228.479 118.2 230.429 116.1 232.859 116.1C235.619 116.1 237.299 118.41 237.299 121.89C237.299 125.55 235.439 127.89 232.709 127.89ZM253.15 131.55C253.15 133.26 253.09 134.07 252.43 134.91V135H255.85V134.91C255.28 134.07 255.19 133.23 255.19 131.52V114.78H253.84L253.27 116.73H253.15C252.19 115.29 250.6 114.48 248.71 114.48C245.11 114.48 242.23 117.48 242.23 122.07C242.23 126.6 244.99 129.3 248.32 129.3C250.42 129.3 252.04 128.22 253.06 126.51H253.15V131.55ZM248.8 127.65C246.04 127.65 244.36 125.34 244.36 121.83C244.36 118.26 246.19 115.89 248.95 115.89C251.47 115.89 253.15 117.81 253.15 121.14V122.73C253.15 125.58 251.26 127.65 248.8 127.65ZM260.397 125.55C260.397 127.23 260.307 128.07 259.737 128.91V129H263.157V128.91C262.497 128.07 262.407 127.23 262.407 125.55V122.43C262.407 118.41 264.537 116.49 266.847 116.49C267.237 116.49 267.597 116.52 267.927 116.61V114.6C267.627 114.51 267.297 114.48 266.877 114.48C264.927 114.48 263.367 115.71 262.527 118.32H262.407V114.69H262.347L259.647 115.02V115.14C260.247 115.92 260.397 116.82 260.397 118.5V125.55ZM274.002 129.3C276.882 129.3 279.042 127.56 279.042 125.16C279.042 123.36 277.992 122.31 276.132 121.5L274.092 120.63C272.472 119.91 271.902 119.31 271.902 118.23C271.902 116.79 273.282 115.95 274.992 115.95C276.432 115.95 277.722 116.52 278.622 117.66H278.742V115.41C277.692 114.81 276.372 114.48 274.992 114.48C272.082 114.48 270.012 116.28 270.012 118.59C270.012 120.27 270.972 121.47 272.982 122.34L274.932 123.21C276.492 123.9 277.152 124.41 277.152 125.52C277.152 127.05 275.652 127.83 274.002 127.83C272.382 127.83 270.882 127.11 269.802 125.64H269.682V127.95C270.852 128.79 272.472 129.3 274.002 129.3ZM287.358 129.3C288.348 129.3 289.278 129 290.058 128.43L289.848 127.26C289.188 127.59 288.558 127.74 287.898 127.74C286.638 127.74 285.858 127.08 285.858 125.46V116.31H289.878V114.78H285.858V111.48H284.208C284.118 114.39 283.638 114.9 280.908 114.96V116.31H283.848V125.52C283.848 128.19 285.378 129.3 287.358 129.3ZM297.524 129.3C299.354 129.3 300.914 128.28 301.904 126.6H301.994V129.09H302.054L304.664 128.73V128.61C304.064 127.8 304.034 126.93 304.034 125.19V114.78H301.274V114.87C301.874 115.68 301.994 116.64 301.994 118.26V123.12C301.994 125.85 300.074 127.62 298.034 127.62C296.384 127.62 295.184 126.57 295.184 124.08V114.78H292.454V114.87C293.054 115.71 293.174 116.64 293.174 118.29V124.17C293.174 127.68 295.184 129.3 297.524 129.3ZM313.16 129H314.66L318.95 118.47C319.61 116.82 320.06 115.8 320.93 114.87V114.78H317.75V114.87C318.17 115.8 317.93 116.91 317.33 118.44L314.27 126.15H314.15L311.15 118.35C310.58 116.85 310.37 115.83 310.82 114.87V114.78H307.13V114.87C307.97 115.8 308.39 116.88 308.93 118.29L313.16 129ZM328.047 125.85L325.677 118.38C325.197 116.82 324.957 115.77 325.497 114.87V114.78H321.897V114.87C322.677 115.74 323.097 116.88 323.577 118.38L327.027 129H328.557L332.367 118.05H332.487L335.967 129H337.527L341.067 118.41C341.577 116.85 341.997 115.83 342.837 114.87V114.78H339.747V114.87C340.137 115.77 339.987 116.79 339.477 118.35L337.047 125.97H336.897L333.327 114.78H331.227L331.617 115.89L328.167 125.85H328.047ZM346.631 125.67C345.581 127.14 344.891 128.01 343.811 128.91V129H347.201V128.91C347.201 127.98 347.411 127.08 348.401 125.7L350.321 123.09H350.411L352.361 125.73C353.291 127.02 353.621 127.98 353.621 128.91V129H357.491V128.91C356.501 128.07 355.751 127.14 354.641 125.61L351.611 121.47L354.101 118.11C355.211 116.58 355.841 115.77 356.951 114.87V114.78H353.591V114.84C353.591 115.8 353.441 116.52 352.391 117.99L350.771 120.24H350.651L349.001 117.99C348.131 116.73 347.741 115.8 347.741 114.87V114.78H343.841V114.87C344.981 115.77 345.671 116.7 346.661 118.02L349.481 121.8L346.631 125.67ZM369.053 114.87C369.473 115.83 369.173 116.88 368.603 118.38L365.513 126.24H365.393L362.333 118.44C361.733 116.85 361.343 115.8 361.853 114.87V114.78H358.193V114.87C359.033 115.8 359.513 116.88 360.173 118.47L364.433 129L363.893 130.41C362.933 132.84 361.613 133.47 360.053 133.47C359.423 133.47 358.853 133.38 358.283 133.14V134.97C358.793 135.24 359.423 135.36 360.143 135.36C361.973 135.36 363.833 134.49 365.243 130.98L370.223 118.44C370.853 116.85 371.273 115.83 372.143 114.87V114.78H369.053V114.87ZM380.758 127.53C382.768 127.53 383.848 127.26 384.598 126.21H384.718V129H373.738V127.62L381.868 116.37V116.25H377.968C375.988 116.25 374.848 116.46 374.158 117.27H374.038V114.78H384.418V116.13L376.228 127.41V127.53H380.758Z" fill="black"/>
<path d="M15.652 3.115H13.072L3.913 26.421C2.795 29.216 2.021 31.323 0.516 32.871V33H5.719V32.871C4.902 31.323 5.332 29.259 6.407 26.464L7.525 23.626H20.64L21.758 26.378C22.876 29.216 23.306 31.366 22.575 32.871V33H28.423V32.871C27.047 31.323 26.273 29.302 25.026 26.249L15.652 3.115ZM13.932 7.2H14.104L19.737 21.347H8.385L13.932 7.2ZM32.8466 28.055C32.8466 30.463 32.7176 31.667 31.9006 32.871V33H36.8026V32.871C35.8566 31.667 35.7276 30.463 35.7276 28.055V23.583C35.7276 17.821 38.7806 15.069 42.0916 15.069C42.6506 15.069 43.1666 15.112 43.6396 15.241V12.36C43.2096 12.231 42.7366 12.188 42.1346 12.188C39.3396 12.188 37.1036 13.951 35.8996 17.692H35.7276V12.489H35.6416L31.7716 12.962V13.134C32.6316 14.252 32.8466 15.542 32.8466 17.95V28.055ZM49.7597 8.447C51.0497 8.447 52.0817 7.372 52.0817 6.039C52.0817 4.792 51.0497 3.717 49.7597 3.717C48.4267 3.717 47.4377 4.792 47.4377 6.039C47.4377 7.372 48.4267 8.447 49.7597 8.447ZM51.2647 12.489H51.1787L47.3087 12.962V13.134C48.1257 14.252 48.3837 15.413 48.3837 17.692V28.055C48.3837 30.463 48.2977 31.667 47.4377 32.871V33H52.2107V32.871C51.3937 31.667 51.2647 30.463 51.2647 28.055V12.489ZM66.8328 30.893C69.7138 30.893 71.2618 30.506 72.3368 29.001H72.5088V33H56.7708V31.022L68.4238 14.897V14.725H62.8338C59.9958 14.725 58.3618 15.026 57.3728 16.187H57.2008V12.618H72.0788V14.553L60.3398 30.721V30.893H66.8328ZM85.9452 33.43C91.6642 33.43 95.9642 29.001 95.9642 22.766C95.9642 16.531 91.6642 12.188 85.9452 12.188C80.2692 12.188 75.9262 16.531 75.9262 22.766C75.9262 29.001 80.2692 33.43 85.9452 33.43ZM85.9452 31.237C81.8602 31.237 79.0652 27.926 79.0652 22.766C79.0652 17.692 81.8602 14.381 85.9452 14.381C89.9872 14.381 92.7822 17.649 92.7822 22.766C92.7822 27.969 89.9872 31.237 85.9452 31.237ZM101.797 28.012C101.797 30.463 101.711 31.667 100.894 32.871V33H105.667V32.871C104.893 31.667 104.721 30.463 104.721 28.012V21.003C104.721 17.219 107.645 14.553 110.612 14.553C113.45 14.553 115.127 16.617 115.127 19.971V28.012C115.127 30.463 114.998 31.624 114.181 32.871V33H118.954V32.871C118.137 31.624 118.008 30.463 118.008 28.012V19.971C118.008 14.596 114.912 12.188 111.3 12.188C108.634 12.188 106.441 13.65 104.85 16.101H104.721V12.489H104.592L100.722 12.962V13.134C101.625 14.295 101.797 15.542 101.797 17.95V28.012ZM141.478 30.979C140.962 31.194 140.489 31.323 139.973 31.323C139.027 31.323 138.468 30.764 138.468 29.56V19.67C138.468 14.209 135.114 12.188 131.287 12.188C128.578 12.188 126.041 13.306 124.063 14.94L124.407 16.617C126.428 15.327 128.492 14.553 130.642 14.553C133.652 14.553 135.587 16.058 135.587 19.627V21.175L130.9 22.422C126.643 23.54 123.59 25.002 123.59 28.442C123.59 31.452 126.084 33.43 129.008 33.43C131.33 33.43 133.738 32.398 135.458 29.474H135.63V30.162C135.716 32.14 137.092 33.387 138.898 33.387C139.973 33.387 140.876 33.086 141.693 32.484L141.478 30.979ZM129.911 31.151C128.019 31.151 126.643 30.033 126.643 28.141C126.643 25.905 128.75 25.045 131.631 24.142L135.587 22.895V24.83C135.587 28.829 132.534 31.151 129.911 31.151ZM156.92 33H162.897V32.871C161.607 31.366 161.349 29.646 161.349 26.464V19.412H167.799C171.11 19.412 172.744 19.842 173.647 20.874H173.819V15.585H173.647C172.744 16.66 171.11 17.133 167.799 17.133H161.349V5.351H168.96C172.658 5.351 174.507 5.91 175.496 7.329H175.668V3.115H156.92V3.244C158.038 4.749 158.296 6.555 158.296 9.737V26.464C158.296 29.646 158.038 31.409 156.92 32.871V33ZM180.13 33H184.903V32.871C184.086 31.667 183.957 30.463 183.957 28.012V2.341H183.871L180.001 2.814V2.986C180.775 4.104 181.076 4.878 181.076 7.415V28.012C181.076 30.463 180.947 31.667 180.13 32.871V33ZM207.742 30.979C207.226 31.194 206.753 31.323 206.237 31.323C205.291 31.323 204.732 30.764 204.732 29.56V19.67C204.732 14.209 201.378 12.188 197.551 12.188C194.842 12.188 192.305 13.306 190.327 14.94L190.671 16.617C192.692 15.327 194.756 14.553 196.906 14.553C199.916 14.553 201.851 16.058 201.851 19.627V21.175L197.164 22.422C192.907 23.54 189.854 25.002 189.854 28.442C189.854 31.452 192.348 33.43 195.272 33.43C197.594 33.43 200.002 32.398 201.722 29.474H201.894V30.162C201.98 32.14 203.356 33.387 205.162 33.387C206.237 33.387 207.14 33.086 207.957 32.484L207.742 30.979ZM196.175 31.151C194.283 31.151 192.907 30.033 192.907 28.141C192.907 25.905 195.014 25.045 197.895 24.142L201.851 22.895V24.83C201.851 28.829 198.798 31.151 196.175 31.151ZM212.699 28.055C212.699 30.463 212.57 31.667 211.753 32.871V33H216.655V32.871C215.709 31.667 215.58 30.463 215.58 28.055V23.583C215.58 17.821 218.633 15.069 221.944 15.069C222.503 15.069 223.019 15.112 223.492 15.241V12.36C223.062 12.231 222.589 12.188 221.987 12.188C219.192 12.188 216.956 13.951 215.752 17.692H215.58V12.489H215.494L211.624 12.962V13.134C212.484 14.252 212.699 15.542 212.699 17.95V28.055ZM242.615 28.786C240.68 30.162 238.702 30.893 236.337 30.893C231.65 30.893 228.468 27.668 228.468 22.078V21.863H242.787V20.53C242.787 15.198 239.433 12.188 234.875 12.188C229.457 12.188 225.544 16.789 225.544 22.723C225.544 29.173 229.887 33.43 235.735 33.43C238.573 33.43 240.981 32.398 243.002 30.42L242.615 28.786ZM234.66 14.252C237.756 14.252 239.648 16.359 239.777 19.799H228.683C229.328 16.359 231.478 14.252 234.66 14.252ZM259.423 33H278.945V27.754H278.73C277.612 30.205 275.677 30.721 272.151 30.721H263.852V9.694C263.852 6.512 264.067 4.749 265.228 3.244V3.115H259.423V3.244C260.541 4.749 260.799 6.555 260.799 9.694V26.679C260.799 29.603 260.455 31.452 259.423 32.871V33ZM285.21 8.447C286.5 8.447 287.532 7.372 287.532 6.039C287.532 4.792 286.5 3.717 285.21 3.717C283.877 3.717 282.888 4.792 282.888 6.039C282.888 7.372 283.877 8.447 285.21 8.447ZM286.715 12.489H286.629L282.759 12.962V13.134C283.576 14.252 283.834 15.413 283.834 17.692V28.055C283.834 30.463 283.748 31.667 282.888 32.871V33H287.661V32.871C286.844 31.667 286.715 30.463 286.715 28.055V12.489ZM312.087 11.844H312.001L304.046 12.575C303.143 12.274 302.24 12.188 301.38 12.188C296.822 12.188 293.554 15.069 293.554 19.111C293.554 21.304 294.5 23.153 296.134 24.357V24.486C293.984 25.561 292.866 27.109 292.866 28.786C292.866 30.291 293.769 31.452 295.145 32.054V32.14C293.124 33.258 291.834 34.849 291.834 36.655C291.834 39.837 295.188 42.116 300.735 42.116C307.099 42.116 311.829 39.106 311.829 34.892C311.829 31.452 308.862 29.947 304.777 29.947H298.241C296.22 29.947 295.446 29.13 295.446 28.012C295.446 26.808 296.392 25.948 297.811 25.346C298.843 25.776 300.047 25.991 301.337 25.991C305.852 25.991 309.034 23.067 309.034 19.068C309.034 17.133 308.174 15.585 306.927 14.768V14.596L312.087 14.639V11.844ZM301.294 24.056C298.499 24.056 296.478 22.164 296.478 19.111C296.478 16.058 298.499 14.123 301.337 14.123C304.175 14.123 306.153 16.015 306.153 19.068C306.153 22.121 304.175 24.056 301.294 24.056ZM304.519 32.527C307.486 32.527 308.862 33.516 308.862 35.451C308.862 38.332 305.078 40.138 300.821 40.138C297.037 40.138 294.586 38.633 294.586 36.182C294.586 34.548 295.833 33.215 297.725 32.527H304.519ZM317.047 28.012C317.047 30.42 316.961 31.667 316.101 32.871V33H320.874V32.871C320.1 31.667 319.928 30.42 319.928 28.012V21.003C319.928 17.305 322.809 14.553 325.819 14.553C328.743 14.553 330.334 16.66 330.334 20.014V28.012C330.334 30.42 330.205 31.667 329.431 32.871V33H334.204V32.871C333.387 31.667 333.258 30.42 333.258 28.012V19.971C333.258 14.596 330.119 12.188 326.593 12.188C323.841 12.188 321.648 13.693 320.1 16.101H319.928V2.341H319.842L315.972 2.814V2.986C316.875 4.104 317.047 5.48 317.047 7.888V28.012ZM346.414 33.43C347.833 33.43 349.166 33 350.284 32.183L349.983 30.506C349.037 30.979 348.134 31.194 347.188 31.194C345.382 31.194 344.264 30.248 344.264 27.926V14.811H350.026V12.618H344.264V7.888H341.899C341.77 12.059 341.082 12.79 337.169 12.876V14.811H341.383V28.012C341.383 31.839 343.576 33.43 346.414 33.43Z" fill="black"/>
</svg>
