<svg width="664" height="137" viewBox="0 0 664 137" fill="none" xmlns="http://www.w3.org/2000/svg">
<path d="M16.469 3.115H12.771L3.655 26.378C2.58 29.216 1.849 31.366 0.301 32.828V33H6.45V32.828C5.547 31.366 5.934 29.216 7.009 26.421L7.912 24.056H20.382L21.285 26.335C22.36 29.044 22.833 31.366 21.973 32.828V33H29.111V32.828C27.735 31.323 27.004 29.216 25.757 26.163L16.469 3.115ZM13.975 8.361H14.147L19.221 21.089H9.073L13.975 8.361ZM33.0075 28.012C33.0075 30.463 32.8785 31.624 32.0615 32.828V33H38.0385V32.828C37.0925 31.624 36.9635 30.463 36.9635 28.012V24.099C36.9635 18.595 39.9305 16.015 43.0265 16.015C43.6285 16.015 44.1445 16.058 44.7035 16.23V12.274C44.2305 12.188 43.7575 12.102 43.1125 12.102C40.2315 12.102 38.2965 13.865 37.1785 17.649H36.9635V12.489H36.8345L31.9325 13.005V13.263C32.7495 14.381 33.0075 15.542 33.0075 17.993V28.012ZM51.1105 8.877C52.6155 8.877 53.8195 7.63 53.8195 6.039C53.8195 4.534 52.5725 3.244 51.1105 3.244C49.4765 3.244 48.2725 4.534 48.2725 6.039C48.2725 7.63 49.4765 8.877 51.1105 8.877ZM53.0885 12.489H52.9595L48.0575 13.005V13.263C48.8745 14.381 49.1325 15.542 49.1325 17.778V27.969C49.1325 30.42 49.0465 31.624 48.2295 32.828V33H54.0345V32.828C53.2175 31.624 53.0885 30.42 53.0885 27.969V12.489ZM68.6455 30.248C71.4835 30.248 73.0315 29.904 74.1925 28.399H74.4075V33H58.1965V30.377L69.1615 15.542V15.327H64.3885C61.7225 15.327 59.9595 15.671 58.9275 16.875H58.7125V12.618H73.9775V15.241L62.9695 30.076V30.248H68.6455ZM87.8359 33.516C93.6839 33.516 98.0269 29.044 98.0269 22.766C98.0269 16.488 93.6839 12.102 87.8359 12.102C81.9449 12.102 77.5589 16.531 77.5589 22.766C77.5589 29.044 81.9449 33.516 87.8359 33.516ZM87.8359 30.635C84.1379 30.635 81.8589 27.582 81.8589 22.766C81.8589 17.993 84.1809 14.983 87.8359 14.983C91.3619 14.983 93.7269 17.907 93.7269 22.766C93.7269 27.668 91.3619 30.635 87.8359 30.635ZM103.385 27.969C103.385 30.42 103.299 31.624 102.482 32.828V33H108.287V32.828C107.556 31.624 107.384 30.42 107.384 27.969V21.132C107.384 17.477 109.921 15.241 112.501 15.241C114.78 15.241 116.371 16.832 116.371 19.971V27.969C116.371 30.42 116.242 31.581 115.468 32.828V33H121.273V32.828C120.456 31.581 120.327 30.42 120.327 27.969V19.885C120.327 14.725 117.403 12.102 113.576 12.102C111.125 12.102 109.061 13.349 107.556 15.628H107.384V12.489H107.255L102.31 13.005V13.263C103.127 14.381 103.385 15.542 103.385 17.993V27.969ZM143.881 30.463C143.451 30.635 143.021 30.764 142.548 30.764C141.602 30.764 141.043 30.248 141.043 28.958V19.799C141.043 14.424 137.732 12.102 133.475 12.102C130.594 12.102 127.928 13.306 125.95 14.983L126.38 17.176C128.358 15.929 130.379 15.198 132.443 15.198C135.066 15.198 137.13 16.445 137.13 19.67V21.003L132.83 22.121C128.401 23.282 125.391 24.873 125.391 28.356C125.391 31.409 127.842 33.516 130.895 33.516C133.26 33.516 135.41 32.441 137.001 29.947H137.173V30.033C137.302 32.14 138.936 33.473 140.914 33.473C142.204 33.473 143.236 33.129 144.182 32.441L143.881 30.463ZM132.271 30.506C130.766 30.506 129.519 29.56 129.519 27.883C129.519 26.034 131.11 25.217 133.905 24.314L137.13 23.282V25.002C137.13 28.485 134.421 30.506 132.271 30.506ZM158.467 33H165.605V32.828C164.315 31.366 164.057 29.732 164.057 26.593V19.756H169.819C173.216 19.756 174.979 20.229 175.753 21.304H175.968V15.241H175.753C174.979 16.359 173.216 16.832 169.819 16.832H164.057V6.082H171.023C174.764 6.082 176.699 6.641 177.602 8.146H177.817V3.115H158.467V3.287C159.585 4.749 159.843 6.383 159.843 9.479V26.593C159.843 29.732 159.585 31.366 158.467 32.828V33ZM181.887 33H187.692V32.828C186.918 31.624 186.789 30.377 186.789 27.926V2.341H186.66L181.758 2.857V3.115C182.618 4.319 182.833 5.093 182.833 7.63V27.926C182.833 30.377 182.704 31.624 181.887 32.828V33ZM210.649 30.463C210.219 30.635 209.789 30.764 209.316 30.764C208.37 30.764 207.811 30.248 207.811 28.958V19.799C207.811 14.424 204.5 12.102 200.243 12.102C197.362 12.102 194.696 13.306 192.718 14.983L193.148 17.176C195.126 15.929 197.147 15.198 199.211 15.198C201.834 15.198 203.898 16.445 203.898 19.67V21.003L199.598 22.121C195.169 23.282 192.159 24.873 192.159 28.356C192.159 31.409 194.61 33.516 197.663 33.516C200.028 33.516 202.178 32.441 203.769 29.947H203.941V30.033C204.07 32.14 205.704 33.473 207.682 33.473C208.972 33.473 210.004 33.129 210.95 32.441L210.649 30.463ZM199.039 30.506C197.534 30.506 196.287 29.56 196.287 27.883C196.287 26.034 197.878 25.217 200.673 24.314L203.898 23.282V25.002C203.898 28.485 201.189 30.506 199.039 30.506ZM215.212 28.012C215.212 30.463 215.083 31.624 214.266 32.828V33H220.243V32.828C219.297 31.624 219.168 30.463 219.168 28.012V24.099C219.168 18.595 222.135 16.015 225.231 16.015C225.833 16.015 226.349 16.058 226.908 16.23V12.274C226.435 12.188 225.962 12.102 225.317 12.102C222.436 12.102 220.501 13.865 219.383 17.649H219.168V12.489H219.039L214.137 13.005V13.263C214.954 14.381 215.212 15.542 215.212 17.993V28.012ZM246.356 28.227C244.464 29.517 242.658 30.162 240.379 30.162C236.036 30.162 233.069 27.41 232.897 22.25H246.571V20.616C246.571 15.069 243.131 12.102 238.444 12.102C232.983 12.102 228.941 16.617 228.941 22.68C228.941 29.302 233.456 33.516 239.347 33.516C242.357 33.516 244.808 32.398 246.829 30.334L246.356 28.227ZM238.186 14.725C240.766 14.725 242.486 16.574 242.572 19.713H233.069C233.585 16.574 235.348 14.725 238.186 14.725ZM275.645 18.466C280.375 17.606 283.127 14.682 283.127 10.898C283.127 6.254 279.257 3.115 272.678 3.115H262.229V3.287C263.347 4.749 263.605 6.641 263.605 9.694V26.292C263.605 29.56 263.304 31.323 262.229 32.828V33H269.152V32.828C268.077 31.323 267.776 29.56 267.776 26.292V18.896H270.872L282.181 33H287.642V32.914L275.645 18.466ZM267.776 5.996H271.947C276.333 5.996 278.655 7.673 278.655 10.941C278.655 14.037 276.376 15.972 271.904 15.972H267.776V5.996ZM305.817 28.227C303.925 29.517 302.119 30.162 299.84 30.162C295.497 30.162 292.53 27.41 292.358 22.25H306.032V20.616C306.032 15.069 302.592 12.102 297.905 12.102C292.444 12.102 288.402 16.617 288.402 22.68C288.402 29.302 292.917 33.516 298.808 33.516C301.818 33.516 304.269 32.398 306.29 30.334L305.817 28.227ZM297.647 14.725C300.227 14.725 301.947 16.574 302.033 19.713H292.53C293.046 16.574 294.809 14.725 297.647 14.725ZM329.985 11.758H329.899L321.901 12.575C320.869 12.231 319.88 12.102 318.934 12.102C314.161 12.102 310.807 14.94 310.807 19.111C310.807 21.261 311.753 23.11 313.344 24.357V24.486C311.194 25.604 310.119 27.238 310.119 28.958C310.119 30.334 310.85 31.581 312.226 32.312V32.441C310.291 33.559 309.087 35.021 309.087 36.741C309.087 39.751 312.269 42.202 318.375 42.202C324.911 42.202 329.77 39.235 329.77 34.763C329.77 31.366 326.932 29.603 322.374 29.603H316.01C314.247 29.603 313.473 28.872 313.473 27.883C313.473 26.808 314.247 26.034 315.494 25.518C316.526 25.862 317.687 26.077 318.934 26.077C323.664 26.077 326.932 23.11 326.932 19.111C326.932 17.477 326.244 16.187 325.298 15.413V15.241L329.985 15.284V11.758ZM318.891 23.583C316.526 23.583 314.763 21.906 314.763 19.111C314.763 16.273 316.526 14.553 318.891 14.553C321.342 14.553 323.105 16.273 323.105 19.111C323.105 21.906 321.342 23.583 318.891 23.583ZM321.987 33C324.567 33 325.814 33.817 325.814 35.58C325.814 38.16 322.288 39.665 318.504 39.665C314.72 39.665 312.699 38.203 312.699 36.053C312.699 34.72 313.731 33.645 315.15 33H321.987ZM340.741 33.516C343.278 33.516 345.342 32.14 346.632 30.033H346.847V33.129H346.933L351.706 32.527V32.312C350.932 31.151 350.803 29.861 350.803 27.453V12.618H345.815V12.79C346.589 13.994 346.847 15.37 346.847 17.778V24.572C346.847 28.141 344.396 30.377 341.902 30.377C339.795 30.377 338.333 29.001 338.333 26.034V12.618H333.388V12.79C334.162 14.037 334.377 15.413 334.377 17.778V26.077C334.377 31.022 337.215 33.516 340.741 33.516ZM356.91 33H362.715V32.828C361.941 31.624 361.812 30.377 361.812 27.926V2.341H361.683L356.781 2.857V3.115C357.641 4.319 357.856 5.093 357.856 7.63V27.926C357.856 30.377 357.727 31.624 356.91 32.828V33ZM385.672 30.463C385.242 30.635 384.812 30.764 384.339 30.764C383.393 30.764 382.834 30.248 382.834 28.958V19.799C382.834 14.424 379.523 12.102 375.266 12.102C372.385 12.102 369.719 13.306 367.741 14.983L368.171 17.176C370.149 15.929 372.17 15.198 374.234 15.198C376.857 15.198 378.921 16.445 378.921 19.67V21.003L374.621 22.121C370.192 23.282 367.182 24.873 367.182 28.356C367.182 31.409 369.633 33.516 372.686 33.516C375.051 33.516 377.201 32.441 378.792 29.947H378.964V30.033C379.093 32.14 380.727 33.473 382.705 33.473C383.995 33.473 385.027 33.129 385.973 32.441L385.672 30.463ZM374.062 30.506C372.557 30.506 371.31 29.56 371.31 27.883C371.31 26.034 372.901 25.217 375.696 24.314L378.921 23.282V25.002C378.921 28.485 376.212 30.506 374.062 30.506ZM390.235 28.012C390.235 30.463 390.106 31.624 389.289 32.828V33H395.266V32.828C394.32 31.624 394.191 30.463 394.191 28.012V24.099C394.191 18.595 397.158 16.015 400.254 16.015C400.856 16.015 401.372 16.058 401.931 16.23V12.274C401.458 12.188 400.985 12.102 400.34 12.102C397.459 12.102 395.524 13.865 394.406 17.649H394.191V12.489H394.062L389.16 13.005V13.263C389.977 14.381 390.235 15.542 390.235 17.993V28.012Z" fill="black"/>
<path d="M11.49 74.15H8.91L2.55 90.38C1.8 92.36 1.29 93.86 0.21 94.88V95H4.5V94.88C3.87 93.86 4.14 92.36 4.89 90.41L5.52 88.76H14.22L14.85 90.35C15.6 92.24 15.93 93.86 15.33 94.88V95H20.31V94.88C19.35 93.83 18.84 92.36 17.97 90.23L11.49 74.15ZM9.75 77.81H9.87L13.41 86.69H6.33L9.75 77.81ZM22.6385 95H31.0685C35.9885 95 38.6585 92.36 38.6585 89.24C38.6585 86.69 36.6185 84.62 32.9285 84.14V84.02C35.7485 83.42 37.5785 81.59 37.5785 79.19C37.5785 76.22 35.1485 74.15 30.3485 74.15H22.6385V74.27C23.3885 75.32 23.5985 76.58 23.5985 78.8V90.35C23.5985 92.57 23.3885 93.83 22.6385 94.88V95ZM26.5385 83.15V76.16H29.8685C32.7785 76.16 34.4585 77.36 34.4585 79.52C34.4585 81.95 32.8085 83.15 29.8385 83.15H26.5385ZM29.9285 85.16C33.4685 85.16 35.5085 86.42 35.5085 89C35.5085 91.7 33.3785 92.99 30.1085 92.99H26.5385V85.16H29.9285ZM52.0823 95.36C55.0523 95.36 57.3623 94.28 59.3123 92.33L58.9523 90.68C56.9723 92.09 54.9923 92.84 52.7423 92.84C48.1523 92.84 44.5223 89.9 44.5223 84.35C44.5223 79.19 48.0323 75.89 52.4123 75.89C54.6923 75.89 56.7923 76.94 58.1723 78.86H58.3223V75.32C56.6123 74.36 54.6923 73.79 52.2323 73.79C46.6223 73.79 41.2823 77.72 41.2823 84.62C41.2823 91.55 46.3823 95.36 52.0823 95.36ZM63.2379 90.23C63.2379 92.45 63.1479 93.83 62.2779 94.88V95H69.8979C76.6779 95 81.1179 90.8 81.1179 84.56C81.1179 78.35 76.6779 74.15 69.8979 74.15H62.2779V74.27C62.9679 75.32 63.2379 76.49 63.2379 78.8V90.23ZM66.1779 76.16H69.2379C74.4279 76.16 77.8779 78.92 77.8779 84.56C77.8779 90.2 74.4279 92.99 69.2379 92.99H66.1779V76.16ZM99.3335 91.1C98.5235 92.54 97.1135 92.93 94.7735 92.93H88.4135V85.46H92.9735C95.3435 85.46 96.4235 85.79 97.1435 86.57H97.2935V82.31H97.1435C96.4235 83.06 95.3435 83.42 92.9735 83.42H88.4135V76.22H94.3535C96.9635 76.22 98.1635 76.58 98.9435 77.66H99.0935V74.15H84.5135V74.27C85.2935 75.29 85.4735 76.58 85.4735 78.77V90.35C85.4735 92.6 85.2635 93.83 84.5135 94.88V95H99.4835V91.1H99.3335ZM102.971 95H107.951V94.88C107.051 93.86 106.871 92.72 106.871 90.53V85.76H110.891C113.261 85.76 114.491 86.09 115.031 86.84H115.181V82.61H115.031C114.491 83.39 113.261 83.72 110.891 83.72H106.871V76.22H111.731C114.341 76.22 115.691 76.61 116.321 77.66H116.471V74.15H102.971V74.27C103.751 75.29 103.931 76.43 103.931 78.59V90.53C103.931 92.72 103.751 93.86 102.971 94.88V95ZM132.216 84.2C133.146 85.34 133.476 86.39 133.476 88.61V92.69C132.306 93.14 131.196 93.32 129.996 93.32C124.956 93.32 121.866 89.75 121.866 84.71C121.866 79.64 125.136 75.89 130.476 75.89C133.176 75.89 135.426 76.94 136.776 78.86H136.926V75.32C135.186 74.36 132.996 73.79 130.266 73.79C123.426 73.79 118.626 78.44 118.626 84.74C118.626 90.95 123.066 95.36 129.546 95.36C132.216 95.36 134.526 94.55 136.416 93.38V88.61C136.416 86.39 136.626 85.34 137.316 84.2V84.08H132.216V84.2ZM160.139 74.15H155.279V74.27C156.029 75.29 156.239 76.55 156.239 78.77V83.39H144.869V78.77C144.869 76.55 145.079 75.29 145.829 74.27V74.15H140.969V74.27C141.749 75.29 141.929 76.55 141.929 78.77V90.38C141.929 92.57 141.749 93.83 140.969 94.88V95H145.829V94.88C145.079 93.83 144.869 92.57 144.869 90.38V85.46H156.239V90.38C156.239 92.57 156.029 93.83 155.279 94.88V95H160.139V94.88C159.359 93.83 159.179 92.57 159.179 90.38V78.77C159.179 76.55 159.359 75.29 160.139 74.27V74.15ZM164.495 95H169.355V94.88C168.605 93.83 168.395 92.57 168.395 90.38V78.77C168.395 76.58 168.605 75.29 169.355 74.27V74.15H164.495V74.27C165.245 75.29 165.455 76.58 165.455 78.77V90.38C165.455 92.57 165.245 93.83 164.495 94.88V95ZM186.327 84.2C187.257 85.34 187.587 86.39 187.587 88.61V92.69C186.417 93.14 185.307 93.32 184.107 93.32C179.067 93.32 175.977 89.75 175.977 84.71C175.977 79.64 179.247 75.89 184.587 75.89C187.287 75.89 189.537 76.94 190.887 78.86H191.037V75.32C189.297 74.36 187.107 73.79 184.377 73.79C177.537 73.79 172.737 78.44 172.737 84.74C172.737 90.95 177.177 95.36 183.657 95.36C186.327 95.36 188.637 94.55 190.527 93.38V88.61C190.527 86.39 190.737 85.34 191.427 84.2V84.08H186.327V84.2ZM207.83 78.44C209.63 76.58 210.83 75.38 212.63 74.27V74.15H207.56V74.27C207.56 75.32 207.02 76.28 205.58 77.78L199.07 84.71H198.95V78.77C198.95 76.58 199.16 75.29 199.91 74.27V74.15H195.08V74.27C195.86 75.29 196.04 76.58 196.04 78.77V90.38C196.04 92.57 195.86 93.83 195.08 94.88V95H199.94V94.88C199.16 93.83 198.95 92.57 198.95 90.38V87.74L201.56 85.01L209.63 95H213.53V94.91L203.57 82.91L207.83 78.44ZM215.412 95H229.422V90.77H229.272C228.522 92.57 227.022 92.93 224.622 92.93H219.312V78.77C219.312 76.61 219.492 75.32 220.272 74.27V74.15H215.412V74.27C216.192 75.32 216.372 76.61 216.372 78.77V90.53C216.372 92.63 216.102 93.92 215.412 94.88V95ZM245.189 95L252.119 77.42H252.269V90.35C252.269 92.54 252.089 93.83 251.309 94.88V95H256.139V94.88C255.389 93.83 255.209 92.54 255.209 90.35V78.74C255.209 76.61 255.389 75.29 256.139 74.27V74.15H251.219L244.379 91.37H244.259L237.299 74.15H232.199V74.27C233.009 75.29 233.159 76.64 233.159 78.74V90.35C233.159 92.54 232.979 93.83 232.199 94.88V95H236.399V94.88C235.649 93.83 235.439 92.54 235.439 90.35V77.39H235.589L242.699 95H245.189ZM260.471 95H264.671V94.88C263.921 93.83 263.711 92.54 263.711 90.35V77.63H263.861L274.901 95H278.021V78.77C278.021 76.58 278.231 75.29 278.981 74.27V74.15H274.781V74.27C275.561 75.29 275.741 76.58 275.741 78.77V90.8H275.591L265.061 74.15H260.711V74.21L261.401 75.32V90.35C261.401 92.54 261.221 93.83 260.471 94.88V95ZM292.688 95.36C298.808 95.36 303.068 90.8 303.068 84.59C303.068 78.38 298.838 73.79 292.688 73.79C286.598 73.79 282.308 78.38 282.308 84.59C282.308 90.8 286.598 95.36 292.688 95.36ZM292.688 93.2C288.428 93.2 285.548 89.72 285.548 84.59C285.548 79.46 288.428 75.92 292.688 75.92C296.948 75.92 299.798 79.46 299.798 84.59C299.798 89.72 296.948 93.2 292.688 93.2ZM313.336 86.54C317.926 86.54 321.016 84.11 321.016 80.3C321.016 76.43 317.926 74.15 313.336 74.15H306.496V74.27C307.276 75.29 307.456 76.58 307.456 78.77V90.38C307.456 92.57 307.276 93.83 306.496 94.88V95H311.506V94.88C310.636 93.83 310.396 92.57 310.396 90.38V86.54H313.336ZM312.736 76.16C315.976 76.16 317.896 77.39 317.896 80.3C317.896 83.18 315.976 84.5 312.736 84.5H310.396V76.16H312.736ZM339.287 92.84C341.957 91.4 343.877 88.31 343.877 84.53C343.877 78.38 339.677 73.79 333.527 73.79C327.407 73.79 323.207 78.41 323.207 84.59C323.207 90.74 327.407 95.36 333.527 95.36C334.457 95.36 335.507 95.24 336.797 94.85L345.287 95.66H345.377V92.96H339.287V92.84ZM326.417 84.59C326.417 79.37 329.327 75.92 333.527 75.92C337.727 75.92 340.607 79.37 340.607 84.59C340.607 89.72 337.817 93.2 333.527 93.2C329.327 93.2 326.417 89.75 326.417 84.59ZM356.959 84.86C360.259 84.26 362.179 82.22 362.179 79.58C362.179 76.34 359.479 74.15 354.889 74.15H347.599V74.27C348.379 75.29 348.559 76.61 348.559 78.74V90.32C348.559 92.6 348.349 93.83 347.599 94.88V95H352.429V94.88C351.679 93.83 351.469 92.6 351.469 90.32V85.16H353.629L361.519 95H365.329V94.94L356.959 84.86ZM351.469 76.16H354.379C357.439 76.16 359.059 77.33 359.059 79.61C359.059 81.77 357.469 83.12 354.349 83.12H351.469V76.16ZM372.57 95.36C376.56 95.36 379.71 92.87 379.71 89.27C379.71 86.69 378.18 85.1 375.42 83.84L372.45 82.49C370.5 81.62 369.81 80.57 369.81 79.25C369.81 77.09 371.61 75.89 373.98 75.89C375.93 75.89 377.79 76.76 378.99 78.65H379.14V75.2C377.94 74.42 376.05 73.79 373.95 73.79C369.84 73.79 366.93 76.46 366.93 79.79C366.93 82.1 368.22 84.02 371.07 85.31L373.98 86.6C375.9 87.47 376.77 88.34 376.77 89.81C376.77 92.03 374.79 93.23 372.54 93.23C370.29 93.23 368.19 92.12 366.57 89.78H366.42V93.35C368.1 94.64 370.35 95.36 372.57 95.36ZM387.577 95H392.677V94.88C391.837 93.83 391.597 92.57 391.597 90.35V76.19H393.937C396.607 76.19 397.927 76.73 398.617 77.75H398.767V74.15H381.487V77.75H381.667C382.357 76.73 383.707 76.19 386.347 76.19H388.657V90.35C388.657 92.57 388.447 93.83 387.577 94.88V95ZM410.506 95.36C415.786 95.36 418.816 91.97 418.816 86.54V78.8C418.816 76.55 418.996 75.32 419.746 74.27V74.15H415.546V74.27C416.326 75.32 416.506 76.52 416.506 78.77V86.6C416.506 90.62 414.286 92.9 410.776 92.9C407.176 92.9 405.076 90.53 405.076 86.57V78.77C405.076 76.52 405.286 75.32 406.036 74.27V74.15H401.176V74.27C401.926 75.32 402.136 76.52 402.136 78.77V86.57C402.136 92 405.166 95.36 410.506 95.36ZM439.277 78.83C440.087 76.82 440.657 75.44 441.737 74.27V74.15H437.597V74.27C437.987 75.44 437.747 76.7 436.937 78.86L432.167 91.13H432.017L427.607 78.92C426.917 77 426.527 75.41 427.157 74.27V74.15H422.207V74.27C423.137 75.41 423.737 76.88 424.457 78.83L430.367 95H432.977L439.277 78.83ZM448.724 95H451.544L456.494 78.62H456.644L461.174 95H463.904L468.524 78.71C469.064 76.79 469.544 75.5 470.534 74.27V74.15H466.454V74.27C466.994 75.44 466.814 76.7 466.274 78.68L462.944 90.77H462.794L458.174 74.15H454.664L455.204 75.77L450.704 90.95H450.584L447.314 78.74C446.804 76.79 446.624 75.59 447.224 74.27V74.15H442.334V74.27C443.264 75.53 443.744 76.82 444.284 78.83L448.724 95ZM475.059 90.17C473.499 92.33 472.479 93.71 471.039 94.88V95H475.479V94.94C475.449 93.83 476.109 92.27 477.549 90.23L480.429 86.21H480.579L483.609 90.44C485.019 92.42 485.619 93.8 485.619 94.91V95H490.899V94.88C489.609 93.8 488.529 92.3 486.969 90.17L482.289 83.72L485.949 78.71C487.329 76.76 488.319 75.47 489.729 74.27V74.15H485.319V74.27C485.349 75.41 484.869 76.67 483.519 78.56L481.119 81.86H480.969L478.719 78.68C477.459 76.94 476.679 75.35 476.679 74.24V74.15H471.399V74.27C472.689 75.41 473.739 76.82 475.119 78.71L479.259 84.35L475.059 90.17ZM505.785 74.27C505.935 75.53 505.425 76.79 504.195 78.77L500.925 84.05H500.805L497.625 78.74C496.575 76.97 495.945 75.59 496.215 74.24V74.15H491.055V74.27C492.225 75.41 493.125 76.82 494.235 78.68L498.975 86.51V90.35C498.975 92.57 498.765 93.8 498.015 94.88V95H502.875V94.88C502.125 93.8 501.915 92.57 501.915 90.35V86.42L506.685 78.77C507.825 77 508.785 75.5 510.165 74.27V74.15H505.785V74.27ZM526.883 95V90.98H526.733C525.953 92.51 524.513 92.93 522.023 92.93H514.943V92.81L526.823 76.16V74.15H511.793V77.93H511.943C512.693 76.67 514.073 76.22 516.443 76.22H523.253V76.31L511.373 92.99V95H526.883ZM14.22 127.23C13.92 127.35 13.62 127.44 13.29 127.44C12.63 127.44 12.24 127.08 12.24 126.18V119.79C12.24 116.04 9.93 114.42 6.96 114.42C4.95 114.42 3.09 115.26 1.71 116.43L2.01 117.96C3.39 117.09 4.8 116.58 6.24 116.58C8.07 116.58 9.51 117.45 9.51 119.7V120.63L6.51 121.41C3.42 122.22 1.32 123.33 1.32 125.76C1.32 127.89 3.03 129.36 5.16 129.36C6.81 129.36 8.31 128.61 9.42 126.87H9.54V126.93C9.63 128.4 10.77 129.33 12.15 129.33C13.05 129.33 13.77 129.09 14.43 128.61L14.22 127.23ZM6.12 127.26C5.07 127.26 4.2 126.6 4.2 125.43C4.2 124.14 5.31 123.57 7.26 122.94L9.51 122.22V123.42C9.51 125.85 7.62 127.26 6.12 127.26ZM24.0335 129.36C27.6035 129.36 30.6635 126.39 30.6635 121.68C30.6635 117.15 27.8435 114.42 24.5435 114.42C22.5635 114.42 21.0935 115.35 20.0735 116.91H19.9535V107.61H19.8635L16.4135 107.97V108.15C16.9835 108.93 17.1635 109.74 17.1635 111.45V129H18.9935L19.6235 127.29H19.7435C20.7335 128.64 22.3235 129.36 24.0335 129.36ZM23.6435 127.5C21.3335 127.5 19.9535 125.64 19.9535 122.67V121.02C19.9535 118.53 21.5135 116.58 23.7635 116.58C26.2535 116.58 27.8135 118.77 27.8135 121.95C27.8135 125.22 26.1935 127.5 23.6435 127.5ZM40.4536 129.36C42.3136 129.36 43.9636 128.61 45.3136 127.29L44.9536 125.85C43.7836 126.6 42.5536 127.02 41.1436 127.02C38.1436 127.02 36.0436 124.98 36.0436 121.59C36.0436 118.5 37.9036 116.34 40.8136 116.34C42.2236 116.34 43.5436 117.06 44.2936 118.11H44.4736V115.32C43.3936 114.75 41.9836 114.42 40.5736 114.42C36.2236 114.42 33.1636 117.63 33.1636 121.95C33.1636 126.18 36.1036 129.36 40.4536 129.36ZM53.2889 129.36C55.1189 129.36 56.7089 128.52 57.7589 126.87H57.8789V129.09H57.9689L61.3289 128.67V128.52C60.7589 127.71 60.6689 126.9 60.6689 125.22V107.61H60.5789L57.1289 107.97V108.15C57.7289 108.96 57.8789 109.74 57.8789 111.45V116.22H57.7589C56.8589 115.11 55.4789 114.42 53.7989 114.42C50.1089 114.42 47.1689 117.51 47.1689 122.07C47.1689 126.63 49.9889 129.36 53.2889 129.36ZM54.0989 127.2C51.6689 127.2 50.0189 125.16 50.0189 121.77C50.0189 118.47 51.6989 116.28 54.2189 116.28C56.4989 116.28 57.8789 118.14 57.8789 121.05V122.82C57.8789 125.28 56.2589 127.2 54.0989 127.2ZM76.4562 125.67C75.1362 126.57 73.8762 127.02 72.2862 127.02C69.2562 127.02 67.1862 125.1 67.0662 121.5H76.6062V120.36C76.6062 116.49 74.2062 114.42 70.9362 114.42C67.1262 114.42 64.3062 117.57 64.3062 121.8C64.3062 126.42 67.4562 129.36 71.5662 129.36C73.6662 129.36 75.3762 128.58 76.7862 127.14L76.4562 125.67ZM70.7562 116.25C72.5562 116.25 73.7562 117.54 73.8162 119.73H67.1862C67.5462 117.54 68.7762 116.25 70.7562 116.25ZM80.7211 129H84.9511V128.88C84.2611 128.04 84.1711 127.11 84.1711 125.4V116.76H87.9211V114.78H84.1711V112.26C84.1711 110.19 85.3111 109.29 86.9311 109.29C87.8611 109.29 88.7611 109.71 89.2111 110.31H89.3911V107.73C88.7311 107.52 87.8011 107.34 86.8711 107.34C83.6911 107.34 81.4111 109.35 81.4111 112.92V114.78H78.3811V116.76H81.4111V125.4C81.4111 127.14 81.3211 128.04 80.7211 128.88V129ZM103.952 114.18H103.892L98.3123 114.75C97.5923 114.51 96.9023 114.42 96.2423 114.42C92.9123 114.42 90.5723 116.4 90.5723 119.31C90.5723 120.81 91.2323 122.1 92.3423 122.97V123.06C90.8423 123.84 90.0923 124.98 90.0923 126.18C90.0923 127.14 90.6023 128.01 91.5623 128.52V128.61C90.2123 129.39 89.3723 130.41 89.3723 131.61C89.3723 133.71 91.5923 135.42 95.8523 135.42C100.412 135.42 103.802 133.35 103.802 130.23C103.802 127.86 101.822 126.63 98.6423 126.63H94.2023C92.9723 126.63 92.4323 126.12 92.4323 125.43C92.4323 124.68 92.9723 124.14 93.8423 123.78C94.5623 124.02 95.3723 124.17 96.2423 124.17C99.5423 124.17 101.822 122.1 101.822 119.31C101.822 118.17 101.342 117.27 100.682 116.73V116.61L103.952 116.64V114.18ZM96.2123 122.43C94.5623 122.43 93.3323 121.26 93.3323 119.31C93.3323 117.33 94.5623 116.13 96.2123 116.13C97.9223 116.13 99.1523 117.33 99.1523 119.31C99.1523 121.26 97.9223 122.43 96.2123 122.43ZM98.3723 129C100.172 129 101.042 129.57 101.042 130.8C101.042 132.6 98.5823 133.65 95.9423 133.65C93.3023 133.65 91.8923 132.63 91.8923 131.13C91.8923 130.2 92.6123 129.45 93.6023 129H98.3723ZM107.167 125.46C107.167 127.17 107.107 128.04 106.537 128.88V129H110.587V128.88C110.047 128.04 109.927 127.17 109.927 125.46V120.72C109.927 118.26 111.667 116.61 113.497 116.61C115.177 116.61 116.197 117.75 116.197 119.91V125.46C116.197 127.17 116.107 128.04 115.597 128.88V129H119.647V128.88C119.077 128.04 118.987 127.17 118.987 125.46V119.85C118.987 116.25 116.947 114.42 114.337 114.42C112.507 114.42 111.097 115.32 110.077 116.88H109.927V107.61H109.837L106.417 107.97V108.12C106.987 108.93 107.167 109.89 107.167 111.57V125.46ZM125.16 112.17C126.21 112.17 127.05 111.3 127.05 110.19C127.05 109.14 126.18 108.24 125.16 108.24C124.02 108.24 123.18 109.14 123.18 110.19C123.18 111.3 124.02 112.17 125.16 112.17ZM126.54 114.69H126.45L123.03 115.05V115.23C123.6 116.01 123.78 116.82 123.78 118.38V125.49C123.78 127.2 123.72 128.04 123.15 128.88V129H127.2V128.88C126.63 128.04 126.54 127.2 126.54 125.49V114.69ZM144.294 114.18H144.234L138.654 114.75C137.934 114.51 137.244 114.42 136.584 114.42C133.254 114.42 130.914 116.4 130.914 119.31C130.914 120.81 131.574 122.1 132.684 122.97V123.06C131.184 123.84 130.434 124.98 130.434 126.18C130.434 127.14 130.944 128.01 131.904 128.52V128.61C130.554 129.39 129.714 130.41 129.714 131.61C129.714 133.71 131.934 135.42 136.194 135.42C140.754 135.42 144.144 133.35 144.144 130.23C144.144 127.86 142.164 126.63 138.984 126.63H134.544C133.314 126.63 132.774 126.12 132.774 125.43C132.774 124.68 133.314 124.14 134.184 123.78C134.904 124.02 135.714 124.17 136.584 124.17C139.884 124.17 142.164 122.1 142.164 119.31C142.164 118.17 141.684 117.27 141.024 116.73V116.61L144.294 116.64V114.18ZM136.554 122.43C134.904 122.43 133.674 121.26 133.674 119.31C133.674 117.33 134.904 116.13 136.554 116.13C138.264 116.13 139.494 117.33 139.494 119.31C139.494 121.26 138.264 122.43 136.554 122.43ZM138.714 129C140.514 129 141.384 129.57 141.384 130.8C141.384 132.6 138.924 133.65 136.284 133.65C133.644 133.65 132.234 132.63 132.234 131.13C132.234 130.2 132.954 129.45 133.944 129H138.714ZM156.509 118.02C158.219 116.46 159.059 115.71 160.409 114.9V114.78H155.969V114.9C155.969 115.68 155.609 116.28 154.439 117.39L150.389 121.29H150.269V107.61H150.179L146.759 107.97V108.15C147.329 108.96 147.509 109.53 147.509 111.27V125.46C147.509 127.2 147.419 128.04 146.849 128.88V129H150.899V128.88C150.359 128.04 150.269 127.2 150.269 125.46V123.84L151.949 122.28L157.229 129H160.889V128.97L153.959 120.42L156.509 118.02ZM162.728 129H166.778V128.88C166.238 128.04 166.148 127.17 166.148 125.46V107.61H166.058L162.638 107.97V108.15C163.238 108.99 163.388 109.53 163.388 111.3V125.46C163.388 127.17 163.298 128.04 162.728 128.88V129ZM171.124 125.49C171.124 127.17 171.064 128.01 170.464 128.88V129H174.514V128.88C173.974 128.01 173.884 127.17 173.884 125.49V120.66C173.884 118.23 175.564 116.61 177.334 116.61C179.014 116.61 179.854 117.72 179.854 119.79V125.52C179.854 127.23 179.734 128.04 179.224 128.88V129H183.304V128.88C182.734 128.04 182.644 127.23 182.644 125.52V120.69C182.644 118.23 184.264 116.61 186.004 116.61C187.534 116.61 188.524 117.63 188.524 119.82V125.46C188.524 127.17 188.434 128.04 187.894 128.88V129H191.944V128.88C191.374 128.04 191.284 127.17 191.284 125.46V119.64C191.284 116.28 189.334 114.42 186.814 114.42C184.984 114.42 183.424 115.41 182.374 117.27H182.254C181.564 115.38 180.064 114.42 178.294 114.42C176.524 114.42 175.024 115.26 174.034 116.91H173.884V114.69H173.794L170.374 115.05V115.23C170.944 116.04 171.124 116.82 171.124 118.53V125.49ZM196.084 125.49C196.084 127.2 196.024 128.04 195.454 128.88V129H199.504V128.88C198.994 128.04 198.874 127.2 198.874 125.49V120.72C198.874 118.17 200.644 116.61 202.444 116.61C204.034 116.61 205.144 117.72 205.144 119.91V125.49C205.144 127.2 205.054 128.01 204.514 128.88V129H208.564V128.88C207.994 128.01 207.904 127.2 207.904 125.49V119.85C207.904 116.25 205.864 114.42 203.194 114.42C201.484 114.42 200.044 115.29 198.994 116.88H198.874V114.69H198.784L195.334 115.05V115.23C195.904 116.01 196.084 116.82 196.084 118.53V125.49ZM218.517 129.36C222.597 129.36 225.627 126.24 225.627 121.86C225.627 117.48 222.597 114.42 218.517 114.42C214.407 114.42 211.347 117.51 211.347 121.86C211.347 126.24 214.407 129.36 218.517 129.36ZM218.517 127.35C215.937 127.35 214.347 125.22 214.347 121.86C214.347 118.53 215.967 116.43 218.517 116.43C220.977 116.43 222.627 118.47 222.627 121.86C222.627 125.28 220.977 127.35 218.517 127.35ZM229.306 131.52C229.306 133.23 229.246 134.01 228.676 134.88V135H232.786V134.88C232.186 134.01 232.096 133.23 232.096 131.52V127.5H232.216C233.116 128.73 234.646 129.36 236.176 129.36C239.776 129.36 242.806 126.39 242.806 121.68C242.806 117.24 240.046 114.42 236.686 114.42C234.676 114.42 233.206 115.38 232.216 116.91H232.096V114.69H232.006L228.556 115.05V115.23C229.156 116.01 229.306 116.82 229.306 118.5V131.52ZM235.816 127.5C233.566 127.5 232.096 125.79 232.096 122.61V120.96C232.096 118.41 233.806 116.58 235.906 116.58C238.366 116.58 239.956 118.68 239.956 121.98C239.956 125.28 238.276 127.5 235.816 127.5ZM256.132 131.52C256.132 133.2 256.042 134.04 255.412 134.88V135H259.552V134.88C258.982 134.04 258.892 133.17 258.892 131.52V114.78H257.062L256.432 116.46H256.312C255.322 115.2 253.852 114.42 251.992 114.42C248.392 114.42 245.392 117.45 245.392 122.1C245.392 126.69 248.272 129.36 251.482 129.36C253.372 129.36 254.872 128.55 255.982 126.87H256.132V131.52ZM252.322 127.2C249.862 127.2 248.242 125.07 248.242 121.77C248.242 118.47 249.922 116.28 252.412 116.28C254.632 116.28 256.132 118.02 256.132 121.08V122.79C256.132 125.34 254.452 127.2 252.322 127.2ZM263.732 125.52C263.732 127.23 263.642 128.04 263.072 128.88V129H267.242V128.88C266.582 128.04 266.492 127.23 266.492 125.52V122.79C266.492 118.95 268.562 117.15 270.722 117.15C271.142 117.15 271.502 117.18 271.892 117.3V114.54C271.562 114.48 271.232 114.42 270.782 114.42C268.772 114.42 267.422 115.65 266.642 118.29H266.492V114.69H266.402L262.982 115.05V115.23C263.552 116.01 263.732 116.82 263.732 118.53V125.52ZM277.897 129.36C280.837 129.36 283.177 127.59 283.177 124.92C283.177 123.15 282.247 121.98 280.417 121.23L278.197 120.3C276.847 119.73 276.307 119.19 276.307 118.26C276.307 117.03 277.567 116.34 279.067 116.34C280.507 116.34 281.827 116.94 282.667 118.05H282.817V115.35C281.797 114.78 280.387 114.42 279.007 114.42C276.037 114.42 273.817 116.31 273.817 118.83C273.817 120.48 274.717 121.77 276.607 122.61L278.707 123.51C280.057 124.11 280.657 124.53 280.657 125.49C280.657 126.84 279.277 127.44 277.867 127.44C276.337 127.44 274.837 126.75 273.697 125.28H273.547V128.01C274.717 128.85 276.337 129.36 277.897 129.36ZM291.732 129.36C292.872 129.36 293.922 128.97 294.762 128.34L294.462 126.84C293.832 127.17 293.202 127.29 292.542 127.29C291.192 127.29 290.562 126.6 290.562 125.07V116.76H294.582V114.78H290.562V111.27H288.342C288.222 114.45 287.772 114.96 284.892 115.02V116.76H287.802V125.16C287.802 128.04 289.422 129.36 291.732 129.36ZM302.15 129.36C303.92 129.36 305.36 128.4 306.26 126.93H306.41V129.09H306.47L309.8 128.67V128.52C309.26 127.71 309.17 126.81 309.17 125.13V114.78H305.69V114.9C306.23 115.74 306.41 116.7 306.41 118.38V123.12C306.41 125.61 304.7 127.17 302.96 127.17C301.49 127.17 300.47 126.21 300.47 124.14V114.78H297.02V114.9C297.56 115.77 297.71 116.73 297.71 118.38V124.17C297.71 127.62 299.69 129.36 302.15 129.36ZM317.872 129H320.002L324.172 118.62C324.892 116.88 325.282 115.83 326.152 114.9V114.78H322.522V114.9C322.882 115.83 322.672 116.94 322.042 118.59L319.432 125.34H319.282L316.732 118.44C316.162 116.94 315.952 115.89 316.432 114.9V114.78H311.962V114.9C312.742 115.86 313.162 116.91 313.732 118.38L317.872 129ZM333.443 124.98L331.493 118.53C331.013 116.88 330.803 115.8 331.283 114.9V114.78H326.933V114.9C327.743 115.8 328.163 116.97 328.643 118.53L331.973 129H334.043L337.613 118.59H337.733L341.003 129H343.103L346.493 118.62C347.033 116.94 347.483 115.89 348.323 114.9V114.78H344.753V114.9C345.143 115.83 344.963 116.88 344.453 118.56L342.413 125.13H342.263L339.053 114.78H336.203L336.623 115.92L333.563 124.98H333.443ZM351.931 125.61C350.911 127.08 350.191 127.98 349.141 128.88V129H353.131V128.91C353.131 127.95 353.281 127.05 354.241 125.67L355.741 123.54H355.891L357.391 125.73C358.231 126.99 358.561 127.92 358.561 128.91V129H363.241V128.88C362.251 127.95 361.531 126.99 360.511 125.55L357.541 121.38L359.821 118.23C360.931 116.7 361.591 115.8 362.671 114.9V114.78H358.771V114.84C358.771 115.83 358.591 116.67 357.571 118.11L356.401 119.79H356.281L355.141 118.11C354.211 116.76 353.881 115.86 353.881 114.87V114.78H349.171V114.9C350.251 115.86 351.001 116.85 351.931 118.14L354.631 121.89L351.931 125.61ZM374.498 114.9C374.978 115.86 374.618 117.03 374.048 118.5L371.408 125.37H371.258L368.648 118.5C368.048 116.94 367.658 115.86 368.138 114.9V114.78H363.668V114.9C364.538 115.89 365.018 117 365.678 118.56L369.998 129.12L369.668 129.96C368.798 132.3 367.508 132.93 365.918 132.93C365.228 132.93 364.568 132.81 363.968 132.57V134.94C364.538 135.27 365.258 135.42 366.008 135.42C367.988 135.42 369.968 134.55 371.378 130.89L376.178 118.56C376.808 116.97 377.228 115.89 378.128 114.9V114.78H374.498V114.9ZM386.828 127.08C388.808 127.08 389.888 126.84 390.698 125.79H390.848V129H379.538V127.17L387.188 116.82V116.67H383.858C381.998 116.67 380.768 116.91 380.048 117.75H379.898V114.78H390.548V116.61L382.868 126.96V127.08H386.828Z" fill="black"/>
</svg>
