<svg width="68" height="68" viewBox="0 0 68 68" fill="none" xmlns="http://www.w3.org/2000/svg">
<mask id="mask0_607_679" style="mask-type:alpha" maskUnits="userSpaceOnUse" x="0" y="0" width="68" height="68">
<rect width="68" height="68" fill="#D9D9D9"/>
</mask>
<g mask="url(#mask0_607_679)">
<path d="M17.8719 60.9166C16.4589 60.9166 15.252 60.4162 14.2513 59.4154C13.2505 58.4147 12.7501 57.2078 12.7501 55.7948V29.2052C12.7501 27.7922 13.2505 26.5853 14.2513 25.5846C15.252 24.5838 16.4589 24.0834 17.8719 24.0834H21.2501V18.4167C21.2501 14.8787 22.4906 11.8693 24.9716 9.38831C27.4526 6.90735 30.4621 5.66687 34 5.66687C37.538 5.66687 40.5475 6.90735 43.0285 9.38831C45.5095 11.8693 46.75 14.8787 46.75 18.4167V24.0834H50.1282C51.5412 24.0834 52.7481 24.5838 53.7488 25.5846C54.7496 26.5853 55.25 27.7922 55.25 29.2052V55.7948C55.25 57.2078 54.7496 58.4147 53.7488 59.4154C52.7481 60.4162 51.5412 60.9166 50.1282 60.9166H17.8719ZM17.8719 56.6667H50.1282C50.3825 56.6667 50.5913 56.5849 50.7548 56.4214C50.9183 56.2579 51.0001 56.0491 51.0001 55.7948V29.2052C51.0001 28.9509 50.9183 28.742 50.7548 28.5785C50.5913 28.4151 50.3825 28.3333 50.1282 28.3333H17.8719C17.6176 28.3333 17.4088 28.4151 17.2453 28.5785C17.0818 28.742 17.0001 28.9509 17.0001 29.2052V55.7948C17.0001 56.0491 17.0818 56.2579 17.2453 56.4214C17.4088 56.5849 17.6176 56.6667 17.8719 56.6667ZM34 47.4583C35.3768 47.4583 36.5473 46.976 37.5117 46.0116C38.4761 45.0473 38.9583 43.8767 38.9583 42.5C38.9583 41.1233 38.4761 39.9527 37.5117 38.9884C36.5473 38.0239 35.3768 37.5417 34 37.5417C32.6233 37.5417 31.4528 38.0239 30.4884 38.9884C29.524 39.9527 29.0418 41.1233 29.0418 42.5C29.0418 43.8767 29.524 45.0473 30.4884 46.0116C31.4528 46.976 32.6233 47.4583 34 47.4583ZM25.5001 24.0834H42.5001V18.4167C42.5001 16.0556 41.6737 14.0487 40.0209 12.3959C38.3681 10.7431 36.3612 9.91673 34 9.91673C31.6389 9.91673 29.632 10.7431 27.9792 12.3959C26.3264 14.0487 25.5001 16.0556 25.5001 18.4167V24.0834Z" fill="white"/>
</g>
</svg>
