<svg width="157" height="184" viewBox="0 0 157 184" fill="none" xmlns="http://www.w3.org/2000/svg">
<g clip-path="url(#clip0_76_91)">
<path d="M106.91 156.37C105.44 156.37 99.9696 156.16 99.9696 156.16C89.8596 155.74 78.4996 154.05 71.3396 151.74C62.4996 148.74 54.7196 144.58 48.8196 139.11C42.5816 133.637 37.8075 126.694 34.9296 118.91C31.7457 110.509 30.1749 101.583 30.2996 92.6C30.2996 82.71 31.7796 73.66 34.9296 65.87C37.7414 57.8239 42.5154 50.6061 48.8196 44.87C55.2713 38.9229 62.9631 34.4826 71.3396 31.87C78.4996 29.34 89.8596 27.87 99.9696 27.45C100.81 27.45 101.65 27.24 102.28 27.24H152V0H116C96.1796 0 78.7096 2.31 64.1896 7C49.6696 11.79 37.4596 18.1 27.9996 26.52C18.8888 34.5665 11.7106 44.5647 6.99961 55.77C2.34441 67.5628 -0.0309297 80.1317 -0.000386648 92.81C-0.124088 105.715 2.30587 118.518 7.14961 130.48C11.8137 141.492 18.9475 151.285 27.9996 159.1C37.4696 166.89 49.6796 172.99 64.4096 177.2C78.7196 181.41 96.4096 183.73 116.18 183.73H156.18V156.37H106.91Z" fill="#D1AB1C"/>
<path d="M139.67 78.0703H20.3398V105.4H139.67V78.0703Z" fill="#D1AB1C"/>
</g>
<defs>
<clipPath id="clip0_76_91">
<rect width="156.16" height="183.73" fill="white"/>
</clipPath>
</defs>
</svg>
