<svg width="184" height="184" viewBox="0 0 184 184" fill="none" xmlns="http://www.w3.org/2000/svg">
<g clip-path="url(#clip0_76_94)">
<path d="M156.18 0V36.06C156.18 37.48 156.18 39.06 156.12 40.58C156.12 41.32 156.06 42.13 155.99 42.87C155.5 53.09 153.99 64.31 151.6 71.55C148.6 80.48 144.41 88.22 138.96 94.17C133.438 100.312 126.535 105.052 118.82 108C110.392 111.099 101.469 112.634 92.49 112.53C83.348 112.676 74.257 111.14 65.67 108C57.6948 105.145 50.5303 100.399 44.79 94.17C38.7971 87.6918 34.3131 79.9669 31.66 71.55C29.06 64.31 27.66 53.09 27.26 42.87C27.2 42.13 27.13 41.32 27.13 40.58C27.07 39.03 27.07 37.48 27.07 36.06V0H0V26.89C0 46.71 2.23 64.12 6.94 78.8C11.65 93.18 18.09 105.38 26.33 114.8C34.3491 123.992 44.3739 131.218 55.63 135.92C62.0717 138.508 68.7788 140.379 75.63 141.5C81.2516 142.404 86.9362 142.858 92.63 142.86C97.7505 142.869 102.865 142.498 107.93 141.75C115.637 140.702 123.176 138.662 130.36 135.68C141.418 131.114 151.215 123.952 158.92 114.8C166.66 105.38 172.86 93.18 177.07 78.56C181.28 64.12 183.51 46.46 183.51 26.64V0H156.18Z" fill="#D1AB1C"/>
<path d="M75.6396 139V183.61H107.92V139H75.6396Z" fill="#D1AB1C"/>
</g>
<defs>
<clipPath id="clip0_76_94">
<rect width="183.5" height="183.58" fill="white"/>
</clipPath>
</defs>
</svg>
