<svg width="185" height="184" viewBox="0 0 185 184" fill="none" xmlns="http://www.w3.org/2000/svg">
<g clip-path="url(#clip0_76_84)">
<path d="M177.56 64.4202C172.83 49.9702 166.35 37.6902 158.06 28.2202C149.998 18.9757 139.914 11.7143 128.59 7.00017C116.756 2.30823 104.13 -0.0681094 91.4 0.000167483C78.3934 -0.15605 65.488 2.3026 53.45 7.23017C42.3274 11.8191 32.4755 19.0227 24.73 28.2302C17 37.6902 10.72 50.0002 6.48 64.6702C2.24 79.1902 0 96.9402 0 116.88V183.61H27.47V107.41C27.47 105.98 27.47 104.41 27.54 102.86C27.54 102.11 27.6 101.3 27.66 100.56C28.16 90.2802 29.66 79.0002 32.09 71.7102C35.09 62.7102 39.31 54.9502 44.8 48.9702C50.33 42.7773 57.254 37.9888 65 35.0002C73.4781 31.8927 82.451 30.3543 91.48 30.4602C100.682 30.3099 109.833 31.8487 118.48 35.0002C126.508 37.9013 133.714 42.7051 139.48 49.0002C145.502 55.5147 150.01 63.28 152.68 71.7402C155.3 79.0302 156.73 90.3102 157.11 100.59C157.17 101.33 157.23 102.14 157.23 102.89C157.29 104.45 157.29 106.01 157.29 107.44V183.64H184.52V116.64C184.54 96.6902 182.3 79.1902 177.56 64.4202Z" fill="#D1AB1C"/>
<path d="M176.12 121.03H8.41992V148.51H176.12V121.03Z" fill="#D1AB1C"/>
</g>
<defs>
<clipPath id="clip0_76_84">
<rect width="184.54" height="183.61" fill="white"/>
</clipPath>
</defs>
</svg>
