<svg width="183" height="184" viewBox="0 0 183 184" fill="none" xmlns="http://www.w3.org/2000/svg">
<g clip-path="url(#clip0_76_87)">
<path d="M175.53 53.2C170.964 42.128 163.794 32.3207 154.63 24.61C145.21 16.86 133 10.66 118.36 6.45C103.91 2.23 86.24 0 66.4 0H0V183.65H66.65C86.49 183.65 103.91 181.42 118.65 176.65C133.03 171.94 145.25 165.49 154.65 157.25C163.838 149.247 171.064 139.239 175.77 128C180.432 116.225 182.791 103.664 182.72 91C182.879 78.0456 180.434 65.1912 175.53 53.2V53.2ZM147.87 117.93C145.007 125.914 140.247 133.083 134 138.82C127.513 144.829 119.779 149.329 111.35 152C103.54 154.79 91.14 156.21 80.35 156.52C78.8 156.58 77.25 156.58 75.83 156.58H32.3V27.34H75.83C77.25 27.34 78.83 27.34 80.35 27.4C91.14 27.78 103.54 29.33 111.35 31.93C120.28 34.93 128.03 39.12 133.99 44.58C140.154 50.0971 144.912 57.0049 147.87 64.73C150.967 73.1654 152.502 82.0945 152.4 91.08C152.546 100.232 151.01 109.333 147.87 117.93V117.93Z" fill="#D1AB1C"/>
<path d="M32.8096 94.1699H32.9996C32.9296 94.9099 32.8096 99.5399 32.8096 100.96V94.1699Z" fill="#D1AB1C"/>
<path d="M161.55 94.1699V101C161.55 99.5799 161.43 94.9999 161.37 94.2099L161.55 94.1699Z" fill="#D1AB1C"/>
</g>
<defs>
<clipPath id="clip0_76_87">
<rect width="182.72" height="183.65" fill="white"/>
</clipPath>
</defs>
</svg>
