<svg width="185" height="184" viewBox="0 0 185 184" fill="none" xmlns="http://www.w3.org/2000/svg">
<g clip-path="url(#clip0_662_991)">
<path d="M177.56 64.42C172.83 49.97 166.35 37.69 158.06 28.22C149.998 18.976 139.913 11.7148 128.59 6.99998C116.756 2.3078 104.13 -0.0685461 91.4 -2.10409e-05C78.3932 -0.158963 65.4873 2.29979 53.45 7.22998C42.3282 11.8203 32.4766 19.0237 24.73 28.23C17 37.69 10.72 50 6.48 64.67C2.24 79.19 0 96.94 0 116.88V183.61H27.47V107.41C27.47 105.98 27.47 104.41 27.54 102.86C27.54 102.11 27.6 101.3 27.66 100.56C28.16 90.28 29.66 79 32.09 71.71C35.09 62.71 39.31 54.95 44.8 48.97C50.3305 42.7777 57.2543 37.9893 65 35C73.4773 31.8895 82.4507 30.351 91.48 30.46C100.682 30.3111 109.833 31.8499 118.48 35C126.509 37.8993 133.715 42.7034 139.48 49C145.502 55.5144 150.01 63.2797 152.68 71.74C155.3 79.03 156.68 90.31 157.11 100.59C157.17 101.33 157.23 102.14 157.23 102.89C157.29 104.45 157.29 106.01 157.29 107.44V183.64H184.52V116.64C184.54 96.69 182.3 79.19 177.56 64.42Z" fill="#3333CC"/>
<path d="M176.12 121.03H8.41992V148.51H176.12V121.03Z" fill="#3333CC"/>
</g>
<defs>
<clipPath id="clip0_662_991">
<rect width="184.54" height="183.61" fill="white"/>
</clipPath>
</defs>
</svg>
