<svg id="Layer_1" data-name="Layer 1" xmlns="http://www.w3.org/2000/svg" viewBox="0 0 182.73 183.65"><defs><style>.cls-1{fill:#bc6886;}</style></defs><path class="cls-1" d="M175.53,53.2a74.56,74.56,0,0,0-20.9-28.59C145.21,16.86,133,10.66,118.36,6.45,103.91,2.23,86.24,0,66.4,0H0V183.65H66.65c19.84,0,37.26-2.23,52-7,14.38-4.71,26.6-11.16,36-19.4A79.51,79.51,0,0,0,175.77,128a99.1,99.1,0,0,0,6.95-37A96.79,96.79,0,0,0,175.53,53.2Zm-27.66,64.73A52.34,52.34,0,0,1,134,138.82,60,60,0,0,1,111.35,152c-7.81,2.79-20.21,4.21-31,4.52-1.55.06-3.1.06-4.52.06H32.3V27.34H75.83c1.42,0,3,0,4.52.06,10.79.38,23.19,1.93,31,4.53,8.93,3,16.68,7.19,22.64,12.65a52,52,0,0,1,13.88,20.15,74,74,0,0,1,4.53,26.35A74.72,74.72,0,0,1,147.87,117.93Z"/><path class="cls-1" d="M32.81,94.17H33c-.07.74-.19,5.37-.19,6.79Z"/><path class="cls-1" d="M161.55,94.17V101c0-1.42-.12-6-.18-6.79Z"/></svg>