<svg width="183" height="184" viewBox="0 0 183 184" fill="none" xmlns="http://www.w3.org/2000/svg">
<g clip-path="url(#clip0_662_996)">
<path d="M175.53 53.2C170.961 42.1298 163.792 32.3232 154.63 24.61C145.21 16.86 133 10.66 118.36 6.45C103.91 2.23 86.24 0 66.4 0H0V183.65H66.65C86.49 183.65 103.91 181.42 118.65 176.65C133.03 171.94 145.25 165.49 154.65 157.25C163.838 149.247 171.064 139.24 175.77 128C180.43 116.224 182.789 103.664 182.72 91C182.877 78.0458 180.432 65.1918 175.53 53.2ZM147.87 117.93C145.008 125.914 140.248 133.083 134 138.82C127.513 144.829 119.779 149.329 111.35 152C103.54 154.79 91.14 156.21 80.35 156.52C78.8 156.58 77.25 156.58 75.83 156.58H32.3V27.34H75.83C77.25 27.34 78.83 27.34 80.35 27.4C91.14 27.78 103.54 29.33 111.35 31.93C120.28 34.93 128.03 39.12 133.99 44.58C140.154 50.0971 144.912 57.0049 147.87 64.73C150.967 73.1654 152.502 82.0945 152.4 91.08C152.547 100.232 151.012 109.333 147.87 117.93Z" fill="#3333CC"/>
<path d="M32.8105 94.17H33.0005C32.9305 94.91 32.8105 99.54 32.8105 100.96V94.17Z" fill="#3333CC"/>
<path d="M161.549 94.17V101C161.549 99.58 161.429 95 161.369 94.21L161.549 94.17Z" fill="#3333CC"/>
</g>
<defs>
<clipPath id="clip0_662_996">
<rect width="182.73" height="183.65" fill="white"/>
</clipPath>
</defs>
</svg>
