<svg id="Layer_1" data-name="Layer 1" xmlns="http://www.w3.org/2000/svg" viewBox="0 0 156.16 183.73"><defs><style>.cls-1{fill:#007cc1;}</style></defs><path class="cls-1" d="M106.91,156.37c-1.47,0-6.94-.21-6.94-.21-10.11-.42-21.47-2.11-28.63-4.42-8.84-3-16.62-7.16-22.52-12.63a50,50,0,0,1-13.89-20.2A71.63,71.63,0,0,1,30.3,92.6c0-9.89,1.48-18.94,4.63-26.73a51.37,51.37,0,0,1,13.89-21,59.3,59.3,0,0,1,22.52-13c7.16-2.53,18.52-4,28.63-4.42.84,0,1.68-.21,2.31-.21H152V0H116C96.18,0,78.71,2.31,64.19,7S37.46,18.1,28,26.52A80.92,80.92,0,0,0,7,55.77a100.32,100.32,0,0,0-7,37,98,98,0,0,0,7.15,37.67A78.15,78.15,0,0,0,28,159.1c9.47,7.79,21.68,13.89,36.41,18.1,14.31,4.21,32,6.53,51.77,6.53h40V156.37Z"/><rect class="cls-1" x="20.34" y="78.07" width="119.33" height="27.33"/></svg>