<svg width="157" height="184" viewBox="0 0 157 184" fill="none" xmlns="http://www.w3.org/2000/svg">
<g clip-path="url(#clip0_662_1002)">
<path d="M106.91 156.37C105.44 156.37 99.9704 156.16 99.9704 156.16C89.8604 155.74 78.5003 154.05 71.3403 151.74C62.5003 148.74 54.7204 144.58 48.8204 139.11C42.5824 133.637 37.8082 126.694 34.9304 118.91C31.7508 110.508 30.1802 101.583 30.3004 92.6C30.3004 82.71 31.7804 73.66 34.9304 65.87C37.7429 57.8243 42.5168 50.6066 48.8204 44.87C55.2698 38.9199 62.9623 34.4793 71.3403 31.87C78.5003 29.34 89.8604 27.87 99.9704 27.45C100.81 27.45 101.65 27.24 102.28 27.24H152V0H116C96.1804 0 78.7104 2.31 64.1904 7C49.6704 11.69 37.4604 18.1 28.0004 26.52C18.8893 34.5663 11.7111 44.5645 7.00035 55.77C2.34778 67.5496 -0.0275536 80.1049 0.000350409 92.77C-0.119929 105.675 2.3099 118.477 7.15035 130.44C11.8091 141.467 18.9432 151.273 28.0004 159.1C37.4704 166.89 49.6804 172.99 64.4104 177.2C78.7204 181.41 96.4104 183.73 116.18 183.73H156.18V156.37H106.91Z" fill="#3333CC"/>
<path d="M139.67 78.0699H20.3398V105.4H139.67V78.0699Z" fill="#3333CC"/>
</g>
<defs>
<clipPath id="clip0_662_1002">
<rect width="156.16" height="183.73" fill="white"/>
</clipPath>
</defs>
</svg>
