<svg id="Layer_1" data-name="Layer 1" xmlns="http://www.w3.org/2000/svg" viewBox="0 0 183.5 183.58"><defs><style>.cls-1{fill:#fc7634;}</style></defs><path class="cls-1" d="M156.18,0V36.06c0,1.42,0,3-.06,4.52,0,.74-.06,1.55-.13,2.29-.49,10.22-2,21.44-4.39,28.68-3,8.93-7.19,16.67-12.64,22.62A52.07,52.07,0,0,1,118.82,108a73.89,73.89,0,0,1-26.33,4.53A74.56,74.56,0,0,1,65.67,108,52.43,52.43,0,0,1,44.79,94.17,59.76,59.76,0,0,1,31.66,71.55c-2.6-7.24-4-18.46-4.4-28.68-.06-.74-.13-1.55-.13-2.29-.06-1.55-.06-3.1-.06-4.52V0H0V26.89C0,46.71,2.23,64.12,6.94,78.8c4.71,14.38,11.15,26.58,19.39,36a79.57,79.57,0,0,0,29.3,21.12,94.46,94.46,0,0,0,20,5.58,107.57,107.57,0,0,0,17,1.36,103.13,103.13,0,0,0,15.3-1.11,90.3,90.3,0,0,0,22.43-6.07,74.59,74.59,0,0,0,28.56-20.88c7.74-9.42,13.94-21.62,18.15-36.24,4.21-14.44,6.44-32.1,6.44-51.92V0Z"/><path class="cls-1" d="M75.64,139v44.61h32.28V139Z"/></svg>