<svg width="846" height="58" viewBox="0 0 846 58" fill="none" xmlns="http://www.w3.org/2000/svg">
<path d="M21.3565 23.02C19.4765 23.02 17.9365 22.38 16.7365 21.1C15.5365 19.82 14.9365 18.04 14.9365 15.76C14.9365 13.12 15.5965 10.52 16.9165 7.96C18.2765 5.36 19.7565 3.08 21.3565 1.12H27.3565C26.2765 2.68 25.2365 4.38 24.2365 6.22C23.2765 8.06 22.6565 9.74 22.3765 11.26C23.8165 11.34 25.0165 11.92 25.9765 13C26.9365 14.04 27.4165 15.36 27.4165 16.96C27.4165 18.68 26.8365 20.12 25.6765 21.28C24.5565 22.44 23.1165 23.02 21.3565 23.02ZM7.31648 23.02C5.43648 23.02 3.89648 22.38 2.69648 21.1C1.49648 19.82 0.896484 18.04 0.896484 15.76C0.896484 13.12 1.55648 10.52 2.87648 7.96C4.23648 5.36 5.71648 3.08 7.31648 1.12H13.3165C12.2365 2.68 11.1965 4.38 10.1965 6.22C9.23648 8.06 8.61648 9.74 8.33648 11.26C9.77648 11.34 10.9765 11.92 11.9365 13C12.8965 14.04 13.3765 15.36 13.3765 16.96C13.3765 18.68 12.7965 20.12 11.6365 21.28C10.5165 22.44 9.07648 23.02 7.31648 23.02ZM30.0162 1.6H45.1362C50.5762 1.6 54.9162 2.5 58.1562 4.3C61.3562 6.14 63.8562 8.74 65.6562 12.1C67.4962 15.46 68.4162 19.36 68.4162 23.8C68.4162 31 66.4162 36.5 62.4162 40.3C58.4562 44.1 52.9562 46 45.9162 46H30.0162V1.6ZM46.4562 36.04C49.7762 36.04 52.3762 35 54.2562 32.92C56.1362 30.84 57.0762 27.82 57.0762 23.86C57.0762 19.94 56.1362 16.92 54.2562 14.8C52.4162 12.64 49.8362 11.56 46.5162 11.56H41.3562V36.04H46.4562ZM70.5602 1.6H80.5202V10.06H70.5602V1.6ZM70.5602 12.7H80.5202V46H70.5602V12.7ZM81.4779 12.7H91.7979L98.1579 33.46H98.2779L104.638 12.7H114.958L102.958 46H93.4179L81.4779 12.7ZM128.732 47.08C125.572 47.08 122.632 46.3 119.912 44.74C117.232 43.18 115.092 41.06 113.492 38.38C111.892 35.66 111.092 32.68 111.092 29.44C111.092 26.28 111.872 23.34 113.432 20.62C114.992 17.86 117.092 15.66 119.732 14.02C122.412 12.38 125.352 11.56 128.552 11.56C131.832 11.56 134.812 12.36 137.492 13.96C140.172 15.56 142.272 17.74 143.792 20.5C145.352 23.26 146.132 26.34 146.132 29.74C146.132 30.7 146.052 31.58 145.892 32.38H120.932C121.212 34.26 122.072 35.78 123.512 36.94C124.952 38.1 126.692 38.68 128.732 38.68C130.052 38.68 131.172 38.44 132.092 37.96C133.052 37.44 133.952 36.64 134.792 35.56H144.992C143.392 39.2 141.152 42.04 138.272 44.08C135.432 46.08 132.252 47.08 128.732 47.08ZM136.172 25.66C135.772 23.94 134.872 22.56 133.472 21.52C132.112 20.48 130.472 19.96 128.552 19.96C126.712 19.96 125.092 20.48 123.692 21.52C122.332 22.52 121.452 23.9 121.052 25.66H136.172ZM148.138 12.7H157.498V16.24H157.618C158.458 14.52 159.558 13.32 160.918 12.64C162.278 11.92 163.958 11.56 165.958 11.56V21.58C163.118 21.62 161.098 22.14 159.898 23.14C158.698 24.14 158.098 25.64 158.098 27.64V46H148.138V12.7ZM179.367 47.14C175.607 47.14 172.487 46.14 170.007 44.14C167.567 42.14 166.167 39.46 165.807 36.1H175.707C175.867 37.1 176.267 37.86 176.907 38.38C177.587 38.9 178.447 39.16 179.487 39.16C180.407 39.16 181.207 38.92 181.887 38.44C182.607 37.96 182.967 37.34 182.967 36.58C182.967 35.62 182.547 34.84 181.707 34.24C180.907 33.64 179.287 32.96 176.847 32.2C172.887 30.96 170.127 29.56 168.567 28C167.007 26.4 166.227 24.54 166.227 22.42C166.227 20.3 166.827 18.42 168.027 16.78C169.227 15.1 170.807 13.82 172.767 12.94C174.767 12.02 176.887 11.56 179.127 11.56C182.767 11.56 185.747 12.5 188.067 14.38C190.387 16.26 191.667 18.82 191.907 22.06H182.127C182.087 20.38 181.067 19.54 179.067 19.54C178.227 19.54 177.527 19.76 176.967 20.2C176.447 20.6 176.187 21.12 176.187 21.76C176.187 22.64 176.627 23.36 177.507 23.92C178.427 24.48 180.067 25.06 182.427 25.66C186.267 26.66 188.967 27.98 190.527 29.62C192.127 31.22 192.927 33.28 192.927 35.8C192.927 38.08 192.327 40.08 191.127 41.8C189.927 43.48 188.287 44.8 186.207 45.76C184.167 46.68 181.887 47.14 179.367 47.14ZM194.427 1.6H204.387V10.06H194.427V1.6ZM194.427 12.7H204.387V46H194.427V12.7ZM210.745 20.26H205.945V12.7H210.745V1.6H220.705V12.7H225.505V20.26H220.705V46H210.745V20.26ZM237.744 44.32L225.384 12.7H236.004L242.664 32.02H242.784L249.144 12.7H259.704L243.024 57.1H232.464L237.744 44.32ZM252.499 55.66C253.539 54.22 254.519 52.64 255.439 50.92C256.359 49.2 256.959 47.62 257.239 46.18C255.879 46.1 254.739 45.58 253.819 44.62C252.899 43.62 252.439 42.36 252.439 40.84C252.439 39.24 252.979 37.9 254.059 36.82C255.179 35.74 256.559 35.2 258.199 35.2C259.959 35.2 261.399 35.8 262.519 37C263.679 38.2 264.259 39.86 264.259 41.98C264.259 44.46 263.619 46.9 262.339 49.3C261.099 51.7 259.719 53.82 258.199 55.66H252.499ZM273.825 1.6H285.165V46H273.825V1.6ZM287.943 12.7H297.243V16.24H297.363C298.403 14.56 299.643 13.36 301.083 12.64C302.563 11.92 304.343 11.56 306.423 11.56C308.583 11.56 310.583 12 312.423 12.88C314.303 13.76 315.823 15.18 316.983 17.14C318.183 19.1 318.783 21.64 318.783 24.76V46H308.823V27.52C308.823 25.24 308.403 23.58 307.563 22.54C306.723 21.46 305.403 20.92 303.603 20.92C301.603 20.92 300.143 21.48 299.223 22.6C298.343 23.68 297.903 25.36 297.903 27.64V46H287.943V12.7ZM338.321 47.08C335.081 47.08 332.121 46.28 329.441 44.68C326.761 43.08 324.621 40.92 323.021 38.2C321.461 35.48 320.681 32.5 320.681 29.26C320.681 26.02 321.461 23.04 323.021 20.32C324.581 17.6 326.701 15.46 329.381 13.9C332.061 12.34 334.981 11.56 338.141 11.56C341.021 11.56 343.701 12.14 346.181 13.3C348.661 14.46 350.741 16.1 352.421 18.22C354.141 20.3 355.301 22.74 355.901 25.54H345.821C344.381 22.42 341.901 20.86 338.381 20.86C336.141 20.86 334.301 21.68 332.861 23.32C331.421 24.92 330.701 26.92 330.701 29.32C330.701 31.76 331.441 33.78 332.921 35.38C334.401 36.98 336.301 37.78 338.621 37.78C341.861 37.78 344.261 36.3 345.821 33.34H355.961C355.321 36.1 354.141 38.52 352.421 40.6C350.741 42.64 348.681 44.24 346.241 45.4C343.801 46.52 341.161 47.08 338.321 47.08ZM356.556 1.6H366.516V46H356.556V1.6ZM381.934 47.08C378.174 47.08 375.094 45.94 372.694 43.66C370.294 41.34 369.094 37.92 369.094 33.4V12.7H379.054V31.36C379.054 33.56 379.474 35.18 380.314 36.22C381.154 37.26 382.514 37.78 384.394 37.78C386.234 37.78 387.634 37.2 388.594 36.04C389.594 34.88 390.094 33.26 390.094 31.18V12.7H400.054V46H390.634V42.46H390.514C389.794 44.02 388.734 45.18 387.334 45.94C385.934 46.7 384.134 47.08 381.934 47.08ZM415.09 47.14C411.33 47.14 408.21 46.14 405.73 44.14C403.29 42.14 401.89 39.46 401.53 36.1H411.43C411.59 37.1 411.99 37.86 412.63 38.38C413.31 38.9 414.17 39.16 415.21 39.16C416.13 39.16 416.93 38.92 417.61 38.44C418.33 37.96 418.69 37.34 418.69 36.58C418.69 35.62 418.27 34.84 417.43 34.24C416.63 33.64 415.01 32.96 412.57 32.2C408.61 30.96 405.85 29.56 404.29 28C402.73 26.4 401.95 24.54 401.95 22.42C401.95 20.3 402.55 18.42 403.75 16.78C404.95 15.1 406.53 13.82 408.49 12.94C410.49 12.02 412.61 11.56 414.85 11.56C418.49 11.56 421.47 12.5 423.79 14.38C426.11 16.26 427.39 18.82 427.63 22.06H417.85C417.81 20.38 416.79 19.54 414.79 19.54C413.95 19.54 413.25 19.76 412.69 20.2C412.17 20.6 411.91 21.12 411.91 21.76C411.91 22.64 412.35 23.36 413.23 23.92C414.15 24.48 415.79 25.06 418.15 25.66C421.99 26.66 424.69 27.98 426.25 29.62C427.85 31.22 428.65 33.28 428.65 35.8C428.65 38.08 428.05 40.08 426.85 41.8C425.65 43.48 424.01 44.8 421.93 45.76C419.89 46.68 417.61 47.14 415.09 47.14ZM430.15 1.6H440.11V10.06H430.15V1.6ZM430.15 12.7H440.11V46H430.15V12.7ZM460.028 47.02C456.668 47.02 453.628 46.26 450.908 44.74C448.188 43.18 446.028 41.06 444.428 38.38C442.868 35.7 442.088 32.68 442.088 29.32C442.088 25.96 442.888 22.94 444.488 20.26C446.088 17.54 448.248 15.42 450.968 13.9C453.728 12.38 456.748 11.62 460.028 11.62C463.348 11.62 466.368 12.38 469.088 13.9C471.848 15.42 474.008 17.54 475.568 20.26C477.168 22.94 477.968 25.92 477.968 29.2C477.968 32.6 477.168 35.66 475.568 38.38C474.008 41.1 471.848 43.22 469.088 44.74C466.368 46.26 463.348 47.02 460.028 47.02ZM460.028 37.72C461.548 37.72 462.908 37.34 464.108 36.58C465.348 35.78 466.308 34.74 466.988 33.46C467.668 32.18 468.008 30.8 468.008 29.32C468.008 27.84 467.648 26.46 466.928 25.18C466.248 23.9 465.288 22.88 464.048 22.12C462.848 21.32 461.488 20.92 459.968 20.92C458.528 20.92 457.208 21.3 456.008 22.06C454.808 22.82 453.848 23.86 453.128 25.18C452.408 26.46 452.048 27.84 452.048 29.32C452.048 30.84 452.388 32.24 453.068 33.52C453.788 34.8 454.748 35.82 455.948 36.58C457.188 37.34 458.548 37.72 460.028 37.72ZM479.955 12.7H489.255V16.24H489.375C490.415 14.56 491.655 13.36 493.095 12.64C494.575 11.92 496.355 11.56 498.435 11.56C500.595 11.56 502.595 12 504.435 12.88C506.315 13.76 507.835 15.18 508.995 17.14C510.195 19.1 510.795 21.64 510.795 24.76V46H500.835V27.52C500.835 25.24 500.415 23.58 499.575 22.54C498.735 21.46 497.415 20.92 495.615 20.92C493.615 20.92 492.155 21.48 491.235 22.6C490.355 23.68 489.915 25.36 489.915 27.64V46H479.955V12.7ZM513.593 55.66C514.633 54.22 515.613 52.64 516.533 50.92C517.453 49.2 518.053 47.62 518.333 46.18C516.973 46.1 515.833 45.58 514.913 44.62C513.993 43.62 513.533 42.36 513.533 40.84C513.533 39.24 514.073 37.9 515.153 36.82C516.273 35.74 517.653 35.2 519.293 35.2C521.053 35.2 522.493 35.8 523.613 37C524.773 38.2 525.353 39.86 525.353 41.98C525.353 44.46 524.713 46.9 523.433 49.3C522.193 51.7 520.813 53.82 519.293 55.66H513.593ZM550.819 47.14C547.619 47.14 544.739 46.36 542.179 44.8C539.659 43.24 537.679 41.1 536.239 38.38C534.839 35.66 534.139 32.64 534.139 29.32C534.139 26.08 534.859 23.1 536.299 20.38C537.779 17.66 539.779 15.52 542.299 13.96C544.859 12.36 547.699 11.56 550.819 11.56C552.899 11.56 554.819 11.98 556.579 12.82C558.339 13.62 559.679 14.76 560.599 16.24H560.719V12.7H570.679V46H560.719V42.4H560.599C559.879 43.84 558.619 45 556.819 45.88C555.019 46.72 553.019 47.14 550.819 47.14ZM552.379 37.84C553.899 37.84 555.299 37.46 556.579 36.7C557.859 35.94 558.859 34.92 559.579 33.64C560.339 32.32 560.719 30.88 560.719 29.32C560.719 27.8 560.339 26.4 559.579 25.12C558.819 23.8 557.779 22.76 556.459 22C555.179 21.24 553.779 20.86 552.259 20.86C550.779 20.86 549.399 21.24 548.119 22C546.879 22.76 545.899 23.8 545.179 25.12C544.459 26.44 544.099 27.88 544.099 29.44C544.099 30.96 544.459 32.36 545.179 33.64C545.939 34.92 546.939 35.94 548.179 36.7C549.459 37.46 550.859 37.84 552.379 37.84ZM573.295 12.7H582.595V16.24H582.715C583.755 14.56 584.995 13.36 586.435 12.64C587.915 11.92 589.695 11.56 591.775 11.56C593.935 11.56 595.935 12 597.775 12.88C599.655 13.76 601.175 15.18 602.335 17.14C603.535 19.1 604.135 21.64 604.135 24.76V46H594.175V27.52C594.175 25.24 593.755 23.58 592.915 22.54C592.075 21.46 590.755 20.92 588.955 20.92C586.955 20.92 585.495 21.48 584.575 22.6C583.695 23.68 583.255 25.36 583.255 27.64V46H573.295V12.7ZM622.713 47.08C619.433 47.08 616.513 46.3 613.953 44.74C611.433 43.18 609.473 41.06 608.073 38.38C606.713 35.66 606.033 32.62 606.033 29.26C606.033 25.98 606.733 23 608.133 20.32C609.533 17.6 611.493 15.46 614.013 13.9C616.533 12.34 619.373 11.56 622.533 11.56C624.493 11.56 626.253 11.88 627.813 12.52C629.413 13.12 630.913 14.12 632.313 15.52V1.6H642.273V46H632.793V42.4H632.673C630.793 45.52 627.473 47.08 622.713 47.08ZM624.333 37.78C626.773 37.78 628.793 36.96 630.393 35.32C632.033 33.68 632.853 31.64 632.853 29.2C632.853 27.68 632.493 26.28 631.773 25C631.053 23.72 630.033 22.72 628.713 22C627.433 21.24 625.993 20.86 624.393 20.86C622.033 20.86 620.033 21.66 618.393 23.26C616.793 24.82 615.993 26.8 615.993 29.2C615.993 31.72 616.773 33.78 618.333 35.38C619.933 36.98 621.933 37.78 624.333 37.78ZM654.626 1.6H679.286V11.56H665.486V18.46H678.866V28.42H665.486V36.04H679.286V46H654.626V1.6ZM706.669 42.58H706.549C704.349 45.58 700.989 47.08 696.469 47.08C693.429 47.08 690.669 46.32 688.189 44.8C685.749 43.28 683.829 41.22 682.429 38.62C681.069 36.02 680.389 33.14 680.389 29.98C680.389 26.5 681.089 23.36 682.489 20.56C683.929 17.76 685.909 15.56 688.429 13.96C690.949 12.36 693.829 11.56 697.069 11.56C699.229 11.56 701.169 11.98 702.889 12.82C704.649 13.62 706.009 14.8 706.969 16.36H707.089V12.7H716.629V57.1H706.669V42.58ZM698.689 37.78C700.209 37.78 701.609 37.4 702.889 36.64C704.169 35.88 705.169 34.86 705.889 33.58C706.649 32.3 707.029 30.9 707.029 29.38C707.029 27.82 706.649 26.4 705.889 25.12C705.169 23.8 704.149 22.76 702.829 22C701.549 21.24 700.129 20.86 698.569 20.86C696.249 20.86 694.289 21.68 692.689 23.32C691.129 24.96 690.349 27.04 690.349 29.56C690.349 31.04 690.709 32.42 691.429 33.7C692.189 34.94 693.209 35.94 694.489 36.7C695.769 37.42 697.169 37.78 698.689 37.78ZM732.032 47.08C728.272 47.08 725.192 45.94 722.792 43.66C720.392 41.34 719.192 37.92 719.192 33.4V12.7H729.152V31.36C729.152 33.56 729.572 35.18 730.412 36.22C731.252 37.26 732.612 37.78 734.492 37.78C736.332 37.78 737.732 37.2 738.692 36.04C739.692 34.88 740.192 33.26 740.192 31.18V12.7H750.152V46H740.732V42.46H740.612C739.892 44.02 738.832 45.18 737.432 45.94C736.032 46.7 734.232 47.08 732.032 47.08ZM752.767 1.6H762.727V10.06H752.767V1.6ZM752.767 12.7H762.727V46H752.767V12.7ZM769.085 20.26H764.285V12.7H769.085V1.6H779.045V12.7H783.845V20.26H779.045V46H769.085V20.26ZM796.084 44.32L783.724 12.7H794.344L801.004 32.02H801.124L807.484 12.7H818.044L801.364 57.1H790.804L796.084 44.32ZM832.672 22.84C833.752 21.28 834.772 19.58 835.732 17.74C836.732 15.9 837.372 14.22 837.652 12.7C836.212 12.62 835.012 12.06 834.052 11.02C833.092 9.94 832.612 8.6 832.612 7C832.612 5.28 833.172 3.84 834.292 2.68C835.452 1.52 836.912 0.939997 838.672 0.939997C840.552 0.939997 842.092 1.58 843.292 2.86C844.492 4.14 845.092 5.92 845.092 8.2C845.092 10.84 844.412 13.46 843.052 16.06C841.732 18.62 840.272 20.88 838.672 22.84H832.672ZM818.632 22.84C819.712 21.28 820.732 19.58 821.692 17.74C822.692 15.9 823.332 14.22 823.612 12.7C822.172 12.62 820.972 12.06 820.012 11.02C819.052 9.94 818.572 8.6 818.572 7C818.572 5.28 819.132 3.84 820.252 2.68C821.412 1.52 822.872 0.939997 824.632 0.939997C826.512 0.939997 828.052 1.58 829.252 2.86C830.452 4.14 831.052 5.92 831.052 8.2C831.052 10.84 830.372 13.46 829.012 16.06C827.692 18.62 826.232 20.88 824.632 22.84H818.632Z" fill="white"/>
</svg>
