<svg width="665" height="137" viewBox="0 0 665 137" fill="none" xmlns="http://www.w3.org/2000/svg">
<path d="M18.51 92.4C18.99 93.56 19.48 94.38 19.98 94.86C20.48 95.34 21.1 95.58 21.84 95.58V96H13.23V95.58C14.21 95.58 14.92 95.47 15.36 95.25C15.8 95.01 16.02 94.64 16.02 94.14C16.02 93.76 15.9 93.27 15.66 92.67L14.16 88.95H5.67L4.17 92.67C3.93 93.27 3.81 93.76 3.81 94.14C3.81 94.64 4.02 95.01 4.44 95.25C4.88 95.47 5.58 95.58 6.54 95.58V96H0.18V95.58C0.88 95.58 1.47 95.34 1.95 94.86C2.43 94.38 2.91 93.56 3.39 92.4L10.71 74.31H11.13L18.51 92.4ZM6 88.11H13.83L9.9 78.33L6 88.11ZM33.5381 84.81C35.4381 85.01 36.9581 85.61 38.0981 86.61C39.2581 87.59 39.8381 88.79 39.8381 90.21C39.8381 92.01 39.1881 93.43 37.8881 94.47C36.5881 95.49 34.8181 96 32.5781 96H22.4681V95.58C23.5081 95.48 24.2181 95.27 24.5981 94.95C24.9781 94.63 25.1681 94.1 25.1681 93.36V77.4C25.1681 76.66 24.9781 76.13 24.5981 75.81C24.2181 75.49 23.5081 75.28 22.4681 75.18V74.76H31.1381C33.3981 74.76 35.1781 75.22 36.4781 76.14C37.7781 77.06 38.4281 78.35 38.4281 80.01C38.4281 81.19 37.9781 82.23 37.0781 83.13C36.1781 84.01 34.9981 84.57 33.5381 84.81ZM27.8981 84.54H31.0181C32.3581 84.54 33.4381 84.12 34.2581 83.28C35.0981 82.42 35.5181 81.33 35.5181 80.01C35.5181 78.67 35.0581 77.6 34.1381 76.8C33.2381 76 32.0381 75.6 30.5381 75.6H27.8981V84.54ZM31.8581 95.16C33.3781 95.16 34.5981 94.71 35.5181 93.81C36.4581 92.91 36.9281 91.71 36.9281 90.21C36.9281 89.27 36.6881 88.44 36.2081 87.72C35.7481 86.98 35.0881 86.41 34.2281 86.01C33.3681 85.59 32.3881 85.38 31.2881 85.38H27.8981V93.21C27.8981 93.83 28.0881 94.31 28.4681 94.65C28.8681 94.99 29.5381 95.16 30.4781 95.16H31.8581ZM59.3707 80.4C58.8307 78.72 57.9907 77.43 56.8507 76.53C55.7107 75.61 54.3607 75.15 52.8007 75.15C51.4607 75.15 50.2607 75.55 49.2007 76.35C48.1607 77.15 47.3407 78.27 46.7407 79.71C46.1607 81.13 45.8707 82.77 45.8707 84.63C45.8707 86.53 46.2107 88.25 46.8907 89.79C47.5907 91.33 48.5507 92.54 49.7707 93.42C50.9907 94.3 52.3707 94.74 53.9107 94.74C55.3907 94.74 56.6807 94.27 57.7807 93.33C58.8807 92.37 59.6507 91.07 60.0907 89.43L60.5407 89.55C60.3607 90.95 59.9007 92.18 59.1607 93.24C58.4207 94.28 57.4807 95.08 56.3407 95.64C55.2207 96.2 54.0007 96.48 52.6807 96.48C50.7807 96.48 49.0907 96.03 47.6107 95.13C46.1307 94.21 44.9807 92.95 44.1607 91.35C43.3407 89.73 42.9307 87.91 42.9307 85.89C42.9307 83.67 43.3407 81.68 44.1607 79.92C45.0007 78.16 46.1607 76.79 47.6407 75.81C49.1407 74.81 50.8507 74.31 52.7707 74.31C53.4507 74.31 54.0507 74.38 54.5707 74.52C55.1107 74.64 55.7107 74.81 56.3707 75.03C56.9907 75.25 57.4007 75.36 57.6007 75.36C57.8407 75.36 58.0307 75.28 58.1707 75.12C58.3107 74.96 58.4207 74.69 58.5007 74.31H58.9207L59.7907 80.4H59.3707ZM70.7754 74.76C72.9554 74.76 74.8654 75.17 76.5054 75.99C78.1654 76.81 79.4454 77.98 80.3454 79.5C81.2454 81 81.6954 82.76 81.6954 84.78C81.6954 87.04 81.2654 89.02 80.4054 90.72C79.5454 92.4 78.3254 93.7 76.7454 94.62C75.1654 95.54 73.3254 96 71.2254 96H62.1654V95.58C63.2054 95.48 63.9154 95.27 64.2954 94.95C64.6754 94.63 64.8654 94.1 64.8654 93.36V77.4C64.8654 76.66 64.6754 76.13 64.2954 75.81C63.9154 75.49 63.2054 75.28 62.1654 75.18V74.76H70.7754ZM71.2254 95.16C72.6654 95.16 73.9554 94.75 75.0954 93.93C76.2554 93.11 77.1554 91.97 77.7954 90.51C78.4354 89.03 78.7554 87.35 78.7554 85.47C78.7554 83.45 78.4054 81.7 77.7054 80.22C77.0054 78.72 76.0154 77.58 74.7354 76.8C73.4554 76 71.9654 75.6 70.2654 75.6H67.5954V93.15C67.5954 93.85 67.7454 94.36 68.0454 94.68C68.3654 95 68.8754 95.16 69.5754 95.16H71.2254ZM99.7423 96H83.9623V95.58C85.0023 95.48 85.7123 95.27 86.0923 94.95C86.4723 94.63 86.6623 94.1 86.6623 93.36V77.4C86.6623 76.66 86.4723 76.13 86.0923 75.81C85.7123 75.49 85.0023 75.28 83.9623 75.18V74.76H97.3123C97.7723 74.76 98.1123 74.73 98.3323 74.67C98.5723 74.59 98.7323 74.47 98.8123 74.31H99.2323L100.192 80.28H99.7723C99.3723 78.62 98.7923 77.43 98.0323 76.71C97.2723 75.97 96.1923 75.6 94.7923 75.6H89.3923V84.69H93.2923C94.1723 84.69 94.7823 84.45 95.1223 83.97C95.4823 83.49 95.6223 82.71 95.5423 81.63H95.9623L96.9223 88.59H96.5023C96.2623 87.51 95.9023 86.73 95.4223 86.25C94.9623 85.77 94.3423 85.53 93.5623 85.53H89.3923V93.18C89.3923 93.9 89.5223 94.42 89.7823 94.74C90.0423 95.04 90.4823 95.19 91.1023 95.19H95.3323C96.6123 95.19 97.6323 94.81 98.3923 94.05C99.1723 93.29 99.7523 92.09 100.132 90.45H100.552L99.7423 96ZM118.287 80.28C117.887 78.62 117.307 77.43 116.547 76.71C115.787 75.97 114.707 75.6 113.307 75.6H107.937V84.69H111.837C112.717 84.69 113.327 84.45 113.667 83.97C114.027 83.49 114.167 82.71 114.087 81.63H114.507L115.467 88.59H115.047C114.807 87.51 114.447 86.73 113.967 86.25C113.507 85.77 112.887 85.53 112.107 85.53H107.937V93.36C107.937 93.88 108.027 94.29 108.207 94.59C108.407 94.87 108.757 95.09 109.257 95.25C109.777 95.39 110.537 95.5 111.537 95.58V96H102.507V95.58C103.547 95.48 104.257 95.27 104.637 94.95C105.017 94.63 105.207 94.1 105.207 93.36V77.4C105.207 76.66 105.017 76.13 104.637 75.81C104.257 75.49 103.547 75.28 102.507 75.18V74.76H115.827C116.307 74.76 116.657 74.73 116.877 74.67C117.117 74.59 117.277 74.47 117.357 74.31H117.777L118.707 80.28H118.287ZM130.137 96.45C128.337 96.45 126.707 96 125.247 95.1C123.807 94.18 122.667 92.92 121.827 91.32C121.007 89.7 120.597 87.89 120.597 85.89C120.597 83.65 121.017 81.65 121.857 79.89C122.717 78.13 123.897 76.76 125.397 75.78C126.917 74.8 128.637 74.31 130.557 74.31C131.217 74.31 131.807 74.38 132.327 74.52C132.867 74.64 133.447 74.81 134.067 75.03C134.687 75.25 135.107 75.36 135.327 75.36C135.567 75.36 135.757 75.28 135.897 75.12C136.037 74.96 136.147 74.69 136.227 74.31H136.647L137.487 80.4H137.097C135.817 76.9 133.567 75.15 130.347 75.15C129.047 75.15 127.877 75.56 126.837 76.38C125.797 77.18 124.977 78.31 124.377 79.77C123.797 81.21 123.507 82.86 123.507 84.72C123.507 86.68 123.837 88.49 124.497 90.15C125.157 91.79 126.057 93.09 127.197 94.05C128.357 95.01 129.647 95.49 131.067 95.49C131.847 95.49 132.597 95.37 133.317 95.13C134.037 94.87 134.647 94.47 135.147 93.93V88.41C135.147 86.73 134.227 85.84 132.387 85.74V85.29H140.457V85.74C138.717 85.82 137.847 86.71 137.847 88.41V92.7C137.107 93.78 136.057 94.68 134.697 95.4C133.337 96.1 131.817 96.45 130.137 96.45ZM162.362 75.18C161.322 75.28 160.602 75.49 160.202 75.81C159.822 76.13 159.632 76.66 159.632 77.4V93.36C159.632 94.1 159.822 94.63 160.202 94.95C160.602 95.27 161.322 95.48 162.362 95.58V96H154.202V95.58C155.242 95.48 155.952 95.27 156.332 94.95C156.732 94.63 156.932 94.1 156.932 93.36V85.5H146.492V93.36C146.492 94.1 146.682 94.63 147.062 94.95C147.442 95.27 148.152 95.48 149.192 95.58V96H141.062V95.58C142.102 95.48 142.812 95.27 143.192 94.95C143.572 94.63 143.762 94.1 143.762 93.36V77.4C143.762 76.66 143.572 76.13 143.192 75.81C142.812 75.49 142.102 75.28 141.062 75.18V74.76H149.192V75.18C148.152 75.28 147.442 75.49 147.062 75.81C146.682 76.13 146.492 76.66 146.492 77.4V84.66H156.932V77.4C156.932 76.66 156.732 76.13 156.332 75.81C155.952 75.49 155.242 75.28 154.202 75.18V74.76H162.362V75.18ZM170.047 93.36C170.047 94.1 170.237 94.63 170.617 94.95C170.997 95.27 171.707 95.48 172.747 95.58V96H164.617V95.58C165.657 95.48 166.367 95.27 166.747 94.95C167.127 94.63 167.317 94.1 167.317 93.36V77.4C167.317 76.66 167.127 76.13 166.747 75.81C166.367 75.49 165.657 75.28 164.617 75.18V74.76H172.747V75.18C171.707 75.28 170.997 75.49 170.617 75.81C170.237 76.13 170.047 76.66 170.047 77.4V93.36ZM184.541 96.45C182.741 96.45 181.111 96 179.651 95.1C178.211 94.18 177.071 92.92 176.231 91.32C175.411 89.7 175.001 87.89 175.001 85.89C175.001 83.65 175.421 81.65 176.261 79.89C177.121 78.13 178.301 76.76 179.801 75.78C181.321 74.8 183.041 74.31 184.961 74.31C185.621 74.31 186.211 74.38 186.731 74.52C187.271 74.64 187.851 74.81 188.471 75.03C189.091 75.25 189.511 75.36 189.731 75.36C189.971 75.36 190.161 75.28 190.301 75.12C190.441 74.96 190.551 74.69 190.631 74.31H191.051L191.891 80.4H191.501C190.221 76.9 187.971 75.15 184.751 75.15C183.451 75.15 182.281 75.56 181.241 76.38C180.201 77.18 179.381 78.31 178.781 79.77C178.201 81.21 177.911 82.86 177.911 84.72C177.911 86.68 178.241 88.49 178.901 90.15C179.561 91.79 180.461 93.09 181.601 94.05C182.761 95.01 184.051 95.49 185.471 95.49C186.251 95.49 187.001 95.37 187.721 95.13C188.441 94.87 189.051 94.47 189.551 93.93V88.41C189.551 86.73 188.631 85.84 186.791 85.74V85.29H194.861V85.74C193.121 85.82 192.251 86.71 192.251 88.41V92.7C191.511 93.78 190.461 94.68 189.101 95.4C187.741 96.1 186.221 96.45 184.541 96.45ZM212.416 93.45C212.776 94.05 213.246 94.54 213.826 94.92C214.426 95.3 215.006 95.51 215.566 95.55V96H210.346C210.326 95.72 210.236 95.42 210.076 95.1C209.916 94.78 209.676 94.36 209.356 93.84L203.596 84.51L200.896 87.33V93.36C200.896 94.1 201.086 94.63 201.466 94.95C201.846 95.27 202.556 95.48 203.596 95.58V96H195.466V95.58C196.506 95.48 197.216 95.27 197.596 94.95C197.976 94.63 198.166 94.1 198.166 93.36V77.4C198.166 76.66 197.976 76.13 197.596 75.81C197.216 75.49 196.506 75.28 195.466 75.18V74.76H203.596V75.18C202.556 75.28 201.846 75.49 201.466 75.81C201.086 76.13 200.896 76.66 200.896 77.4V86.07L209.506 77.07C209.906 76.63 210.106 76.27 210.106 75.99C210.106 75.53 209.426 75.27 208.066 75.21V74.76H214.396V75.21C212.936 75.35 211.646 76.02 210.526 77.22L205.546 82.44L212.416 93.45ZM233.145 90.45L232.335 96H216.765V95.58C217.805 95.48 218.515 95.27 218.895 94.95C219.275 94.63 219.465 94.1 219.465 93.36V77.4C219.465 76.66 219.275 76.13 218.895 75.81C218.515 75.49 217.805 75.28 216.765 75.18V74.76H224.895V75.18C223.855 75.28 223.145 75.49 222.765 75.81C222.385 76.13 222.195 76.66 222.195 77.4V93.18C222.195 93.9 222.325 94.42 222.585 94.74C222.845 95.04 223.285 95.19 223.905 95.19H227.925C229.205 95.19 230.225 94.81 230.985 94.05C231.765 93.29 232.345 92.09 232.725 90.45H233.145ZM260.37 75.18C259.33 75.28 258.61 75.49 258.21 75.81C257.83 76.13 257.64 76.66 257.64 77.4V93.36C257.64 94.1 257.84 94.64 258.24 94.98C258.64 95.3 259.35 95.5 260.37 95.58V96H252.21V95.58C253.23 95.5 253.94 95.3 254.34 94.98C254.74 94.64 254.94 94.1 254.94 93.36V78.03L246.78 96H246.36L238.41 78.09V93.36C238.41 94.1 238.6 94.63 238.98 94.95C239.36 95.27 240.07 95.48 241.11 95.58V96H234.87V95.58C235.91 95.48 236.62 95.27 237 94.95C237.38 94.63 237.57 94.1 237.57 93.36V77.37C237.57 76.61 237.37 76.07 236.97 75.75C236.59 75.43 235.9 75.25 234.9 75.21V74.76H239.91L247.59 92.16L255.51 74.76H260.37V75.18ZM282.269 75.15C281.229 75.25 280.509 75.46 280.109 75.78C279.729 76.1 279.539 76.63 279.539 77.37V96H278.879L265.979 77.85V93.36C265.979 94.1 266.169 94.63 266.549 94.95C266.929 95.27 267.639 95.48 268.679 95.58V96H262.439V95.58C263.479 95.48 264.189 95.27 264.569 94.95C264.949 94.63 265.139 94.1 265.139 93.36V77.37C265.139 76.61 264.949 76.07 264.569 75.75C264.189 75.43 263.489 75.24 262.469 75.18V74.76H267.149L278.699 91.29V77.37C278.699 76.63 278.509 76.1 278.129 75.78C277.749 75.46 277.049 75.25 276.029 75.15V74.73H282.269V75.15ZM295.118 96.45C293.118 96.45 291.358 95.99 289.838 95.07C288.338 94.15 287.178 92.88 286.358 91.26C285.538 89.64 285.128 87.83 285.128 85.83C285.128 83.59 285.558 81.6 286.418 79.86C287.298 78.1 288.498 76.74 290.018 75.78C291.558 74.8 293.308 74.31 295.268 74.31C297.248 74.31 298.988 74.77 300.488 75.69C302.008 76.61 303.178 77.88 303.998 79.5C304.818 81.12 305.228 82.93 305.228 84.93C305.228 87.15 304.788 89.14 303.908 90.9C303.048 92.64 301.848 94 300.308 94.98C298.788 95.96 297.058 96.45 295.118 96.45ZM295.688 95.61C297.008 95.59 298.158 95.17 299.138 94.35C300.138 93.53 300.908 92.41 301.448 90.99C302.008 89.55 302.288 87.9 302.288 86.04C302.288 83.98 301.968 82.12 301.328 80.46C300.688 78.78 299.788 77.47 298.628 76.53C297.488 75.59 296.178 75.13 294.698 75.15C293.378 75.17 292.218 75.58 291.218 76.38C290.218 77.18 289.438 78.29 288.878 79.71C288.338 81.13 288.068 82.76 288.068 84.6C288.068 86.68 288.388 88.56 289.028 90.24C289.668 91.92 290.568 93.24 291.728 94.2C292.888 95.16 294.208 95.63 295.688 95.61ZM315.897 74.76C317.517 74.76 318.917 75 320.097 75.48C321.297 75.96 322.217 76.65 322.857 77.55C323.517 78.45 323.847 79.5 323.847 80.7C323.847 81.92 323.527 82.98 322.887 83.88C322.247 84.76 321.327 85.45 320.127 85.95C318.927 86.43 317.517 86.67 315.897 86.67H312.927V93.09C312.927 93.75 313.017 94.25 313.197 94.59C313.377 94.93 313.657 95.17 314.037 95.31C314.417 95.45 314.947 95.54 315.627 95.58V96H307.497V95.58C308.517 95.52 309.217 95.33 309.597 95.01C309.997 94.67 310.197 94.03 310.197 93.09V77.64C310.197 76.72 309.997 76.1 309.597 75.78C309.217 75.44 308.517 75.24 307.497 75.18V74.76H315.897ZM315.417 85.83C317.097 85.83 318.427 85.35 319.407 84.39C320.407 83.43 320.907 82.2 320.907 80.7C320.907 79.2 320.417 77.98 319.437 77.04C318.457 76.08 317.117 75.6 315.417 75.6H312.927V85.83H315.417ZM336.693 96.45C337.153 97.95 337.913 99.02 338.973 99.66C340.053 100.3 341.293 100.62 342.693 100.62C343.213 100.62 343.713 100.59 344.193 100.53L344.283 100.95C343.383 101.29 342.393 101.46 341.313 101.46C339.593 101.46 338.033 100.99 336.633 100.05C335.253 99.13 334.343 97.82 333.903 96.12C331.643 95.56 329.853 94.35 328.533 92.49C327.233 90.63 326.583 88.41 326.583 85.83C326.583 83.59 327.013 81.6 327.873 79.86C328.753 78.1 329.953 76.74 331.473 75.78C333.013 74.8 334.763 74.31 336.723 74.31C338.703 74.31 340.443 74.77 341.943 75.69C343.463 76.61 344.633 77.88 345.453 79.5C346.273 81.12 346.683 82.93 346.683 84.93C346.683 87.13 346.253 89.11 345.393 90.87C344.553 92.61 343.373 93.97 341.853 94.95C340.333 95.93 338.613 96.43 336.693 96.45ZM329.523 84.6C329.523 86.68 329.843 88.56 330.483 90.24C331.123 91.92 332.023 93.24 333.183 94.2C334.343 95.16 335.663 95.63 337.143 95.61C338.463 95.59 339.613 95.17 340.593 94.35C341.593 93.53 342.363 92.41 342.903 90.99C343.463 89.55 343.743 87.9 343.743 86.04C343.743 83.98 343.423 82.12 342.783 80.46C342.143 78.78 341.243 77.47 340.083 76.53C338.943 75.59 337.633 75.13 336.153 75.15C334.833 75.17 333.673 75.58 332.673 76.38C331.673 77.18 330.893 78.29 330.333 79.71C329.793 81.13 329.523 82.76 329.523 84.6ZM365.333 93.87C365.653 94.33 366.083 94.72 366.623 95.04C367.163 95.34 367.653 95.51 368.093 95.55V96H363.173C363.073 95.56 362.813 95.03 362.393 94.41L356.933 86.67H354.383V93.09C354.383 93.75 354.473 94.25 354.653 94.59C354.833 94.93 355.113 95.17 355.493 95.31C355.873 95.45 356.403 95.54 357.083 95.58V96H348.953V95.58C349.973 95.52 350.673 95.33 351.053 95.01C351.453 94.67 351.653 94.03 351.653 93.09V77.64C351.653 76.72 351.453 76.1 351.053 75.78C350.673 75.44 349.973 75.24 348.953 75.18V74.76H357.353C358.973 74.76 360.373 75 361.553 75.48C362.753 75.96 363.673 76.65 364.313 77.55C364.973 78.45 365.303 79.5 365.303 80.7C365.303 82.16 364.833 83.4 363.893 84.42C362.973 85.42 361.673 86.09 359.993 86.43L365.333 93.87ZM354.383 85.83H356.873C358.553 85.83 359.883 85.35 360.863 84.39C361.863 83.43 362.363 82.2 362.363 80.7C362.363 79.2 361.873 77.98 360.893 77.04C359.913 76.08 358.573 75.6 356.873 75.6H354.383V85.83ZM377.082 96.45C376.142 96.45 375.342 96.35 374.682 96.15C374.042 95.95 373.432 95.7 372.852 95.4C372.372 95.18 372.062 95.07 371.922 95.07C371.762 95.07 371.622 95.17 371.502 95.37C371.382 95.57 371.272 95.93 371.172 96.45H370.752L369.672 89.61H370.092C370.812 91.57 371.762 93.06 372.942 94.08C374.122 95.08 375.502 95.58 377.082 95.58C378.342 95.58 379.372 95.21 380.172 94.47C380.972 93.71 381.372 92.74 381.372 91.56C381.372 90.56 381.132 89.73 380.652 89.07C380.172 88.41 379.572 87.89 378.852 87.51C378.152 87.11 377.202 86.68 376.002 86.22C374.722 85.72 373.682 85.25 372.882 84.81C372.102 84.37 371.442 83.76 370.902 82.98C370.362 82.18 370.092 81.16 370.092 79.92C370.092 78.22 370.652 76.86 371.772 75.84C372.912 74.82 374.452 74.31 376.392 74.31C377.152 74.31 377.812 74.39 378.372 74.55C378.952 74.69 379.522 74.88 380.082 75.12C380.522 75.32 380.832 75.42 381.012 75.42C381.192 75.42 381.342 75.34 381.462 75.18C381.582 75.02 381.682 74.73 381.762 74.31H382.182L383.142 80.43H382.722C382.202 78.75 381.372 77.45 380.232 76.53C379.092 75.61 377.812 75.15 376.392 75.15C375.172 75.15 374.202 75.48 373.482 76.14C372.782 76.8 372.432 77.7 372.432 78.84C372.432 79.72 372.662 80.46 373.122 81.06C373.582 81.64 374.162 82.12 374.862 82.5C375.562 82.86 376.492 83.27 377.652 83.73C379.012 84.27 380.112 84.78 380.952 85.26C381.792 85.72 382.502 86.37 383.082 87.21C383.662 88.03 383.952 89.08 383.952 90.36C383.952 91.56 383.662 92.62 383.082 93.54C382.502 94.46 381.692 95.18 380.652 95.7C379.612 96.2 378.422 96.45 377.082 96.45ZM403.586 80.28H403.166C402.786 78.62 402.206 77.43 401.426 76.71C400.666 75.97 399.586 75.6 398.186 75.6H395.876V93.18C395.876 94.02 396.066 94.61 396.446 94.95C396.826 95.29 397.536 95.5 398.576 95.58V96H390.476V95.58C391.516 95.5 392.226 95.29 392.606 94.95C392.986 94.61 393.176 94.02 393.176 93.18V75.6H390.866C389.466 75.6 388.386 75.97 387.626 76.71C386.866 77.43 386.286 78.62 385.886 80.28H385.466L386.426 74.31H386.846C386.906 74.47 387.046 74.59 387.266 74.67C387.506 74.73 387.866 74.76 388.346 74.76H400.736C401.196 74.76 401.536 74.73 401.756 74.67C401.996 74.59 402.156 74.47 402.236 74.31H402.656L403.586 80.28ZM425.217 74.76V75.18C424.177 75.28 423.457 75.49 423.057 75.81C422.677 76.13 422.487 76.66 422.487 77.4V88.53C422.487 90.13 422.187 91.53 421.587 92.73C421.007 93.91 420.167 94.83 419.067 95.49C417.967 96.13 416.687 96.45 415.227 96.45C412.727 96.45 410.767 95.75 409.347 94.35C407.947 92.95 407.247 91.01 407.247 88.53V77.4C407.247 76.66 407.047 76.13 406.647 75.81C406.267 75.49 405.557 75.28 404.517 75.18V74.76H412.677V75.18C411.637 75.28 410.917 75.49 410.517 75.81C410.137 76.13 409.947 76.66 409.947 77.4V88.53C409.947 89.91 410.197 91.12 410.697 92.16C411.197 93.2 411.897 94.01 412.797 94.59C413.717 95.17 414.767 95.46 415.947 95.46C417.727 95.46 419.117 94.84 420.117 93.6C421.137 92.34 421.647 90.65 421.647 88.53V77.4C421.647 76.66 421.457 76.13 421.077 75.81C420.697 75.49 419.987 75.28 418.947 75.18V74.76H425.217ZM429.369 78.33C428.909 77.19 428.419 76.38 427.899 75.9C427.399 75.42 426.779 75.18 426.039 75.18V74.76H434.649V75.18C433.669 75.18 432.959 75.3 432.519 75.54C432.079 75.76 431.859 76.12 431.859 76.62C431.859 77 431.979 77.49 432.219 78.09L438.009 92.43L443.709 78.09C443.949 77.49 444.069 76.99 444.069 76.59C444.069 76.09 443.859 75.73 443.439 75.51C443.019 75.29 442.329 75.18 441.369 75.18V74.76H447.699V75.18C446.999 75.18 446.409 75.42 445.929 75.9C445.449 76.38 444.979 77.2 444.519 78.36L437.199 96.45H436.779L429.369 78.33ZM479.931 74.76V75.18C479.291 75.2 478.751 75.45 478.311 75.93C477.871 76.41 477.441 77.22 477.021 78.36L470.391 96.45H470.001L464.061 80.46L458.211 96.45H457.821L451.101 78.33C450.681 77.25 450.241 76.46 449.781 75.96C449.341 75.46 448.771 75.2 448.071 75.18V74.76H455.991V75.18C455.131 75.2 454.511 75.32 454.131 75.54C453.751 75.76 453.561 76.11 453.561 76.59C453.561 76.97 453.671 77.47 453.891 78.09L458.931 92.13L463.611 79.2L463.281 78.33C462.881 77.25 462.451 76.46 461.991 75.96C461.551 75.46 460.971 75.2 460.251 75.18V74.76H468.171V75.18C467.311 75.2 466.691 75.32 466.311 75.54C465.931 75.76 465.741 76.12 465.741 76.62C465.741 76.98 465.851 77.47 466.071 78.09L471.111 92.1L476.241 78.09C476.461 77.47 476.571 76.97 476.571 76.59C476.571 76.11 476.381 75.76 476.001 75.54C475.641 75.32 475.021 75.2 474.141 75.18V74.76H479.931ZM497.224 93.21C497.584 93.77 497.884 94.2 498.124 94.5C498.364 94.78 498.684 95.02 499.084 95.22C499.484 95.4 500.014 95.52 500.674 95.58V96H492.004V95.58C492.764 95.5 493.344 95.35 493.744 95.13C494.164 94.89 494.374 94.59 494.374 94.23C494.374 93.97 494.274 93.68 494.074 93.36L489.544 86.37L484.594 93.36C484.354 93.68 484.234 93.99 484.234 94.29C484.234 94.99 484.984 95.42 486.484 95.58V96H479.974V95.58C480.634 95.52 481.174 95.4 481.594 95.22C482.014 95.02 482.354 94.78 482.614 94.5C482.894 94.22 483.214 93.82 483.574 93.3L489.034 85.59L483.814 77.55C483.454 76.97 483.144 76.54 482.884 76.26C482.644 75.98 482.324 75.75 481.924 75.57C481.544 75.37 481.024 75.24 480.364 75.18V74.76H489.064V75.18C487.464 75.34 486.664 75.79 486.664 76.53C486.664 76.79 486.764 77.08 486.964 77.4L490.864 83.4L495.094 77.4C495.354 77.06 495.484 76.74 495.484 76.44C495.484 75.76 494.724 75.34 493.204 75.18V74.76H499.714V75.18C499.054 75.24 498.514 75.37 498.094 75.57C497.694 75.75 497.354 75.98 497.074 76.26C496.794 76.54 496.474 76.94 496.114 77.46L491.374 84.18L497.224 93.21ZM520.727 75.18C519.727 75.28 518.967 75.5 518.447 75.84C517.947 76.18 517.507 76.72 517.127 77.46L512.327 86.88V93.15C512.327 94.01 512.507 94.61 512.867 94.95C513.247 95.27 513.957 95.47 514.997 95.55V96H506.927V95.55C507.967 95.47 508.667 95.27 509.027 94.95C509.407 94.61 509.597 94.01 509.597 93.15V87.24L504.107 77.55C503.667 76.75 503.227 76.18 502.787 75.84C502.347 75.5 501.637 75.28 500.657 75.18V74.76H509.267V75.18C507.707 75.34 506.927 75.78 506.927 76.5C506.927 76.76 507.017 77.06 507.197 77.4L511.907 85.8L516.197 77.4C516.377 77.04 516.467 76.73 516.467 76.47C516.467 75.75 515.737 75.32 514.277 75.18V74.76H520.727V75.18ZM537.166 90.48L536.206 96.45H535.786C535.706 96.29 535.546 96.17 535.306 96.09C535.086 96.03 534.746 96 534.286 96H521.266V95.55L533.626 75.6H527.446C526.046 75.6 524.966 75.97 524.206 76.71C523.446 77.43 522.866 78.62 522.466 80.28H522.046L522.976 74.31H523.396C523.476 74.47 523.626 74.59 523.846 74.67C524.086 74.73 524.446 74.76 524.926 74.76H537.076V75.21L524.686 95.16H531.766C533.166 95.16 534.246 94.8 535.006 94.08C535.766 93.34 536.346 92.14 536.746 90.48H537.166ZM15.21 128.23C14.87 129.05 14.46 129.63 13.98 129.97C13.5 130.29 13.04 130.45 12.6 130.45C11.98 130.45 11.43 130.23 10.95 129.79C10.49 129.33 10.26 128.69 10.26 127.87V126.76C9.84 127.92 9.22 128.83 8.4 129.49C7.6 130.13 6.69 130.45 5.67 130.45C4.51 130.45 3.53 130.09 2.73 129.37C1.95 128.63 1.56 127.69 1.56 126.55C1.56 125.01 2.06 123.82 3.06 122.98C4.06 122.12 5.62 121.59 7.74 121.39L10.26 121.15V119.77C10.26 118.41 9.95 117.34 9.33 116.56C8.73 115.76 7.9 115.36 6.84 115.36C5.88 115.36 5.15 115.61 4.65 116.11C4.15 116.59 3.9 117.17 3.9 117.85C3.9 118.11 3.92 118.3 3.96 118.42C4.02 118.66 4.05 118.87 4.05 119.05C4.05 119.47 3.93 119.79 3.69 120.01C3.45 120.23 3.15 120.34 2.79 120.34C2.43 120.34 2.13 120.22 1.89 119.98C1.67 119.72 1.56 119.35 1.56 118.87C1.58 118.21 1.81 117.55 2.25 116.89C2.69 116.21 3.35 115.65 4.23 115.21C5.11 114.75 6.19 114.52 7.47 114.52C9.11 114.52 10.4 115.01 11.34 115.99C12.28 116.95 12.75 118.26 12.75 119.92V127.87C12.75 128.25 12.83 128.55 12.99 128.77C13.15 128.97 13.37 129.07 13.65 129.07C14.07 129.07 14.47 128.74 14.85 128.08L15.21 128.23ZM6.93 128.74C7.61 128.74 8.24 128.49 8.82 127.99C9.4 127.49 9.88 126.8 10.26 125.92V121.96L7.95 122.26C5.41 122.58 4.14 123.77 4.14 125.83C4.14 126.67 4.41 127.37 4.95 127.93C5.49 128.47 6.15 128.74 6.93 128.74ZM25.0624 114.52C26.3424 114.52 27.4524 114.85 28.3924 115.51C29.3524 116.15 30.0824 117.05 30.5824 118.21C31.1024 119.35 31.3624 120.65 31.3624 122.11C31.3624 123.75 31.0624 125.21 30.4624 126.49C29.8824 127.75 29.0524 128.73 27.9724 129.43C26.9124 130.11 25.6924 130.45 24.3124 130.45C23.4524 130.45 22.6324 130.29 21.8524 129.97C21.0724 129.63 20.4324 129.17 19.9324 128.59L18.4324 130.45H18.0124V111.79C18.0124 111.15 17.9124 110.71 17.7124 110.47C17.5124 110.21 17.1724 110.08 16.6924 110.08C16.3724 110.08 16.1124 110.1 15.9124 110.14V109.72L20.0524 108.31H20.4724V118.27C20.7324 117.17 21.2824 116.27 22.1224 115.57C22.9624 114.87 23.9424 114.52 25.0624 114.52ZM24.4624 129.61C25.3024 129.61 26.0424 129.35 26.6824 128.83C27.3224 128.29 27.8124 127.55 28.1524 126.61C28.5124 125.65 28.6924 124.56 28.6924 123.34C28.6924 121.92 28.5024 120.66 28.1224 119.56C27.7424 118.44 27.1924 117.57 26.4724 116.95C25.7524 116.31 24.9124 115.99 23.9524 115.99C23.1124 115.99 22.3724 116.3 21.7324 116.92C21.0924 117.52 20.6724 118.27 20.4724 119.17V125.11C20.4724 125.87 20.6224 126.6 20.9224 127.3C21.2424 127.98 21.7024 128.54 22.3024 128.98C22.9024 129.4 23.6224 129.61 24.4624 129.61ZM45.716 119.47C45.236 118.09 44.576 117.06 43.736 116.38C42.896 115.7 41.936 115.36 40.856 115.36C39.996 115.36 39.226 115.63 38.546 116.17C37.866 116.69 37.326 117.42 36.926 118.36C36.546 119.28 36.356 120.32 36.356 121.48C36.356 122.76 36.586 123.94 37.046 125.02C37.526 126.1 38.196 126.96 39.056 127.6C39.936 128.24 40.956 128.56 42.116 128.56C43.056 128.56 43.896 128.28 44.636 127.72C45.376 127.14 45.906 126.36 46.226 125.38L46.586 125.47C46.346 126.95 45.706 128.15 44.666 129.07C43.646 129.97 42.396 130.42 40.916 130.42C39.576 130.42 38.356 130.09 37.256 129.43C36.176 128.75 35.326 127.83 34.706 126.67C34.086 125.49 33.776 124.18 33.776 122.74C33.776 121.2 34.076 119.81 34.676 118.57C35.276 117.31 36.096 116.32 37.136 115.6C38.176 114.88 39.326 114.52 40.586 114.52C41.286 114.52 41.876 114.59 42.356 114.73C42.856 114.85 43.356 115.01 43.856 115.21C44.216 115.35 44.456 115.42 44.576 115.42C44.716 115.42 44.826 115.36 44.906 115.24C44.986 115.1 45.046 114.86 45.086 114.52H45.446L46.136 119.47H45.716ZM64.2352 128.23C63.8752 129.05 63.4552 129.63 62.9752 129.97C62.5152 130.29 62.0652 130.45 61.6252 130.45C61.0052 130.45 60.4552 130.23 59.9752 129.79C59.5152 129.33 59.2852 128.69 59.2852 127.87V126.7C59.0252 127.8 58.4752 128.7 57.6352 129.4C56.7952 130.1 55.8152 130.45 54.6952 130.45C53.4152 130.45 52.2952 130.13 51.3352 129.49C50.3952 128.83 49.6652 127.93 49.1452 126.79C48.6452 125.63 48.3952 124.32 48.3952 122.86C48.3952 121.22 48.6852 119.77 49.2652 118.51C49.8652 117.23 50.7052 116.25 51.7852 115.57C52.8652 114.87 54.0952 114.52 55.4752 114.52C56.1752 114.52 56.8552 114.64 57.5152 114.88C58.1952 115.1 58.7852 115.42 59.2852 115.84V111.79C59.2852 111.15 59.1852 110.71 58.9852 110.47C58.7852 110.21 58.4452 110.08 57.9652 110.08C57.6452 110.08 57.3852 110.1 57.1852 110.14V109.72L61.3552 108.31H61.7752V127.87C61.7752 128.25 61.8552 128.55 62.0152 128.77C62.1752 128.97 62.3952 129.07 62.6752 129.07C63.0952 129.07 63.4952 128.74 63.8752 128.08L64.2352 128.23ZM55.8052 128.98C56.6452 128.98 57.3852 128.68 58.0252 128.08C58.6652 127.46 59.0852 126.69 59.2852 125.77V119.86C59.2852 119.1 59.1252 118.38 58.8052 117.7C58.5052 117 58.0552 116.44 57.4552 116.02C56.8552 115.58 56.1452 115.36 55.3252 115.36C54.4852 115.36 53.7352 115.63 53.0752 116.17C52.4352 116.69 51.9352 117.43 51.5752 118.39C51.2352 119.33 51.0652 120.4 51.0652 121.6C51.0652 123.02 51.2552 124.29 51.6352 125.41C52.0152 126.51 52.5652 127.38 53.2852 128.02C54.0052 128.66 54.8452 128.98 55.8052 128.98ZM78.0431 125.65C77.8031 127.07 77.1731 128.22 76.1531 129.1C75.1531 129.98 73.9631 130.42 72.5831 130.42C71.1231 130.42 69.8631 130.09 68.8031 129.43C67.7431 128.75 66.9331 127.83 66.3731 126.67C65.8331 125.51 65.5631 124.22 65.5631 122.8C65.5631 121.18 65.8631 119.75 66.4631 118.51C67.0631 117.25 67.8931 116.27 68.9531 115.57C70.0331 114.87 71.2631 114.52 72.6431 114.52C74.3231 114.52 75.6331 115.06 76.5731 116.14C77.5331 117.22 78.0131 118.58 78.0131 120.22C78.0131 120.54 78.0031 120.78 77.9831 120.94H68.1731V121.57C68.1731 123.63 68.6631 125.31 69.6431 126.61C70.6431 127.91 72.0331 128.56 73.8131 128.56C74.6731 128.56 75.4531 128.29 76.1531 127.75C76.8731 127.19 77.3731 126.46 77.6531 125.56L78.0431 125.65ZM72.1331 115.36C70.9931 115.36 70.0931 115.79 69.4331 116.65C68.7731 117.51 68.3731 118.71 68.2331 120.25H75.4931C75.5531 119.39 75.4431 118.59 75.1631 117.85C74.9031 117.09 74.5031 116.49 73.9631 116.05C73.4431 115.59 72.8331 115.36 72.1331 115.36ZM87.7702 108.13C88.7702 108.13 89.6802 108.31 90.5002 108.67C91.3202 109.01 91.7302 109.54 91.7302 110.26C91.7302 110.6 91.6102 110.89 91.3702 111.13C91.1302 111.35 90.8502 111.46 90.5302 111.46C90.3702 111.46 90.1902 111.41 89.9902 111.31C89.7302 111.21 89.5302 111.08 89.3902 110.92C89.2502 110.74 89.1102 110.49 88.9702 110.17C88.7702 109.77 88.5602 109.47 88.3402 109.27C88.1402 109.07 87.8002 108.97 87.3202 108.97C86.5402 108.97 85.9402 109.35 85.5202 110.11C85.1002 110.85 84.8902 111.84 84.8902 113.08V114.97H89.0602V115.81H84.8902V127.75C84.8902 128.37 85.1102 128.8 85.5502 129.04C85.9902 129.28 86.7502 129.46 87.8302 129.58V130H80.2702V129.58C80.9902 129.46 81.5302 129.28 81.8902 129.04C82.2502 128.78 82.4302 128.35 82.4302 127.75V115.81H79.8802V114.97H82.4302V113.89C82.4302 112.03 82.9302 110.61 83.9302 109.63C84.9302 108.63 86.2102 108.13 87.7702 108.13ZM97.6711 126.97C98.3311 126.81 99.0311 126.73 99.7711 126.73C101.171 126.73 102.281 127.09 103.101 127.81C103.941 128.53 104.361 129.55 104.361 130.87C104.361 131.97 104.011 132.93 103.311 133.75C102.631 134.59 101.671 135.23 100.431 135.67C99.2111 136.13 97.8011 136.36 96.2011 136.36C94.4411 136.36 93.0711 136.03 92.0911 135.37C91.1111 134.73 90.6211 133.9 90.6211 132.88C90.6211 131.44 91.3911 130.37 92.9311 129.67C92.2711 129.47 91.7611 129.14 91.4011 128.68C91.0411 128.2 90.8611 127.63 90.8611 126.97C90.8611 126.33 91.0511 125.73 91.4311 125.17C91.8111 124.61 92.3711 124.18 93.1111 123.88C92.3711 123.42 91.7911 122.84 91.3711 122.14C90.9511 121.44 90.7411 120.63 90.7411 119.71C90.7411 118.71 90.9911 117.82 91.4911 117.04C91.9911 116.26 92.7011 115.65 93.6211 115.21C94.5411 114.75 95.5911 114.52 96.7711 114.52H97.1011C98.2411 114.56 99.0711 114.6 99.5911 114.64C100.511 114.68 101.101 114.7 101.361 114.7C102.061 114.7 102.571 114.62 102.891 114.46C103.231 114.28 103.391 113.95 103.371 113.47H103.731L104.031 115.87C103.451 115.87 102.681 115.78 101.721 115.6C100.781 115.42 100.231 115.31 100.071 115.27C100.911 115.71 101.571 116.32 102.051 117.1C102.531 117.86 102.771 118.73 102.771 119.71C102.771 120.69 102.521 121.58 102.021 122.38C101.521 123.16 100.811 123.77 99.8911 124.21C98.9911 124.65 97.9511 124.87 96.7711 124.87C95.5511 124.87 94.4711 124.62 93.5311 124.12C93.1311 124.32 92.8311 124.58 92.6311 124.9C92.4311 125.2 92.3311 125.52 92.3311 125.86C92.3311 126.4 92.5211 126.83 92.9011 127.15C93.2811 127.45 93.8111 127.6 94.4911 127.6C94.7911 127.6 95.1911 127.55 95.6911 127.45L97.6711 126.97ZM96.5311 115.18C95.5711 115.18 94.7911 115.53 94.1911 116.23C93.5911 116.93 93.2911 117.84 93.2911 118.96C93.2911 119.92 93.4411 120.8 93.7411 121.6C94.0611 122.4 94.5011 123.03 95.0611 123.49C95.6411 123.95 96.2911 124.18 97.0111 124.18C97.9711 124.18 98.7411 123.83 99.3211 123.13C99.9011 122.43 100.191 121.53 100.191 120.43C100.191 119.43 100.031 118.53 99.7111 117.73C99.3911 116.93 98.9511 116.31 98.3911 115.87C97.8311 115.41 97.2111 115.18 96.5311 115.18ZM97.0411 135.58C98.7211 135.58 100.071 135.25 101.091 134.59C102.131 133.93 102.651 133.02 102.651 131.86C102.651 130.94 102.331 130.23 101.691 129.73C101.051 129.21 100.231 128.95 99.2311 128.95C98.7111 128.95 98.2511 129 97.8511 129.1L95.9011 129.61C95.3411 129.75 94.7811 129.82 94.2211 129.82C93.9411 129.82 93.7311 129.81 93.5911 129.79C92.7511 130.53 92.3311 131.39 92.3311 132.37C92.3311 133.35 92.7711 134.13 93.6511 134.71C94.5311 135.29 95.6611 135.58 97.0411 135.58ZM119.879 127.66C119.879 128.28 120.029 128.73 120.329 129.01C120.629 129.29 121.169 129.48 121.949 129.58V130H115.289V129.58C116.089 129.48 116.639 129.29 116.939 129.01C117.239 128.73 117.389 128.28 117.389 127.66V119.77C117.389 118.69 117.109 117.87 116.549 117.31C116.009 116.73 115.259 116.44 114.299 116.44C113.579 116.44 112.919 116.62 112.319 116.98C111.739 117.32 111.099 117.88 110.399 118.66V127.66C110.399 128.28 110.549 128.73 110.849 129.01C111.149 129.29 111.689 129.48 112.469 129.58V130H105.839V129.58C106.619 129.48 107.159 129.29 107.459 129.01C107.759 128.73 107.909 128.28 107.909 127.66V111.79C107.909 111.15 107.809 110.71 107.609 110.47C107.429 110.21 107.099 110.08 106.619 110.08C106.299 110.08 106.039 110.1 105.839 110.14V109.72L109.979 108.31H110.399V117.91C111.279 116.77 112.119 115.92 112.919 115.36C113.739 114.8 114.609 114.52 115.529 114.52C116.909 114.52 117.979 114.97 118.739 115.87C119.499 116.75 119.879 117.96 119.879 119.5V127.66ZM126.63 112.24C126.09 112.24 125.64 112.07 125.28 111.73C124.92 111.39 124.74 110.96 124.74 110.44C124.74 109.92 124.92 109.49 125.28 109.15C125.64 108.81 126.09 108.64 126.63 108.64C127.15 108.64 127.58 108.81 127.92 109.15C128.28 109.49 128.46 109.92 128.46 110.44C128.46 110.96 128.28 111.39 127.92 111.73C127.58 112.07 127.15 112.24 126.63 112.24ZM127.89 127.66C127.89 128.28 128.04 128.73 128.34 129.01C128.64 129.29 129.18 129.48 129.96 129.58V130H123.33V129.58C124.11 129.48 124.65 129.29 124.95 129.01C125.25 128.73 125.4 128.28 125.4 127.66V118C125.4 117.36 125.3 116.91 125.1 116.65C124.92 116.39 124.6 116.26 124.14 116.26C123.9 116.26 123.63 116.29 123.33 116.35V115.93L127.47 114.52H127.89V127.66ZM139.068 126.97C139.728 126.81 140.428 126.73 141.168 126.73C142.568 126.73 143.678 127.09 144.498 127.81C145.338 128.53 145.758 129.55 145.758 130.87C145.758 131.97 145.408 132.93 144.708 133.75C144.028 134.59 143.068 135.23 141.828 135.67C140.608 136.13 139.198 136.36 137.598 136.36C135.838 136.36 134.468 136.03 133.488 135.37C132.508 134.73 132.018 133.9 132.018 132.88C132.018 131.44 132.788 130.37 134.328 129.67C133.668 129.47 133.158 129.14 132.798 128.68C132.438 128.2 132.258 127.63 132.258 126.97C132.258 126.33 132.448 125.73 132.828 125.17C133.208 124.61 133.768 124.18 134.508 123.88C133.768 123.42 133.188 122.84 132.768 122.14C132.348 121.44 132.138 120.63 132.138 119.71C132.138 118.71 132.388 117.82 132.888 117.04C133.388 116.26 134.098 115.65 135.018 115.21C135.938 114.75 136.988 114.52 138.168 114.52H138.498C139.638 114.56 140.468 114.6 140.988 114.64C141.908 114.68 142.498 114.7 142.758 114.7C143.458 114.7 143.968 114.62 144.288 114.46C144.628 114.28 144.788 113.95 144.768 113.47H145.128L145.428 115.87C144.848 115.87 144.078 115.78 143.118 115.6C142.178 115.42 141.628 115.31 141.468 115.27C142.308 115.71 142.968 116.32 143.448 117.1C143.928 117.86 144.168 118.73 144.168 119.71C144.168 120.69 143.918 121.58 143.418 122.38C142.918 123.16 142.208 123.77 141.288 124.21C140.388 124.65 139.348 124.87 138.168 124.87C136.948 124.87 135.868 124.62 134.928 124.12C134.528 124.32 134.228 124.58 134.028 124.9C133.828 125.2 133.728 125.52 133.728 125.86C133.728 126.4 133.918 126.83 134.298 127.15C134.678 127.45 135.208 127.6 135.888 127.6C136.188 127.6 136.588 127.55 137.088 127.45L139.068 126.97ZM137.928 115.18C136.968 115.18 136.188 115.53 135.588 116.23C134.988 116.93 134.688 117.84 134.688 118.96C134.688 119.92 134.838 120.8 135.138 121.6C135.458 122.4 135.898 123.03 136.458 123.49C137.038 123.95 137.688 124.18 138.408 124.18C139.368 124.18 140.138 123.83 140.718 123.13C141.298 122.43 141.588 121.53 141.588 120.43C141.588 119.43 141.428 118.53 141.108 117.73C140.788 116.93 140.348 116.31 139.788 115.87C139.228 115.41 138.608 115.18 137.928 115.18ZM138.438 135.58C140.118 135.58 141.468 135.25 142.488 134.59C143.528 133.93 144.048 133.02 144.048 131.86C144.048 130.94 143.728 130.23 143.088 129.73C142.448 129.21 141.628 128.95 140.628 128.95C140.108 128.95 139.648 129 139.248 129.1L137.298 129.61C136.738 129.75 136.178 129.82 135.618 129.82C135.338 129.82 135.128 129.81 134.988 129.79C134.148 130.53 133.728 131.39 133.728 132.37C133.728 133.35 134.168 134.13 135.048 134.71C135.928 135.29 137.058 135.58 138.438 135.58ZM160.166 127.51C160.606 128.25 161.046 128.77 161.486 129.07C161.926 129.37 162.486 129.54 163.166 129.58V130H158.306C158.326 129.76 158.276 129.49 158.156 129.19C158.036 128.89 157.826 128.47 157.526 127.93L154.046 121.63L151.796 123.7V127.66C151.796 128.28 151.946 128.73 152.246 129.01C152.546 129.29 153.086 129.48 153.866 129.58V130H147.236V129.58C148.016 129.48 148.556 129.29 148.856 129.01C149.156 128.73 149.306 128.28 149.306 127.66V111.79C149.306 111.15 149.206 110.71 149.006 110.47C148.826 110.21 148.496 110.08 148.016 110.08C147.696 110.08 147.436 110.1 147.236 110.14V109.72L151.376 108.31H151.796V122.56L157.766 117.1C158.106 116.8 158.276 116.51 158.276 116.23C158.276 115.99 158.146 115.8 157.886 115.66C157.626 115.5 157.246 115.41 156.746 115.39V114.97H162.476V115.39C161.776 115.47 161.156 115.66 160.616 115.96C160.076 116.24 159.426 116.72 158.666 117.4L155.966 119.86L160.166 127.51ZM168.641 127.66C168.641 128.28 168.791 128.73 169.091 129.01C169.391 129.29 169.931 129.48 170.711 129.58V130H164.081V129.58C164.861 129.48 165.401 129.29 165.701 129.01C166.001 128.73 166.151 128.28 166.151 127.66V111.79C166.151 111.15 166.051 110.71 165.851 110.47C165.671 110.21 165.341 110.08 164.861 110.08C164.541 110.08 164.281 110.1 164.081 110.14V109.72L168.221 108.31H168.641V127.66ZM196.07 127.66C196.07 128.28 196.22 128.73 196.52 129.01C196.82 129.29 197.36 129.48 198.14 129.58V130H191.51V129.58C192.29 129.48 192.83 129.29 193.13 129.01C193.43 128.73 193.58 128.28 193.58 127.66V119.77C193.58 118.69 193.3 117.87 192.74 117.31C192.2 116.73 191.46 116.44 190.52 116.44C189.78 116.44 189.1 116.63 188.48 117.01C187.88 117.37 187.22 117.97 186.5 118.81C186.52 118.95 186.53 119.18 186.53 119.5V127.66C186.53 128.28 186.68 128.73 186.98 129.01C187.28 129.29 187.82 129.48 188.6 129.58V130H181.97V129.58C182.75 129.48 183.29 129.29 183.59 129.01C183.89 128.73 184.04 128.28 184.04 127.66V119.77C184.04 118.69 183.76 117.87 183.2 117.31C182.66 116.73 181.92 116.44 180.98 116.44C180.24 116.44 179.57 116.62 178.97 116.98C178.39 117.34 177.74 117.93 177.02 118.75V127.66C177.02 128.28 177.17 128.73 177.47 129.01C177.77 129.29 178.31 129.48 179.09 129.58V130H172.46V129.58C173.24 129.48 173.78 129.29 174.08 129.01C174.38 128.73 174.53 128.28 174.53 127.66V118C174.53 117.36 174.43 116.91 174.23 116.65C174.05 116.39 173.73 116.26 173.27 116.26C173.03 116.26 172.76 116.29 172.46 116.35V115.93L176.6 114.52H177.02V117.97C177.9 116.81 178.75 115.95 179.57 115.39C180.39 114.81 181.26 114.52 182.18 114.52C183.34 114.52 184.28 114.84 185 115.48C185.74 116.12 186.21 117.01 186.41 118.15C187.33 116.91 188.21 116 189.05 115.42C189.89 114.82 190.78 114.52 191.72 114.52C193.1 114.52 194.17 114.97 194.93 115.87C195.69 116.75 196.07 117.96 196.07 119.5V127.66ZM213.66 127.66C213.66 128.28 213.81 128.73 214.11 129.01C214.41 129.29 214.95 129.48 215.73 129.58V130H209.1V129.58C209.88 129.48 210.42 129.29 210.72 129.01C211.02 128.73 211.17 128.28 211.17 127.66V119.77C211.17 118.69 210.89 117.87 210.33 117.31C209.79 116.73 209.04 116.44 208.08 116.44C207.36 116.44 206.69 116.63 206.07 117.01C205.47 117.37 204.82 117.96 204.12 118.78V127.66C204.12 128.28 204.27 128.73 204.57 129.01C204.87 129.29 205.41 129.48 206.19 129.58V130H199.56V129.58C200.34 129.48 200.88 129.29 201.18 129.01C201.48 128.73 201.63 128.28 201.63 127.66V118C201.63 117.36 201.53 116.91 201.33 116.65C201.15 116.39 200.83 116.26 200.37 116.26C200.13 116.26 199.86 116.29 199.56 116.35V115.93L203.7 114.52H204.12V118C205 116.84 205.85 115.97 206.67 115.39C207.51 114.81 208.39 114.52 209.31 114.52C210.69 114.52 211.76 114.97 212.52 115.87C213.28 116.75 213.66 117.96 213.66 119.5V127.66ZM224.075 130.42C222.715 130.42 221.505 130.1 220.445 129.46C219.405 128.82 218.595 127.93 218.015 126.79C217.435 125.63 217.145 124.3 217.145 122.8C217.145 121.18 217.445 119.75 218.045 118.51C218.665 117.25 219.515 116.27 220.595 115.57C221.695 114.87 222.945 114.52 224.345 114.52C225.705 114.52 226.915 114.84 227.975 115.48C229.035 116.12 229.855 117.02 230.435 118.18C231.015 119.32 231.305 120.64 231.305 122.14C231.305 123.78 230.995 125.23 230.375 126.49C229.775 127.73 228.925 128.7 227.825 129.4C226.745 130.08 225.495 130.42 224.075 130.42ZM224.765 129.58C225.925 129.58 226.865 129.06 227.585 128.02C228.325 126.98 228.695 125.64 228.695 124C228.695 122.54 228.475 121.15 228.035 119.83C227.615 118.49 227.015 117.41 226.235 116.59C225.475 115.77 224.615 115.36 223.655 115.36C222.495 115.36 221.555 115.89 220.835 116.95C220.115 117.99 219.755 119.33 219.755 120.97C219.755 122.43 219.965 123.82 220.385 125.14C220.805 126.46 221.395 127.53 222.155 128.35C222.935 129.17 223.805 129.58 224.765 129.58ZM242.162 114.52C243.442 114.52 244.552 114.85 245.492 115.51C246.452 116.15 247.182 117.05 247.682 118.21C248.202 119.35 248.462 120.65 248.462 122.11C248.462 123.75 248.162 125.21 247.562 126.49C246.962 127.75 246.122 128.73 245.042 129.43C243.982 130.11 242.762 130.45 241.382 130.45C240.682 130.45 239.992 130.33 239.312 130.09C238.652 129.87 238.072 129.55 237.572 129.13V133.66C237.572 134.28 237.792 134.71 238.232 134.95C238.672 135.19 239.432 135.37 240.512 135.49V135.91H232.922V135.49C233.642 135.37 234.182 135.18 234.542 134.92C234.902 134.68 235.082 134.26 235.082 133.66V118C235.082 117.36 234.982 116.91 234.782 116.65C234.582 116.39 234.262 116.26 233.822 116.26C233.582 116.26 233.312 116.29 233.012 116.35V115.93L237.152 114.52H237.572V118.15C237.872 117.07 238.432 116.2 239.252 115.54C240.092 114.86 241.062 114.52 242.162 114.52ZM241.532 129.61C242.372 129.61 243.112 129.35 243.752 128.83C244.392 128.29 244.892 127.55 245.252 126.61C245.612 125.65 245.792 124.56 245.792 123.34C245.792 121.92 245.602 120.66 245.222 119.56C244.842 118.44 244.292 117.57 243.572 116.95C242.852 116.31 242.002 115.99 241.022 115.99C240.222 115.99 239.502 116.29 238.862 116.89C238.242 117.47 237.812 118.2 237.572 119.08V125.11C237.572 125.87 237.722 126.6 238.022 127.3C238.322 127.98 238.772 128.54 239.372 128.98C239.972 129.4 240.692 129.61 241.532 129.61ZM264.568 133.66C264.568 134.26 264.738 134.68 265.078 134.92C265.438 135.18 265.978 135.37 266.698 135.49V135.91H259.138V135.49C260.218 135.37 260.978 135.19 261.418 134.95C261.858 134.71 262.078 134.28 262.078 133.66V126.7C261.818 127.8 261.268 128.7 260.428 129.4C259.588 130.1 258.608 130.45 257.488 130.45C256.208 130.45 255.088 130.13 254.128 129.49C253.188 128.83 252.458 127.93 251.938 126.79C251.438 125.63 251.188 124.32 251.188 122.86C251.188 121.22 251.478 119.77 252.058 118.51C252.658 117.23 253.498 116.25 254.578 115.57C255.658 114.87 256.888 114.52 258.268 114.52C259.108 114.52 259.908 114.68 260.668 115C261.428 115.32 262.058 115.76 262.558 116.32L264.148 114.52H264.568V133.66ZM258.598 128.98C259.438 128.98 260.178 128.68 260.818 128.08C261.458 127.46 261.878 126.69 262.078 125.77V119.86C262.078 119.1 261.918 118.38 261.598 117.7C261.298 117 260.848 116.44 260.248 116.02C259.648 115.58 258.938 115.36 258.118 115.36C257.278 115.36 256.528 115.63 255.868 116.17C255.228 116.69 254.728 117.43 254.368 118.39C254.028 119.33 253.858 120.4 253.858 121.6C253.858 123.02 254.048 124.29 254.428 125.41C254.808 126.51 255.358 127.38 256.078 128.02C256.798 128.66 257.638 128.98 258.598 128.98ZM275.727 114.52C276.447 114.52 277.007 114.67 277.407 114.97C277.827 115.25 278.037 115.64 278.037 116.14C278.037 116.52 277.927 116.84 277.707 117.1C277.507 117.34 277.237 117.46 276.897 117.46C276.657 117.46 276.457 117.42 276.297 117.34C276.157 117.26 276.007 117.14 275.847 116.98C275.647 116.8 275.467 116.67 275.307 116.59C275.167 116.51 274.967 116.47 274.707 116.47C274.207 116.47 273.727 116.66 273.267 117.04C272.827 117.4 272.477 117.91 272.217 118.57C271.957 119.23 271.827 119.95 271.827 120.73V127.75C271.827 128.37 272.037 128.8 272.457 129.04C272.897 129.28 273.657 129.46 274.737 129.58V130H267.177V129.58C267.897 129.46 268.437 129.28 268.797 129.04C269.157 128.78 269.337 128.35 269.337 127.75V118C269.337 117.36 269.237 116.91 269.037 116.65C268.837 116.39 268.507 116.26 268.047 116.26C267.807 116.26 267.537 116.29 267.237 116.35V115.93L271.407 114.52H271.827V118.45C272.127 117.19 272.627 116.22 273.327 115.54C274.047 114.86 274.847 114.52 275.727 114.52ZM284.984 130.42C284.404 130.42 283.884 130.35 283.424 130.21C282.964 130.07 282.484 129.89 281.984 129.67C281.584 129.47 281.284 129.37 281.084 129.37C280.924 129.37 280.794 129.45 280.694 129.61C280.594 129.77 280.534 130.05 280.514 130.45H280.094L279.284 125.38H279.704C280.204 126.7 280.924 127.73 281.864 128.47C282.824 129.21 283.844 129.58 284.924 129.58C285.864 129.58 286.624 129.34 287.204 128.86C287.804 128.36 288.104 127.7 288.104 126.88C288.104 126.24 287.924 125.71 287.564 125.29C287.224 124.87 286.784 124.53 286.244 124.27C285.724 123.99 285.024 123.69 284.144 123.37C283.144 122.99 282.324 122.64 281.684 122.32C281.064 121.98 280.534 121.52 280.094 120.94C279.654 120.34 279.434 119.59 279.434 118.69C279.434 117.45 279.884 116.45 280.784 115.69C281.684 114.91 282.814 114.52 284.174 114.52C285.074 114.52 286.044 114.77 287.084 115.27C287.164 115.31 287.304 115.37 287.504 115.45C287.724 115.53 287.894 115.57 288.014 115.57C288.334 115.57 288.494 115.22 288.494 114.52H288.914L289.634 119.17H289.214C288.694 117.97 288.004 117.04 287.144 116.38C286.304 115.7 285.364 115.36 284.324 115.36C283.504 115.36 282.824 115.59 282.284 116.05C281.744 116.51 281.474 117.11 281.474 117.85C281.474 118.41 281.634 118.88 281.954 119.26C282.274 119.62 282.674 119.92 283.154 120.16C283.634 120.38 284.294 120.64 285.134 120.94C286.194 121.32 287.054 121.69 287.714 122.05C288.394 122.39 288.964 122.89 289.424 123.55C289.904 124.19 290.144 125.02 290.144 126.04C290.144 126.86 289.934 127.6 289.514 128.26C289.094 128.92 288.494 129.45 287.714 129.85C286.934 130.23 286.024 130.42 284.984 130.42ZM296.043 115.81V126.04C296.043 126.96 296.243 127.7 296.643 128.26C297.043 128.8 297.613 129.07 298.353 129.07C298.793 129.07 299.133 128.99 299.373 128.83C299.613 128.67 299.903 128.42 300.243 128.08L300.453 128.23C300.273 128.71 299.893 129.2 299.313 129.7C298.753 130.2 298.093 130.45 297.333 130.45C296.133 130.45 295.203 130.07 294.543 129.31C293.883 128.55 293.553 127.48 293.553 126.1V115.81H291.423V115.21C292.363 114.89 293.203 114.38 293.943 113.68C294.683 112.96 295.243 112.08 295.623 111.04H296.043V114.97H300.513V115.81H296.043ZM318.127 128.23C317.767 129.05 317.347 129.63 316.867 129.97C316.407 130.29 315.957 130.45 315.517 130.45C314.897 130.45 314.347 130.23 313.867 129.79C313.407 129.33 313.177 128.69 313.177 127.87V126.97C312.297 128.13 311.437 129 310.597 129.58C309.777 130.16 308.907 130.45 307.987 130.45C306.607 130.45 305.537 130.01 304.777 129.13C304.017 128.23 303.637 127.01 303.637 125.47V118C303.637 117.36 303.537 116.91 303.337 116.65C303.157 116.39 302.837 116.26 302.377 116.26C302.137 116.26 301.867 116.29 301.567 116.35V115.93L305.707 114.52H306.127V125.17C306.127 126.25 306.397 127.08 306.937 127.66C307.497 128.22 308.257 128.5 309.217 128.5C309.957 128.5 310.617 128.33 311.197 127.99C311.797 127.63 312.457 127.04 313.177 126.22V118C313.177 117.36 313.077 116.91 312.877 116.65C312.677 116.39 312.347 116.26 311.887 116.26C311.647 116.26 311.377 116.29 311.077 116.35V115.93L315.217 114.52H315.637V127.87C315.637 128.23 315.717 128.52 315.877 128.74C316.057 128.96 316.277 129.07 316.537 129.07C316.977 129.07 317.387 128.74 317.767 128.08L318.127 128.23ZM319.917 117.34C319.417 116.14 318.697 115.49 317.757 115.39V114.97H324.387V115.39C323.107 115.47 322.467 115.87 322.467 116.59C322.467 116.81 322.527 117.06 322.647 117.34L326.367 126.82L330.207 117.34C330.307 117.12 330.357 116.87 330.357 116.59C330.357 115.85 329.737 115.45 328.497 115.39V114.97H333.057V115.39C332.257 115.47 331.607 116.12 331.107 117.34L325.677 130.45H325.257L319.917 117.34ZM356.958 114.97V115.39C356.538 115.47 356.168 115.66 355.848 115.96C355.548 116.26 355.278 116.71 355.038 117.31L349.728 130.45H349.308L345.108 120.01L340.878 130.45H340.458L335.238 117.37C334.778 116.27 334.068 115.61 333.108 115.39V114.97H339.618V115.39C338.378 115.59 337.758 116.01 337.758 116.65C337.758 116.85 337.798 117.04 337.878 117.22L341.568 126.82L344.688 118.96L344.028 117.28C343.808 116.72 343.508 116.29 343.128 115.99C342.768 115.67 342.378 115.47 341.958 115.39V114.97H348.438V115.39C347.218 115.59 346.608 116.03 346.608 116.71C346.608 116.93 346.648 117.13 346.728 117.31L350.418 126.82L354.198 117.28C354.278 117.1 354.318 116.91 354.318 116.71C354.318 116.03 353.678 115.59 352.398 115.39V114.97H356.958ZM370.335 128.08C370.675 128.54 370.995 128.89 371.295 129.13C371.615 129.35 371.975 129.5 372.375 129.58V130H366.015V129.58C366.975 129.48 367.455 129.22 367.455 128.8C367.455 128.6 367.295 128.27 366.975 127.81L363.915 123.52L360.645 127.63C360.245 128.09 360.045 128.47 360.045 128.77C360.045 129.23 360.515 129.5 361.455 129.58V130H357.105V129.58C357.505 129.48 357.885 129.3 358.245 129.04C358.605 128.76 359.005 128.34 359.445 127.78L363.405 122.83L359.115 116.83C358.795 116.37 358.475 116.03 358.155 115.81C357.855 115.59 357.495 115.45 357.075 115.39V114.97H363.345V115.39C362.425 115.45 361.965 115.67 361.965 116.05C361.965 116.27 362.115 116.58 362.415 116.98L365.205 120.91L368.085 117.34C368.505 116.82 368.715 116.42 368.715 116.14C368.715 115.7 368.265 115.45 367.365 115.39V114.97H371.715V115.39C371.275 115.45 370.875 115.61 370.515 115.87C370.175 116.13 369.765 116.55 369.285 117.13L365.715 121.6L370.335 128.08ZM387.88 114.97V115.39C387.02 115.47 386.32 116.14 385.78 117.4L380.08 131.74C379.58 133.06 378.91 134.16 378.07 135.04C377.23 135.92 376.2 136.36 374.98 136.36C374.24 136.36 373.6 136.2 373.06 135.88C372.52 135.56 372.25 135.14 372.25 134.62C372.25 134.24 372.37 133.92 372.61 133.66C372.87 133.4 373.2 133.27 373.6 133.27C373.78 133.27 373.97 133.31 374.17 133.39C374.37 133.49 374.56 133.59 374.74 133.69C375.12 133.89 375.42 134.03 375.64 134.11C375.88 134.21 376.16 134.26 376.48 134.26C377.08 134.26 377.6 134.03 378.04 133.57C378.5 133.13 378.92 132.43 379.3 131.47L379.81 130.15L374.47 117.4C373.97 116.16 373.29 115.49 372.43 115.39V114.97H378.97V115.39C377.69 115.47 377.05 115.88 377.05 116.62C377.05 116.84 377.11 117.1 377.23 117.4L381.1 126.97L384.88 117.4C385 117.1 385.06 116.83 385.06 116.59C385.06 115.87 384.48 115.47 383.32 115.39V114.97H387.88ZM391.642 129.16H396.952C397.832 129.16 398.552 128.83 399.112 128.17C399.692 127.51 400.152 126.46 400.492 125.02H400.912L400.282 130H388.552V129.58L397.792 115.81H392.842C391.982 115.81 391.282 116.09 390.742 116.65C390.202 117.21 389.742 118.15 389.362 119.47H388.942L389.332 114.97H400.882V115.39L391.642 129.16Z" fill="black"/>
<path d="M27.402 12.468H26.8C26.2553 10.0887 25.424 8.383 24.306 7.351C23.2167 6.29033 21.6687 5.76 19.662 5.76H16.351V30.958C16.351 32.162 16.6233 33.0077 17.168 33.495C17.7127 33.9823 18.7303 34.2833 20.221 34.398V35H8.611V34.398C10.1017 34.2833 11.1193 33.9823 11.664 33.495C12.2087 33.0077 12.481 32.162 12.481 30.958V5.76H9.17C7.16333 5.76 5.61533 6.29033 4.526 7.351C3.43667 8.383 2.60533 10.0887 2.032 12.468H1.43L2.806 3.911H3.408C3.494 4.14033 3.69467 4.31233 4.01 4.427C4.354 4.513 4.87 4.556 5.558 4.556H23.317C23.9763 4.556 24.4637 4.513 24.779 4.427C25.123 4.31233 25.3523 4.14033 25.467 3.911H26.069L27.402 12.468ZM35.3258 35.602C33.3764 35.602 31.6421 35.1433 30.1228 34.226C28.6321 33.3087 27.4711 32.033 26.6398 30.399C25.8084 28.7363 25.3928 26.83 25.3928 24.68C25.3928 22.358 25.8228 20.3083 26.6828 18.531C27.5714 16.725 28.7898 15.3203 30.3378 14.317C31.9144 13.3137 33.7061 12.812 35.7128 12.812C37.6621 12.812 39.3964 13.2707 40.9158 14.188C42.4351 15.1053 43.6104 16.3953 44.4418 18.058C45.2731 19.692 45.6888 21.584 45.6888 23.734C45.6888 26.0847 45.2444 28.163 44.3558 29.969C43.4958 31.7463 42.2774 33.1367 40.7008 34.14C39.1528 35.1147 37.3611 35.602 35.3258 35.602ZM36.3148 34.398C37.9774 34.398 39.3248 33.6527 40.3568 32.162C41.4174 30.6713 41.9478 28.7507 41.9478 26.4C41.9478 24.3073 41.6324 22.315 41.0018 20.423C40.3998 18.5023 39.5398 16.9543 38.4218 15.779C37.3324 14.6037 36.0998 14.016 34.7238 14.016C33.0611 14.016 31.7138 14.7757 30.6818 16.295C29.6498 17.7857 29.1338 19.7063 29.1338 22.057C29.1338 24.1497 29.4348 26.142 30.0368 28.034C30.6388 29.926 31.4844 31.4597 32.5738 32.635C33.6918 33.8103 34.9388 34.398 36.3148 34.398ZM60.6484 12.812C62.4831 12.812 64.0741 13.285 65.4214 14.231C66.7974 15.1483 67.8437 16.4383 68.5604 18.101C69.3057 19.735 69.6784 21.5983 69.6784 23.691C69.6784 26.0417 69.2484 28.1343 68.3884 29.969C67.5571 31.775 66.3674 33.1797 64.8194 34.183C63.3001 35.1577 61.5514 35.645 59.5734 35.645C58.3407 35.645 57.1654 35.4157 56.0474 34.957C54.9294 34.4697 54.0121 33.8103 53.2954 32.979L51.1454 35.645H50.5434V8.899C50.5434 7.98166 50.4001 7.351 50.1134 7.007C49.8267 6.63433 49.3394 6.448 48.6514 6.448C48.1927 6.448 47.8201 6.47666 47.5334 6.534V5.932L53.4674 3.911H54.0694V18.187C54.4421 16.6103 55.2304 15.3203 56.4344 14.317C57.6384 13.3137 59.0431 12.812 60.6484 12.812ZM59.7884 34.441C60.9924 34.441 62.0531 34.0683 62.9704 33.323C63.8877 32.549 64.5901 31.4883 65.0774 30.141C65.5934 28.765 65.8514 27.2027 65.8514 25.454C65.8514 23.4187 65.5791 21.6127 65.0344 20.036C64.4897 18.4307 63.7014 17.1837 62.6694 16.295C61.6374 15.3777 60.4334 14.919 59.0574 14.919C57.8534 14.919 56.7927 15.3633 55.8754 16.252C54.9581 17.112 54.3561 18.187 54.0694 19.477V27.991C54.0694 29.0803 54.2844 30.1267 54.7144 31.13C55.1731 32.1047 55.8324 32.9073 56.6924 33.538C57.5524 34.14 58.5844 34.441 59.7884 34.441ZM77.1439 9.544C76.3699 9.544 75.7249 9.30033 75.2089 8.813C74.6929 8.32566 74.4349 7.70933 74.4349 6.964C74.4349 6.21867 74.6929 5.60233 75.2089 5.115C75.7249 4.62767 76.3699 4.384 77.1439 4.384C77.8893 4.384 78.5056 4.62767 78.9929 5.115C79.5089 5.60233 79.7669 6.21867 79.7669 6.964C79.7669 7.70933 79.5089 8.32566 78.9929 8.813C78.5056 9.30033 77.8893 9.544 77.1439 9.544ZM78.9499 31.646C78.9499 32.5347 79.1649 33.1797 79.5949 33.581C80.0249 33.9823 80.7989 34.2547 81.9169 34.398V35H72.4139V34.398C73.5319 34.2547 74.3059 33.9823 74.7359 33.581C75.1659 33.1797 75.3809 32.5347 75.3809 31.646V17.8C75.3809 16.8827 75.2376 16.2377 74.9509 15.865C74.6929 15.4923 74.2343 15.306 73.5749 15.306C73.2309 15.306 72.8439 15.349 72.4139 15.435V14.833L78.3479 12.812H78.9499V31.646ZM105.064 32.463C104.576 33.6383 103.989 34.4697 103.301 34.957C102.613 35.4157 101.953 35.645 101.323 35.645C100.434 35.645 99.6457 35.3297 98.9577 34.699C98.2984 34.0397 97.9687 33.1223 97.9687 31.947V30.356C97.3667 32.0187 96.478 33.323 95.3027 34.269C94.156 35.1863 92.8517 35.645 91.3897 35.645C89.727 35.645 88.3224 35.129 87.1757 34.097C86.0577 33.0363 85.4987 31.689 85.4987 30.055C85.4987 27.8477 86.2154 26.142 87.6487 24.938C89.082 23.7053 91.318 22.9457 94.3567 22.659L97.9687 22.315V20.337C97.9687 18.3877 97.5244 16.854 96.6357 15.736C95.7757 14.5893 94.586 14.016 93.0667 14.016C91.6907 14.016 90.6444 14.3743 89.9277 15.091C89.211 15.779 88.8527 16.6103 88.8527 17.585C88.8527 17.9577 88.8814 18.23 88.9387 18.402C89.0247 18.746 89.0677 19.047 89.0677 19.305C89.0677 19.907 88.8957 20.3657 88.5517 20.681C88.2077 20.9963 87.7777 21.154 87.2617 21.154C86.7457 21.154 86.3157 20.982 85.9717 20.638C85.6564 20.2653 85.4987 19.735 85.4987 19.047C85.5274 18.101 85.857 17.155 86.4877 16.209C87.1184 15.2343 88.0644 14.4317 89.3257 13.801C90.587 13.1417 92.135 12.812 93.9697 12.812C96.3204 12.812 98.1694 13.5143 99.5167 14.919C100.864 16.295 101.538 18.1727 101.538 20.552V31.947C101.538 32.4917 101.652 32.9217 101.882 33.237C102.111 33.5237 102.426 33.667 102.828 33.667C103.43 33.667 104.003 33.194 104.548 32.248L105.064 32.463ZM93.1957 33.194C94.1704 33.194 95.0734 32.8357 95.9047 32.119C96.736 31.4023 97.424 30.4133 97.9687 29.152V23.476L94.6577 23.906C91.017 24.3647 89.1967 26.0703 89.1967 29.023C89.1967 30.227 89.5837 31.2303 90.3577 32.033C91.1317 32.807 92.0777 33.194 93.1957 33.194ZM115.574 35.602C114.742 35.602 113.997 35.5017 113.338 35.301C112.678 35.1003 111.99 34.8423 111.274 34.527C110.7 34.2403 110.27 34.097 109.984 34.097C109.754 34.097 109.568 34.2117 109.425 34.441C109.281 34.6703 109.195 35.0717 109.167 35.645H108.565L107.404 28.378H108.006C108.722 30.27 109.754 31.7463 111.102 32.807C112.478 33.8677 113.94 34.398 115.488 34.398C116.835 34.398 117.924 34.054 118.756 33.366C119.616 32.6493 120.046 31.7033 120.046 30.528C120.046 29.6107 119.788 28.851 119.272 28.249C118.784 27.647 118.154 27.1597 117.38 26.787C116.634 26.3857 115.631 25.9557 114.37 25.497C112.936 24.9523 111.761 24.4507 110.844 23.992C109.955 23.5047 109.195 22.8453 108.565 22.014C107.934 21.154 107.619 20.079 107.619 18.789C107.619 17.0117 108.264 15.5783 109.554 14.489C110.844 13.371 112.463 12.812 114.413 12.812C115.703 12.812 117.093 13.1703 118.584 13.887C118.698 13.9443 118.899 14.0303 119.186 14.145C119.501 14.2597 119.745 14.317 119.917 14.317C120.375 14.317 120.605 13.8153 120.605 12.812H121.207L122.239 19.477H121.637C120.891 17.757 119.902 16.424 118.67 15.478C117.466 14.5033 116.118 14.016 114.628 14.016C113.452 14.016 112.478 14.3457 111.704 15.005C110.93 15.6643 110.543 16.5243 110.543 17.585C110.543 18.3877 110.772 19.0613 111.231 19.606C111.689 20.122 112.263 20.552 112.951 20.896C113.639 21.2113 114.585 21.584 115.789 22.014C117.308 22.5587 118.541 23.089 119.487 23.605C120.461 24.0923 121.278 24.809 121.938 25.755C122.626 26.6723 122.97 27.862 122.97 29.324C122.97 30.4993 122.669 31.56 122.067 32.506C121.465 33.452 120.605 34.2117 119.487 34.785C118.369 35.3297 117.064 35.602 115.574 35.602Z" fill="black"/>
</svg>
