<svg width="664" height="140" viewBox="0 0 664 140" fill="none" xmlns="http://www.w3.org/2000/svg">
<path d="M1.032 1.18H9.159V13.134H19.565V1.18H27.692V33H19.565V20.272H9.159V33H1.032V1.18ZM41.9667 33.602C39.272 33.602 37.0073 33.0717 35.1727 32.011C33.2233 30.8643 31.8043 29.4453 30.9157 27.754C30.0557 26.034 29.6257 23.6833 29.6257 20.702V1.18H37.7527V20.573C37.7527 22.5797 38.0823 24.0703 38.7417 25.045C39.401 25.991 40.4473 26.464 41.8807 26.464C43.314 26.464 44.346 26.034 44.9767 25.174C45.6073 24.314 45.9227 22.7947 45.9227 20.616V1.18H54.0497V20.659C54.0497 23.9843 53.5193 26.4927 52.4587 28.184C51.398 29.904 49.979 31.237 48.2017 32.183C46.4243 33.129 44.346 33.602 41.9667 33.602ZM72.4688 33.645C69.3728 33.645 66.5348 32.914 63.9548 31.452C61.3748 29.9613 59.3251 27.9403 57.8058 25.389C56.3151 22.8377 55.5698 20.0283 55.5698 16.961C55.5698 13.8363 56.3294 11.027 57.8488 8.533C59.3968 6.039 61.4751 4.08967 64.0838 2.685C66.6924 1.28033 69.5304 0.578 72.5978 0.578C74.9484 0.578 77.2274 1.07967 79.4348 2.083C81.6708 3.05766 83.5914 4.405 85.1968 6.125C86.8021 7.845 87.9058 9.75133 88.5078 11.844H79.3918C78.6464 10.5253 77.6718 9.50766 76.4678 8.791C75.2638 8.07433 73.9021 7.716 72.3828 7.716C70.7201 7.716 69.2294 8.13167 67.9108 8.963C66.5921 9.76567 65.5601 10.8837 64.8148 12.317C64.0694 13.7217 63.6968 15.2697 63.6968 16.961C63.6968 18.7383 64.0551 20.358 64.7718 21.82C65.4884 23.2533 66.5061 24.4 67.8248 25.26C69.1434 26.0913 70.6771 26.507 72.4258 26.507C74.3178 26.507 75.9374 26.0627 77.2848 25.174C78.6321 24.2853 79.5494 23.024 80.0368 21.39H70.5338V14.897H89.4538V16.703C89.4538 19.627 88.7658 22.3933 87.3898 25.002C86.0138 27.582 84.0358 29.6747 81.4558 31.28C78.9044 32.8567 75.9088 33.645 72.4688 33.645ZM90.6853 1.18H108.358V8.318H98.4683V13.263H108.057V20.401H98.4683V25.862H108.358V33H90.6853V1.18ZM133.609 33.645C130.513 33.645 127.675 32.914 125.095 31.452C122.515 29.9613 120.466 27.9403 118.946 25.389C117.456 22.8377 116.71 20.0283 116.71 16.961C116.71 13.8363 117.47 11.027 118.989 8.533C120.537 6.039 122.616 4.08967 125.224 2.685C127.833 1.28033 130.671 0.578 133.738 0.578C136.089 0.578 138.368 1.07967 140.575 2.083C142.811 3.05766 144.732 4.405 146.337 6.125C147.943 7.845 149.046 9.75133 149.648 11.844H140.532C139.787 10.5253 138.812 9.50766 137.608 8.791C136.404 8.07433 135.043 7.716 133.523 7.716C131.861 7.716 130.37 8.13167 129.051 8.963C127.733 9.76567 126.701 10.8837 125.955 12.317C125.21 13.7217 124.837 15.2697 124.837 16.961C124.837 18.7383 125.196 20.358 125.912 21.82C126.629 23.2533 127.647 24.4 128.965 25.26C130.284 26.0913 131.818 26.507 133.566 26.507C135.458 26.507 137.078 26.0627 138.425 25.174C139.773 24.2853 140.69 23.024 141.177 21.39H131.674V14.897H150.594V16.703C150.594 19.627 149.906 22.3933 148.53 25.002C147.154 27.582 145.176 29.6747 142.596 31.28C140.045 32.8567 137.049 33.645 133.609 33.645ZM164.67 33.731C162.262 33.731 160.083 33.1863 158.134 32.097C156.185 30.979 154.637 29.4597 153.49 27.539C152.372 25.6183 151.813 23.454 151.813 21.046C151.813 18.638 152.386 16.4737 153.533 14.553C154.68 12.6037 156.228 11.0843 158.177 9.995C160.155 8.90567 162.319 8.361 164.67 8.361C167.049 8.361 169.214 8.90567 171.163 9.995C173.141 11.0843 174.689 12.6037 175.807 14.553C176.954 16.4737 177.527 18.6093 177.527 20.96C177.527 23.3967 176.954 25.5897 175.807 27.539C174.689 29.4883 173.141 31.0077 171.163 32.097C169.214 33.1863 167.049 33.731 164.67 33.731ZM164.67 27.066C165.759 27.066 166.734 26.7937 167.594 26.249C168.483 25.6757 169.171 24.9303 169.658 24.013C170.145 23.0957 170.389 22.1067 170.389 21.046C170.389 19.9853 170.131 18.9963 169.615 18.079C169.128 17.1617 168.44 16.4307 167.551 15.886C166.691 15.3127 165.716 15.026 164.627 15.026C163.595 15.026 162.649 15.2983 161.789 15.843C160.929 16.3877 160.241 17.133 159.725 18.079C159.209 18.9963 158.951 19.9853 158.951 21.046C158.951 22.1353 159.195 23.1387 159.682 24.056C160.198 24.9733 160.886 25.7043 161.746 26.249C162.635 26.7937 163.609 27.066 164.67 27.066ZM179.895 14.553H176.455V9.135H179.895V1.18H187.033V9.135H190.473V14.553H187.033V33H179.895V14.553ZM191.591 1.18H198.729V11.414C199.245 10.4393 200.047 9.67967 201.137 9.135C202.255 8.59033 203.516 8.318 204.921 8.318C207.673 8.318 209.823 9.16367 211.371 10.855C212.919 12.5177 213.693 14.897 213.693 17.993V33H206.555V19.885C206.555 16.6457 205.279 15.026 202.728 15.026C200.062 15.026 198.729 16.5453 198.729 19.584V33H191.591V1.18ZM215.526 1.18H222.664V7.243H215.526V1.18ZM215.526 9.135H222.664V33H215.526V9.135ZM236.723 33.774C234.401 33.774 232.28 33.2007 230.359 32.054C228.439 30.9073 226.905 29.3593 225.758 27.41C224.64 25.4607 224.081 23.325 224.081 21.003C224.081 18.681 224.64 16.5453 225.758 14.596C226.876 12.6467 228.396 11.113 230.316 9.995C232.237 8.877 234.33 8.318 236.594 8.318C238.658 8.318 240.579 8.73367 242.356 9.565C244.134 10.3963 245.624 11.5717 246.828 13.091C248.061 14.5817 248.892 16.3303 249.322 18.337H242.098C241.066 16.101 239.289 14.983 236.766 14.983C235.161 14.983 233.842 15.5707 232.81 16.746C231.778 17.8927 231.262 19.326 231.262 21.046C231.262 22.7947 231.793 24.2423 232.853 25.389C233.914 26.5357 235.276 27.109 236.938 27.109C239.26 27.109 240.98 26.0483 242.098 23.927H249.365C248.907 25.905 248.061 27.6393 246.828 29.13C245.624 30.592 244.148 31.7387 242.399 32.57C240.651 33.3727 238.759 33.774 236.723 33.774Z" fill="black"/>
<path d="M8.91 73.8H13.38L22.2 96H16.05L14.97 92.79H7.26L6.09 96H0L8.91 73.8ZM13.47 88.29L11.19 80.73L11.1 80.7L8.82 88.29H13.47ZM22.927 73.8H30.037C31.617 73.8 32.797 73.89 33.577 74.07C34.917 74.37 36.017 75.01 36.877 75.99C37.757 76.95 38.197 78.15 38.197 79.59C38.197 80.55 37.967 81.43 37.507 82.23C37.067 83.01 36.437 83.63 35.617 84.09C36.837 84.51 37.747 85.16 38.347 86.04C38.967 86.9 39.277 87.97 39.277 89.25C39.277 90.33 39.047 91.33 38.587 92.25C38.147 93.17 37.517 93.92 36.697 94.5C35.817 95.12 34.967 95.53 34.147 95.73C33.347 95.91 32.067 96 30.307 96H22.927V73.8ZM30.607 82.23C32.047 82.23 32.767 81.64 32.767 80.46C32.767 79.88 32.587 79.46 32.227 79.2C31.887 78.92 31.357 78.78 30.637 78.78H28.357V82.23H30.607ZM31.267 91.02C32.087 91.02 32.717 90.84 33.157 90.48C33.617 90.12 33.847 89.59 33.847 88.89C33.847 87.61 32.997 86.97 31.297 86.97H28.357V91.02H31.267ZM50.9384 96.42C49.3584 96.42 47.8584 96.14 46.4384 95.58C45.0384 95.02 43.7784 94.19 42.6584 93.09C41.4784 91.95 40.6084 90.68 40.0484 89.28C39.5084 87.86 39.2384 86.29 39.2384 84.57C39.2384 82.63 39.7484 80.8 40.7684 79.08C41.7884 77.36 43.1784 75.98 44.9384 74.94C46.6984 73.9 48.6084 73.38 50.6684 73.38C52.2084 73.38 53.6084 73.6 54.8684 74.04C56.1284 74.48 57.3084 75.17 58.4084 76.11C60.5284 77.93 61.7784 79.97 62.1584 82.23H56.2184C55.7384 81.03 55.0084 80.09 54.0284 79.41C53.0684 78.71 52.0084 78.36 50.8484 78.36C49.7084 78.36 48.6784 78.66 47.7584 79.26C46.8584 79.84 46.1584 80.63 45.6584 81.63C45.1584 82.61 44.9084 83.68 44.9084 84.84C44.9084 86.04 45.1584 87.15 45.6584 88.17C46.1784 89.17 46.8884 89.97 47.7884 90.57C48.7084 91.15 49.7384 91.44 50.8784 91.44C52.0184 91.44 53.0484 91.12 53.9684 90.48C54.8884 89.84 55.6384 88.91 56.2184 87.69H62.1584C61.6984 89.45 60.9184 90.99 59.8184 92.31C58.7184 93.61 57.3984 94.62 55.8584 95.34C54.3184 96.06 52.6784 96.42 50.9384 96.42ZM63.2395 73.8H70.7995C73.5195 73.8 75.6895 74.25 77.3095 75.15C78.9095 76.07 80.1595 77.37 81.0595 79.05C81.9795 80.73 82.4395 82.68 82.4395 84.9C82.4395 88.5 81.4395 91.25 79.4395 93.15C77.4595 95.05 74.7095 96 71.1895 96H63.2395V73.8ZM71.4595 91.02C73.1195 91.02 74.4195 90.5 75.3595 89.46C76.2995 88.42 76.7695 86.91 76.7695 84.93C76.7695 82.97 76.2995 81.46 75.3595 80.4C74.4395 79.32 73.1495 78.78 71.4895 78.78H68.9095V91.02H71.4595ZM83.2786 73.8H95.6086V78.78H88.7086V82.23H95.3986V87.21H88.7086V91.02H95.6086V96H83.2786V73.8ZM96.9309 73.8H109.051V78.78H102.361V82.56H108.811V87.54H102.361V96H96.9309V73.8ZM121.341 96.45C119.181 96.45 117.201 95.94 115.401 94.92C113.601 93.88 112.171 92.47 111.111 90.69C110.071 88.91 109.551 86.95 109.551 84.81C109.551 82.63 110.081 80.67 111.141 78.93C112.221 77.19 113.671 75.83 115.491 74.85C117.311 73.87 119.291 73.38 121.431 73.38C123.071 73.38 124.661 73.73 126.201 74.43C127.761 75.11 129.101 76.05 130.221 77.25C131.341 78.45 132.111 79.78 132.531 81.24H126.171C125.651 80.32 124.971 79.61 124.131 79.11C123.291 78.61 122.341 78.36 121.281 78.36C120.121 78.36 119.081 78.65 118.161 79.23C117.241 79.79 116.521 80.57 116.001 81.57C115.481 82.55 115.221 83.63 115.221 84.81C115.221 86.05 115.471 87.18 115.971 88.2C116.471 89.2 117.181 90 118.101 90.6C119.021 91.18 120.091 91.47 121.311 91.47C122.631 91.47 123.761 91.16 124.701 90.54C125.641 89.92 126.281 89.04 126.621 87.9H119.991V83.37H133.191V84.63C133.191 86.67 132.711 88.6 131.751 90.42C130.791 92.22 129.411 93.68 127.611 94.8C125.831 95.9 123.741 96.45 121.341 96.45ZM134.05 73.8H139.72V82.14H146.98V73.8H152.65V96H146.98V87.12H139.72V96H134.05V73.8ZM154.089 73.8H159.759V96H154.089V73.8ZM172.405 96.45C170.245 96.45 168.265 95.94 166.465 94.92C164.665 93.88 163.235 92.47 162.175 90.69C161.135 88.91 160.615 86.95 160.615 84.81C160.615 82.63 161.145 80.67 162.205 78.93C163.285 77.19 164.735 75.83 166.555 74.85C168.375 73.87 170.355 73.38 172.495 73.38C174.135 73.38 175.725 73.73 177.265 74.43C178.825 75.11 180.165 76.05 181.285 77.25C182.405 78.45 183.175 79.78 183.595 81.24H177.235C176.715 80.32 176.035 79.61 175.195 79.11C174.355 78.61 173.405 78.36 172.345 78.36C171.185 78.36 170.145 78.65 169.225 79.23C168.305 79.79 167.585 80.57 167.065 81.57C166.545 82.55 166.285 83.63 166.285 84.81C166.285 86.05 166.535 87.18 167.035 88.2C167.535 89.2 168.245 90 169.165 90.6C170.085 91.18 171.155 91.47 172.375 91.47C173.695 91.47 174.825 91.16 175.765 90.54C176.705 89.92 177.345 89.04 177.685 87.9H171.055V83.37H184.255V84.63C184.255 86.67 183.775 88.6 182.815 90.42C181.855 92.22 180.475 93.68 178.675 94.8C176.895 95.9 174.805 96.45 172.405 96.45ZM185.115 73.8H190.785V83.79H190.845L197.115 73.8H203.055L195.705 84.87L203.535 96H196.905L190.845 86.4H190.785V96H185.115V73.8ZM204.187 73.8H209.857V91.02H216.427V96H204.187V73.8ZM217.37 73.8H224.66L229.07 88.41H229.13L233.48 73.8H240.8V96H235.58L235.76 79.38L235.7 79.32L230.96 96H227.21L222.41 79.17L222.59 96H217.37V73.8ZM242.243 73.8H247.133L255.773 87.84L255.533 73.8H260.963V96H256.043L247.523 82.44L247.673 96H242.243V73.8ZM273.777 96.42C271.697 96.42 269.737 95.96 267.897 95.04C266.077 94.1 264.607 92.79 263.487 91.11C262.367 89.43 261.807 87.53 261.807 85.41C261.807 83.15 262.307 81.11 263.307 79.29C264.327 77.45 265.727 76.01 267.507 74.97C269.287 73.91 271.287 73.38 273.507 73.38C275.627 73.38 277.587 73.89 279.387 74.91C281.187 75.91 282.607 77.28 283.647 79.02C284.707 80.76 285.237 82.67 285.237 84.75C285.237 86.91 284.727 88.88 283.707 90.66C282.687 92.44 281.297 93.85 279.537 94.89C277.797 95.91 275.877 96.42 273.777 96.42ZM273.597 91.44C274.737 91.44 275.757 91.15 276.657 90.57C277.577 89.97 278.287 89.18 278.787 88.2C279.307 87.2 279.567 86.11 279.567 84.93C279.567 83.77 279.307 82.69 278.787 81.69C278.267 80.67 277.547 79.86 276.627 79.26C275.707 78.66 274.667 78.36 273.507 78.36C272.347 78.36 271.307 78.66 270.387 79.26C269.487 79.84 268.777 80.63 268.257 81.63C267.737 82.61 267.477 83.68 267.477 84.84C267.477 86.06 267.737 87.17 268.257 88.17C268.777 89.17 269.497 89.97 270.417 90.57C271.357 91.15 272.417 91.44 273.597 91.44ZM286.072 73.8H293.572C295.832 73.8 297.602 74.08 298.882 74.64C300.082 75.2 301.032 76.08 301.732 77.28C302.432 78.46 302.782 79.8 302.782 81.3C302.782 83.56 302.082 85.42 300.682 86.88C299.302 88.32 297.122 89.04 294.142 89.04H291.502V96H286.072V73.8ZM293.932 84.06C295.092 84.06 295.952 83.85 296.512 83.43C297.072 83.01 297.352 82.33 297.352 81.39C297.352 80.49 297.062 79.83 296.482 79.41C295.902 78.99 294.982 78.78 293.722 78.78H291.502V84.06H293.932ZM321.201 97.29L319.641 95.55C318.261 96.13 316.801 96.42 315.261 96.42C313.181 96.42 311.221 95.96 309.381 95.04C307.561 94.1 306.091 92.79 304.971 91.11C303.851 89.43 303.291 87.53 303.291 85.41C303.291 83.15 303.791 81.11 304.791 79.29C305.811 77.45 307.211 76.01 308.991 74.97C310.771 73.91 312.771 73.38 314.991 73.38C317.111 73.38 319.071 73.89 320.871 74.91C322.671 75.91 324.091 77.28 325.131 79.02C326.191 80.76 326.721 82.67 326.721 84.75C326.721 86.35 326.431 87.86 325.851 89.28C325.291 90.68 324.491 91.91 323.451 92.97L327.411 97.29H321.201ZM315.081 91.44C315.261 91.44 315.511 91.42 315.831 91.38L311.631 86.79H317.841L319.821 88.95C320.641 87.79 321.051 86.45 321.051 84.93C321.051 83.77 320.791 82.69 320.271 81.69C319.751 80.67 319.031 79.86 318.111 79.26C317.191 78.66 316.151 78.36 314.991 78.36C313.831 78.36 312.791 78.66 311.871 79.26C310.971 79.84 310.261 80.63 309.741 81.63C309.221 82.61 308.961 83.68 308.961 84.84C308.961 86.06 309.221 87.17 309.741 88.17C310.261 89.17 310.981 89.97 311.901 90.57C312.841 91.15 313.901 91.44 315.081 91.44ZM327.732 73.8H334.992C337.252 73.8 339.002 74.07 340.242 74.61C341.462 75.15 342.442 76.04 343.182 77.28C343.942 78.5 344.322 79.89 344.322 81.45C344.322 83.23 343.822 84.77 342.822 86.07C341.822 87.35 340.482 88.14 338.802 88.44L344.832 96H338.352L333.222 88.83H333.162V96H327.732V73.8ZM335.262 84.96C336.402 84.96 337.292 84.69 337.932 84.15C338.572 83.61 338.892 82.82 338.892 81.78C338.892 80.84 338.562 80.11 337.902 79.59C337.262 79.05 336.402 78.78 335.322 78.78H333.162V84.96H335.262ZM353.014 96.42C350.554 96.42 348.604 95.79 347.164 94.53C345.724 93.27 345.004 91.47 345.004 89.13V88.65H350.644C350.664 89.57 350.884 90.31 351.304 90.87C351.724 91.41 352.284 91.68 352.984 91.68C353.564 91.68 354.064 91.48 354.484 91.08C354.904 90.66 355.114 90.15 355.114 89.55C355.114 88.85 354.774 88.28 354.094 87.84C353.434 87.38 352.484 86.91 351.244 86.43C351.164 86.39 351.064 86.36 350.944 86.34C350.844 86.3 350.744 86.25 350.644 86.19C348.824 85.45 347.484 84.58 346.624 83.58C345.784 82.58 345.364 81.36 345.364 79.92C345.364 78.7 345.714 77.59 346.414 76.59C347.134 75.59 348.084 74.81 349.264 74.25C350.464 73.67 351.744 73.38 353.104 73.38C354.524 73.38 355.834 73.69 357.034 74.31C358.234 74.93 359.114 75.72 359.674 76.68C360.254 77.62 360.554 78.82 360.574 80.28H354.964C354.844 79.5 354.624 78.95 354.304 78.63C353.984 78.29 353.534 78.12 352.954 78.12C352.414 78.12 351.954 78.29 351.574 78.63C351.194 78.97 351.004 79.38 351.004 79.86C351.004 80.48 351.264 80.98 351.784 81.36C352.304 81.74 353.254 82.23 354.634 82.83C356.254 83.53 357.504 84.21 358.384 84.87C359.264 85.53 359.874 86.23 360.214 86.97C360.574 87.71 360.754 88.59 360.754 89.61C360.754 91.75 360.064 93.42 358.684 94.62C357.304 95.82 355.414 96.42 353.014 96.42ZM365.468 78.78H361.088V73.8H375.488V78.78H371.138V96H365.468V78.78ZM384.885 96.42C383.005 96.42 381.425 96.05 380.145 95.31C378.785 94.51 377.795 93.52 377.175 92.34C376.575 91.14 376.275 89.5 376.275 87.42V73.8H381.945V87.33C381.945 88.73 382.175 89.77 382.635 90.45C383.095 91.11 383.825 91.44 384.825 91.44C385.825 91.44 386.545 91.14 386.985 90.54C387.425 89.94 387.645 88.88 387.645 87.36V73.8H393.315V87.39C393.315 89.71 392.945 91.46 392.205 92.64C391.465 93.84 390.475 94.77 389.235 95.43C387.995 96.09 386.545 96.42 384.885 96.42ZM393.655 73.8H399.475L403.945 89.37H404.005L408.505 73.8H414.355L406.915 96H401.065L393.655 73.8ZM413.993 73.8H419.753L422.723 88.23H422.783L426.053 73.8H430.403L433.613 88.29H433.673L436.703 73.8H442.433L436.553 96H431.573L428.243 81.63H428.183L424.853 96H419.723L413.993 73.8ZM449.38 84.18L442.51 73.8H448.93L452.74 80.13L456.43 73.8H462.82L456.04 84.3L463.72 96H457.3L452.5 88.14L447.94 96H441.61L449.38 84.18ZM469.512 87.93L462.882 73.8H469.032L472.332 82.71L475.662 73.8H481.752L475.182 87.93V96H469.512V87.93ZM481.676 92.28L489.326 78.78H481.676V73.8H495.686V78.39L488.606 91.02H495.686V96H481.676V92.28ZM8.67 130.57C7.07 130.57 5.63 130.18 4.35 129.4C3.09 128.62 2.1 127.55 1.38 126.19C0.68 124.83 0.33 123.32 0.33 121.66C0.33 120.04 0.69 118.55 1.41 117.19C2.15 115.83 3.15 114.76 4.41 113.98C5.69 113.18 7.11 112.78 8.67 112.78C9.71 112.78 10.67 112.99 11.55 113.41C12.43 113.81 13.1 114.38 13.56 115.12H13.62V113.35H18.6V130H13.62V128.2H13.56C13.2 128.92 12.57 129.5 11.67 129.94C10.77 130.36 9.77 130.57 8.67 130.57ZM9.45 125.92C10.21 125.92 10.91 125.73 11.55 125.35C12.19 124.97 12.69 124.46 13.05 123.82C13.43 123.16 13.62 122.44 13.62 121.66C13.62 120.9 13.43 120.2 13.05 119.56C12.67 118.9 12.15 118.38 11.49 118C10.85 117.62 10.15 117.43 9.39 117.43C8.65 117.43 7.96 117.62 7.32 118C6.7 118.38 6.21 118.9 5.85 119.56C5.49 120.22 5.31 120.94 5.31 121.72C5.31 122.48 5.49 123.18 5.85 123.82C6.23 124.46 6.73 124.97 7.35 125.35C7.99 125.73 8.69 125.92 9.45 125.92ZM29.508 130.57C28.488 130.57 27.528 130.36 26.628 129.94C25.748 129.5 25.118 128.93 24.738 128.23H24.678V130H19.908V107.8H24.888V114.67C26.068 113.41 27.648 112.78 29.628 112.78C31.088 112.78 32.448 113.14 33.708 113.86C34.988 114.56 36.008 115.58 36.768 116.92C37.528 118.24 37.908 119.79 37.908 121.57C37.908 123.27 37.558 124.81 36.858 126.19C36.178 127.55 35.198 128.62 33.918 129.4C32.658 130.18 31.188 130.57 29.508 130.57ZM28.758 125.92C29.518 125.92 30.218 125.73 30.858 125.35C31.498 124.97 31.998 124.46 32.358 123.82C32.738 123.16 32.928 122.44 32.928 121.66C32.928 120.92 32.748 120.23 32.388 119.59C32.048 118.93 31.558 118.41 30.918 118.03C30.298 117.63 29.598 117.43 28.818 117.43C28.058 117.43 27.358 117.62 26.718 118C26.098 118.38 25.608 118.89 25.248 119.53C24.888 120.17 24.708 120.87 24.708 121.63C24.708 122.85 25.088 123.87 25.848 124.69C26.628 125.51 27.598 125.92 28.758 125.92ZM47.3824 130.54C45.7624 130.54 44.2824 130.14 42.9424 129.34C41.6024 128.54 40.5324 127.46 39.7324 126.1C38.9524 124.74 38.5624 123.25 38.5624 121.63C38.5624 120.01 38.9524 118.52 39.7324 117.16C40.5124 115.8 41.5724 114.73 42.9124 113.95C44.2524 113.17 45.7124 112.78 47.2924 112.78C48.7324 112.78 50.0724 113.07 51.3124 113.65C52.5524 114.23 53.5924 115.05 54.4324 116.11C55.2924 117.15 55.8724 118.37 56.1724 119.77H51.1324C50.4124 118.21 49.1724 117.43 47.4124 117.43C46.2924 117.43 45.3724 117.84 44.6524 118.66C43.9324 119.46 43.5724 120.46 43.5724 121.66C43.5724 122.88 43.9424 123.89 44.6824 124.69C45.4224 125.49 46.3724 125.89 47.5324 125.89C49.1524 125.89 50.3524 125.15 51.1324 123.67H56.2024C55.8824 125.05 55.2924 126.26 54.4324 127.3C53.5924 128.32 52.5624 129.12 51.3424 129.7C50.1224 130.26 48.8024 130.54 47.3824 130.54ZM64.9493 130.54C63.3093 130.54 61.8493 130.15 60.5693 129.37C59.3093 128.59 58.3293 127.53 57.6293 126.19C56.9493 124.83 56.6093 123.31 56.6093 121.63C56.6093 119.99 56.9593 118.5 57.6593 117.16C58.3593 115.8 59.3393 114.73 60.5993 113.95C61.8593 113.17 63.2793 112.78 64.8593 112.78C65.8393 112.78 66.7193 112.94 67.4993 113.26C68.2993 113.56 69.0493 114.06 69.7493 114.76V107.8H74.7293V130H69.9893V128.2H69.9293C68.9893 129.76 67.3293 130.54 64.9493 130.54ZM65.7593 125.89C66.9793 125.89 67.9893 125.48 68.7893 124.66C69.6093 123.84 70.0193 122.82 70.0193 121.6C70.0193 120.84 69.8393 120.14 69.4793 119.5C69.1193 118.86 68.6093 118.36 67.9493 118C67.3093 117.62 66.5893 117.43 65.7893 117.43C64.6093 117.43 63.6093 117.83 62.7893 118.63C61.9893 119.41 61.5893 120.4 61.5893 121.6C61.5893 122.86 61.9793 123.89 62.7593 124.69C63.5593 125.49 64.5593 125.89 65.7593 125.89ZM84.5309 130.54C82.9509 130.54 81.4809 130.15 80.1209 129.37C78.7809 128.59 77.7109 127.53 76.9109 126.19C76.1109 124.83 75.7109 123.34 75.7109 121.72C75.7109 120.14 76.1009 118.67 76.8809 117.31C77.6609 115.93 78.7109 114.83 80.0309 114.01C81.3709 113.19 82.8409 112.78 84.4409 112.78C86.0809 112.78 87.5709 113.18 88.9109 113.98C90.2509 114.78 91.3009 115.87 92.0609 117.25C92.8409 118.63 93.2309 120.17 93.2309 121.87C93.2309 122.35 93.1909 122.79 93.1109 123.19H80.6309C80.7709 124.13 81.2009 124.89 81.9209 125.47C82.6409 126.05 83.5109 126.34 84.5309 126.34C85.1909 126.34 85.7509 126.22 86.2109 125.98C86.6909 125.72 87.1409 125.32 87.5609 124.78H92.6609C91.8609 126.6 90.7409 128.02 89.3009 129.04C87.8809 130.04 86.2909 130.54 84.5309 130.54ZM88.2509 119.83C88.0509 118.97 87.6009 118.28 86.9009 117.76C86.2209 117.24 85.4009 116.98 84.4409 116.98C83.5209 116.98 82.7109 117.24 82.0109 117.76C81.3309 118.26 80.8909 118.95 80.6909 119.83H88.2509ZM94.353 117.13H92.493V113.35H94.353V112.66C94.353 111.04 94.803 109.76 95.703 108.82C96.623 107.86 98.303 107.38 100.743 107.38H101.433V111.13H101.253C100.573 111.13 100.083 111.25 99.783 111.49C99.483 111.73 99.333 112.18 99.333 112.84V113.35H101.433V117.13H99.333V130H94.353V117.13ZM109.045 137.41C107.525 137.41 106.165 137.15 104.965 136.63C103.785 136.11 102.835 135.4 102.115 134.5C101.415 133.62 100.995 132.64 100.855 131.56H106.615C107.115 132.66 108.085 133.21 109.525 133.21C110.805 133.21 111.795 132.8 112.495 131.98C113.215 131.18 113.575 130.03 113.575 128.53V128.05C113.215 128.83 112.605 129.44 111.745 129.88C110.905 130.32 109.965 130.54 108.925 130.54C107.325 130.54 105.885 130.16 104.605 129.4C103.345 128.64 102.355 127.6 101.635 126.28C100.915 124.94 100.555 123.44 100.555 121.78C100.555 120.1 100.915 118.58 101.635 117.22C102.375 115.84 103.375 114.76 104.635 113.98C105.915 113.2 107.345 112.81 108.925 112.81C109.985 112.81 110.915 113 111.715 113.38C112.515 113.74 113.125 114.25 113.545 114.91H113.605V113.35H118.585V128.23C118.585 130.49 118.285 132.19 117.685 133.33C117.065 134.53 115.975 135.51 114.415 136.27C112.855 137.03 111.065 137.41 109.045 137.41ZM109.525 125.89C110.725 125.89 111.705 125.5 112.465 124.72C113.225 123.94 113.605 122.95 113.605 121.75C113.605 120.53 113.225 119.51 112.465 118.69C111.705 117.87 110.725 117.46 109.525 117.46C108.805 117.46 108.135 117.65 107.515 118.03C106.915 118.39 106.435 118.89 106.075 119.53C105.715 120.17 105.535 120.86 105.535 121.6C105.535 122.8 105.905 123.82 106.645 124.66C107.385 125.48 108.345 125.89 109.525 125.89ZM119.898 107.8H124.878V114.94C125.238 114.26 125.798 113.73 126.558 113.35C127.338 112.97 128.218 112.78 129.198 112.78C131.118 112.78 132.618 113.37 133.698 114.55C134.778 115.71 135.318 117.37 135.318 119.53V130H130.338V120.85C130.338 118.59 129.448 117.46 127.668 117.46C125.808 117.46 124.878 118.52 124.878 120.64V130H119.898V107.8ZM136.598 107.8H141.578V112.03H136.598V107.8ZM136.598 113.35H141.578V130H136.598V113.35ZM151.056 137.41C149.536 137.41 148.176 137.15 146.976 136.63C145.796 136.11 144.846 135.4 144.126 134.5C143.426 133.62 143.006 132.64 142.866 131.56H148.626C149.126 132.66 150.096 133.21 151.536 133.21C152.816 133.21 153.806 132.8 154.506 131.98C155.226 131.18 155.586 130.03 155.586 128.53V128.05C155.226 128.83 154.616 129.44 153.756 129.88C152.916 130.32 151.976 130.54 150.936 130.54C149.336 130.54 147.896 130.16 146.616 129.4C145.356 128.64 144.366 127.6 143.646 126.28C142.926 124.94 142.566 123.44 142.566 121.78C142.566 120.1 142.926 118.58 143.646 117.22C144.386 115.84 145.386 114.76 146.646 113.98C147.926 113.2 149.356 112.81 150.936 112.81C151.996 112.81 152.926 113 153.726 113.38C154.526 113.74 155.136 114.25 155.556 114.91H155.616V113.35H160.596V128.23C160.596 130.49 160.296 132.19 159.696 133.33C159.076 134.53 157.986 135.51 156.426 136.27C154.866 137.03 153.076 137.41 151.056 137.41ZM151.536 125.89C152.736 125.89 153.716 125.5 154.476 124.72C155.236 123.94 155.616 122.95 155.616 121.75C155.616 120.53 155.236 119.51 154.476 118.69C153.716 117.87 152.736 117.46 151.536 117.46C150.816 117.46 150.146 117.65 149.526 118.03C148.926 118.39 148.446 118.89 148.086 119.53C147.726 120.17 147.546 120.86 147.546 121.6C147.546 122.8 147.916 123.82 148.656 124.66C149.396 125.48 150.356 125.89 151.536 125.89ZM161.91 107.8H166.89V119.38H166.95L171.57 113.35H177.48L171.21 120.67L177.3 130H171.66L166.95 121.99H166.89V130H161.91V107.8ZM178.053 107.8H183.033V130H178.053V107.8ZM184.351 113.35H189.001V115.12H189.061C189.941 113.56 191.471 112.78 193.651 112.78C195.751 112.78 197.351 113.77 198.451 115.75C199.051 114.79 199.801 114.06 200.701 113.56C201.601 113.04 202.611 112.78 203.731 112.78C205.651 112.78 207.161 113.37 208.261 114.55C209.361 115.73 209.911 117.45 209.911 119.71V130H204.931V121.03C204.931 119.75 204.721 118.84 204.301 118.3C203.901 117.74 203.261 117.46 202.381 117.46C200.541 117.46 199.621 118.57 199.621 120.79V130H194.641V120.82C194.641 118.58 193.811 117.46 192.151 117.46C190.271 117.46 189.331 118.65 189.331 121.03V130H184.351V113.35ZM211.187 113.35H215.837V115.12H215.897C216.417 114.28 217.037 113.68 217.757 113.32C218.497 112.96 219.387 112.78 220.427 112.78C221.507 112.78 222.507 113 223.427 113.44C224.367 113.88 225.127 114.59 225.707 115.57C226.307 116.55 226.607 117.82 226.607 119.38V130H221.627V120.76C221.627 119.62 221.417 118.79 220.997 118.27C220.577 117.73 219.917 117.46 219.017 117.46C218.017 117.46 217.287 117.74 216.827 118.3C216.387 118.84 216.167 119.68 216.167 120.82V130H211.187V113.35ZM236.527 130.51C234.847 130.51 233.327 130.13 231.967 129.37C230.607 128.59 229.527 127.53 228.727 126.19C227.947 124.85 227.557 123.34 227.557 121.66C227.557 119.98 227.957 118.47 228.757 117.13C229.557 115.77 230.637 114.71 231.997 113.95C233.377 113.19 234.887 112.81 236.527 112.81C238.187 112.81 239.697 113.19 241.057 113.95C242.437 114.71 243.517 115.77 244.297 117.13C245.097 118.47 245.497 119.96 245.497 121.6C245.497 123.3 245.097 124.83 244.297 126.19C243.517 127.55 242.437 128.61 241.057 129.37C239.697 130.13 238.187 130.51 236.527 130.51ZM236.527 125.86C237.287 125.86 237.967 125.67 238.567 125.29C239.187 124.89 239.667 124.37 240.007 123.73C240.347 123.09 240.517 122.4 240.517 121.66C240.517 120.92 240.337 120.23 239.977 119.59C239.637 118.95 239.157 118.44 238.537 118.06C237.937 117.66 237.257 117.46 236.497 117.46C235.777 117.46 235.117 117.65 234.517 118.03C233.917 118.41 233.437 118.93 233.077 119.59C232.717 120.23 232.537 120.92 232.537 121.66C232.537 122.42 232.707 123.12 233.047 123.76C233.407 124.4 233.887 124.91 234.487 125.29C235.107 125.67 235.787 125.86 236.527 125.86ZM246.49 113.35H251.17V115.18H251.26C252.54 113.58 254.28 112.78 256.48 112.78C258.04 112.78 259.43 113.18 260.65 113.98C261.89 114.76 262.85 115.84 263.53 117.22C264.23 118.58 264.58 120.12 264.58 121.84C264.58 123.42 264.23 124.88 263.53 126.22C262.85 127.54 261.89 128.6 260.65 129.4C259.43 130.18 258.04 130.57 256.48 130.57C254.4 130.57 252.73 129.88 251.47 128.5V135.55H246.49V113.35ZM255.43 125.92C256.21 125.92 256.91 125.73 257.53 125.35C258.17 124.97 258.67 124.46 259.03 123.82C259.41 123.16 259.6 122.45 259.6 121.69C259.6 120.91 259.41 120.2 259.03 119.56C258.67 118.9 258.17 118.38 257.53 118C256.89 117.62 256.18 117.43 255.4 117.43C254.64 117.43 253.94 117.62 253.3 118C252.68 118.38 252.18 118.9 251.8 119.56C251.44 120.2 251.26 120.91 251.26 121.69C251.26 122.47 251.44 123.18 251.8 123.82C252.18 124.46 252.68 124.97 253.3 125.35C253.94 125.73 254.65 125.92 255.43 125.92ZM278.372 128.29H278.312C277.212 129.79 275.532 130.54 273.272 130.54C271.752 130.54 270.372 130.16 269.132 129.4C267.912 128.64 266.952 127.61 266.252 126.31C265.572 125.01 265.232 123.57 265.232 121.99C265.232 120.25 265.582 118.68 266.282 117.28C267.002 115.88 267.992 114.78 269.252 113.98C270.512 113.18 271.952 112.78 273.572 112.78C274.652 112.78 275.622 112.99 276.482 113.41C277.362 113.81 278.042 114.4 278.522 115.18H278.582V113.35H283.352V135.55H278.372V128.29ZM274.382 125.89C275.142 125.89 275.842 125.7 276.482 125.32C277.122 124.94 277.622 124.43 277.982 123.79C278.362 123.15 278.552 122.45 278.552 121.69C278.552 120.91 278.362 120.2 277.982 119.56C277.622 118.9 277.112 118.38 276.452 118C275.812 117.62 275.102 117.43 274.322 117.43C273.162 117.43 272.182 117.84 271.382 118.66C270.602 119.48 270.212 120.52 270.212 121.78C270.212 122.52 270.392 123.21 270.752 123.85C271.132 124.47 271.642 124.97 272.282 125.35C272.922 125.71 273.622 125.89 274.382 125.89ZM284.664 113.35H289.344V115.12H289.404C289.824 114.26 290.374 113.66 291.054 113.32C291.734 112.96 292.574 112.78 293.574 112.78V117.79C292.154 117.81 291.144 118.07 290.544 118.57C289.944 119.07 289.644 119.82 289.644 120.82V130H284.664V113.35ZM300.278 130.57C298.398 130.57 296.838 130.07 295.598 129.07C294.378 128.07 293.678 126.73 293.498 125.05H298.448C298.528 125.55 298.728 125.93 299.048 126.19C299.388 126.45 299.818 126.58 300.338 126.58C300.798 126.58 301.198 126.46 301.538 126.22C301.898 125.98 302.078 125.67 302.078 125.29C302.078 124.81 301.868 124.42 301.448 124.12C301.048 123.82 300.238 123.48 299.018 123.1C297.038 122.48 295.658 121.78 294.878 121C294.098 120.2 293.708 119.27 293.708 118.21C293.708 117.15 294.008 116.21 294.608 115.39C295.208 114.55 295.998 113.91 296.978 113.47C297.978 113.01 299.038 112.78 300.158 112.78C301.978 112.78 303.468 113.25 304.628 114.19C305.788 115.13 306.428 116.41 306.548 118.03H301.658C301.638 117.19 301.128 116.77 300.128 116.77C299.708 116.77 299.358 116.88 299.078 117.1C298.818 117.3 298.688 117.56 298.688 117.88C298.688 118.32 298.908 118.68 299.348 118.96C299.808 119.24 300.628 119.53 301.808 119.83C303.728 120.33 305.078 120.99 305.858 121.81C306.658 122.61 307.058 123.64 307.058 124.9C307.058 126.04 306.758 127.04 306.158 127.9C305.558 128.74 304.738 129.4 303.698 129.88C302.678 130.34 301.538 130.57 300.278 130.57ZM309.083 117.13H306.683V113.35H309.083V107.8H314.062V113.35H316.463V117.13H314.062V130H309.083V117.13ZM323.632 130.54C321.752 130.54 320.212 129.97 319.012 128.83C317.812 127.67 317.212 125.96 317.212 123.7V113.35H322.192V122.68C322.192 123.78 322.402 124.59 322.822 125.11C323.242 125.63 323.922 125.89 324.862 125.89C325.782 125.89 326.482 125.6 326.962 125.02C327.462 124.44 327.712 123.63 327.712 122.59V113.35H332.692V130H327.982V128.23H327.922C327.562 129.01 327.032 129.59 326.332 129.97C325.632 130.35 324.732 130.54 323.632 130.54ZM333.16 113.35H338.32L341.5 123.73H341.56L344.74 113.35H349.9L343.9 130H339.13L333.16 113.35ZM349.717 113.35H354.877L357.367 123.7H357.427L360.157 113.35H364.357L367.117 123.7H367.177L369.667 113.35H374.797L369.667 130H365.077L362.287 119.23H362.227L359.437 130H354.817L349.717 113.35ZM379.804 121.09L374.194 113.35H380.164L382.864 117.73L385.534 113.35H391.444L385.834 121.09L392.284 130H386.194L382.864 124.84L379.474 130H373.474L379.804 121.09ZM396.674 129.16L390.494 113.35H395.804L399.134 123.01H399.194L402.374 113.35H407.654L399.314 135.55H394.034L396.674 129.16ZM407.761 126.58L414.781 117.13H407.761V113.35H420.151V117.13L413.641 126.22H420.151V130H407.761V126.58Z" fill="black"/>
</svg>
