<svg width="184" height="184" viewBox="0 0 184 184" fill="none" xmlns="http://www.w3.org/2000/svg">
<g clip-path="url(#clip0_605_117)">
<path d="M176.03 53.2C171.464 42.128 164.294 32.3207 155.13 24.61C145.71 16.86 133.5 10.66 118.86 6.45C104.41 2.23 86.74 0 66.9 0H0.5V183.65H67.15C86.99 183.65 104.41 181.42 119.15 176.65C133.53 171.94 145.75 165.49 155.15 157.25C164.338 149.247 171.564 139.239 176.27 128C180.932 116.225 183.291 103.664 183.22 91C183.379 78.0456 180.934 65.1912 176.03 53.2ZM148.37 117.93C145.507 125.914 140.747 133.083 134.5 138.82C128.013 144.829 120.279 149.329 111.85 152C104.04 154.79 91.64 156.21 80.85 156.52C79.3 156.58 77.75 156.58 76.33 156.58H32.8V27.34H76.33C77.75 27.34 79.33 27.34 80.85 27.4C91.64 27.78 104.04 29.33 111.85 31.93C120.78 34.93 128.53 39.12 134.49 44.58C140.654 50.0971 145.412 57.0049 148.37 64.73C151.467 73.1654 153.002 82.0945 152.9 91.08C153.046 100.232 151.51 109.333 148.37 117.93Z" fill="#0D0D0D"/>
<path d="M33.3101 94.1699H33.5001C33.4301 94.9099 33.3101 99.5399 33.3101 100.96V94.1699Z" fill="#0D0D0D"/>
<path d="M162.05 94.1699V101C162.05 99.5799 161.93 94.9999 161.87 94.2099L162.05 94.1699Z" fill="#0D0D0D"/>
</g>
<defs>
<clipPath id="clip0_605_117">
<rect width="182.72" height="183.65" fill="white" transform="translate(0.5)"/>
</clipPath>
</defs>
</svg>
