<svg width="184" height="184" viewBox="0 0 184 184" fill="none" xmlns="http://www.w3.org/2000/svg">
<g clip-path="url(#clip0_605_121)">
<path d="M156.68 0V36.06C156.68 37.48 156.68 39.06 156.62 40.58C156.62 41.32 156.56 42.13 156.49 42.87C156 53.09 154.49 64.31 152.1 71.55C149.1 80.48 144.91 88.22 139.46 94.17C133.938 100.312 127.035 105.052 119.32 108C110.892 111.099 101.969 112.634 92.99 112.53C83.848 112.676 74.757 111.14 66.17 108C58.1948 105.145 51.0303 100.399 45.29 94.17C39.2971 87.6918 34.8131 79.9669 32.16 71.55C29.56 64.31 28.16 53.09 27.76 42.87C27.7 42.13 27.63 41.32 27.63 40.58C27.57 39.03 27.57 37.48 27.57 36.06V0H0.5V26.89C0.5 46.71 2.73 64.12 7.44 78.8C12.15 93.18 18.59 105.38 26.83 114.8C34.8491 123.992 44.8739 131.218 56.13 135.92C62.5717 138.508 69.2788 140.379 76.13 141.5C81.7516 142.404 87.4362 142.858 93.13 142.86C98.2505 142.869 103.365 142.498 108.43 141.75C116.137 140.702 123.676 138.662 130.86 135.68C141.918 131.114 151.715 123.952 159.42 114.8C167.16 105.38 173.36 93.18 177.57 78.56C181.78 64.12 184.01 46.46 184.01 26.64V0H156.68Z" fill="#0D0D0D"/>
<path d="M76.1399 139V183.61H108.42V139H76.1399Z" fill="#0D0D0D"/>
</g>
<defs>
<clipPath id="clip0_605_121">
<rect width="183.5" height="183.58" fill="white" transform="translate(0.5)"/>
</clipPath>
</defs>
</svg>
