<svg id="Layer_1" data-name="Layer 1" xmlns="http://www.w3.org/2000/svg" viewBox="0 0 156.16 183.73"><defs><style>.cls-1{fill:#5522fd;}</style></defs><path class="cls-1" d="M106.91,156.37c-1.47,0-6.94-.21-6.94-.21-10.11-.42-21.47-2.11-28.63-4.42-8.84-3-16.62-7.16-22.52-12.63a49.89,49.89,0,0,1-13.89-20.2A71.44,71.44,0,0,1,30.3,92.6c0-9.89,1.48-18.94,4.63-26.73a51.25,51.25,0,0,1,13.89-21,59.26,59.26,0,0,1,22.52-13c7.16-2.53,18.52-4,28.63-4.42.84,0,1.68-.21,2.31-.21H152V0H116C96.18,0,78.71,2.31,64.19,7,49.67,11.79,37.46,18.1,28,26.52a80.81,80.81,0,0,0-21,29.25A100.22,100.22,0,0,0,0,92.81a97.87,97.87,0,0,0,7.15,37.67A78,78,0,0,0,28,159.1c9.47,7.79,21.68,13.89,36.41,18.1,14.31,4.21,32,6.53,51.77,6.53h40V156.37Z"/><rect class="cls-1" x="20.34" y="78.07" width="119.33" height="27.33"/></svg>