<svg width="157" height="184" viewBox="0 0 157 184" fill="none" xmlns="http://www.w3.org/2000/svg">
<g clip-path="url(#clip0_605_124)">
<path d="M107.41 156.37C105.94 156.37 100.47 156.16 100.47 156.16C90.3601 155.74 79.0001 154.05 71.8401 151.74C63.0001 148.74 55.2201 144.58 49.3201 139.11C43.0821 133.637 38.308 126.694 35.4301 118.91C32.2462 110.509 30.6754 101.583 30.8001 92.6C30.8001 82.71 32.2801 73.66 35.4301 65.87C38.2418 57.8239 43.0159 50.6061 49.3201 44.87C55.7718 38.9229 63.4636 34.4826 71.8401 31.87C79.0001 29.34 90.3601 27.87 100.47 27.45C101.31 27.45 102.15 27.24 102.78 27.24H152.5V0H116.5C96.6801 0 79.2101 2.31 64.6901 7C50.1701 11.79 37.9601 18.1 28.5001 26.52C19.3893 34.5665 12.2111 44.5647 7.5001 55.77C2.8449 67.5628 0.469559 80.1317 0.500102 92.81C0.3764 105.715 2.80636 118.518 7.6501 130.48C12.3141 141.492 19.4479 151.285 28.5001 159.1C37.9701 166.89 50.1801 172.99 64.9101 177.2C79.2201 181.41 96.9101 183.73 116.68 183.73H156.68V156.37H107.41Z" fill="#0D0D0D"/>
<path d="M140.17 78.0703H20.8401V105.4H140.17V78.0703Z" fill="#0D0D0D"/>
</g>
<defs>
<clipPath id="clip0_605_124">
<rect width="156.16" height="183.73" fill="white" transform="translate(0.5)"/>
</clipPath>
</defs>
</svg>
