<svg id="Layer_1" data-name="Layer 1" xmlns="http://www.w3.org/2000/svg" viewBox="0 0 184.54 183.61"><defs><style>.cls-1{fill:#5522fd;}</style></defs><path class="cls-1" d="M177.56,64.42c-4.73-14.45-11.21-26.73-19.5-36.2A79.79,79.79,0,0,0,128.59,7,99.46,99.46,0,0,0,91.4,0,97.1,97.1,0,0,0,53.45,7.23a74.82,74.82,0,0,0-28.72,21C17,37.69,10.72,50,6.48,64.67,2.24,79.19,0,96.94,0,116.88v66.73H27.47v-76.2c0-1.43,0-3,.07-4.55,0-.75.06-1.56.12-2.3.5-10.28,2-21.56,4.43-28.85,3-9,7.22-16.76,12.71-22.74A52.34,52.34,0,0,1,65,35a74.41,74.41,0,0,1,26.48-4.54,75.26,75.26,0,0,1,27,4.54,52.82,52.82,0,0,1,21,14,60.19,60.19,0,0,1,13.2,22.74c2.62,7.29,4.05,18.57,4.43,28.85.06.74.12,1.55.12,2.3.06,1.56.06,3.12.06,4.55v76.2h27.23v-67C184.54,96.69,182.3,79.19,177.56,64.42Z"/><rect class="cls-1" x="8.42" y="121.03" width="167.7" height="27.48"/></svg>