<svg width="186" height="184" viewBox="0 0 186 184" fill="none" xmlns="http://www.w3.org/2000/svg">
<g clip-path="url(#clip0_605_114)">
<path d="M178.06 64.4202C173.33 49.9702 166.85 37.6902 158.56 28.2202C150.498 18.9757 140.414 11.7143 129.09 7.00017C117.256 2.30823 104.63 -0.0681094 91.9 0.000167483C78.8934 -0.15605 65.988 2.3026 53.95 7.23017C42.8274 11.8191 32.9755 19.0227 25.23 28.2302C17.5 37.6902 11.22 50.0002 6.98 64.6702C2.74 79.1902 0.5 96.9402 0.5 116.88V183.61H27.97V107.41C27.97 105.98 27.97 104.41 28.04 102.86C28.04 102.11 28.1 101.3 28.16 100.56C28.66 90.2802 30.16 79.0002 32.59 71.7102C35.59 62.7102 39.81 54.9502 45.3 48.9702C50.83 42.7773 57.754 37.9888 65.5 35.0002C73.9781 31.8927 82.951 30.3543 91.98 30.4602C101.182 30.3099 110.333 31.8487 118.98 35.0002C127.008 37.9013 134.214 42.7051 139.98 49.0002C146.002 55.5147 150.51 63.28 153.18 71.7402C155.8 79.0302 157.23 90.3102 157.61 100.59C157.67 101.33 157.73 102.14 157.73 102.89C157.79 104.45 157.79 106.01 157.79 107.44V183.64H185.02V116.64C185.04 96.6902 182.8 79.1902 178.06 64.4202Z" fill="#0D0D0D"/>
<path d="M176.62 121.03H8.91992V148.51H176.62V121.03Z" fill="#0D0D0D"/>
</g>
<defs>
<clipPath id="clip0_605_114">
<rect width="184.54" height="183.61" fill="white" transform="translate(0.5)"/>
</clipPath>
</defs>
</svg>
