<svg id="Layer_1" data-name="Layer 1" xmlns="http://www.w3.org/2000/svg" viewBox="0 0 785.34 183.65"><defs><style>.cls-1{fill:#5522fd;}</style></defs><path class="cls-1" d="M175.53,53.2a74.47,74.47,0,0,0-20.9-28.59C145.21,16.86,133,10.66,118.36,6.45,103.91,2.23,86.24,0,66.4,0H0V183.65H66.65c19.84,0,37.26-2.23,52-7,14.38-4.71,26.6-11.16,36-19.4A79.52,79.52,0,0,0,175.77,128a99,99,0,0,0,6.95-37A96.71,96.71,0,0,0,175.53,53.2Zm-27.66,64.73A52.37,52.37,0,0,1,134,138.82,60,60,0,0,1,111.35,152c-7.81,2.79-20.21,4.21-31,4.52-1.55.06-3.1.06-4.52.06H32.3V27.34H75.83c1.42,0,3,0,4.52.06,10.79.38,23.19,1.93,31,4.53,8.93,3,16.68,7.19,22.64,12.65a52,52,0,0,1,13.88,20.15,74,74,0,0,1,4.53,26.35A74.79,74.79,0,0,1,147.87,117.93Z"/><path class="cls-1" d="M387.18,64.42C382.44,50,376,37.69,367.67,28.22A79.79,79.79,0,0,0,338.2,7,99.46,99.46,0,0,0,301,0a97,97,0,0,0-37.94,7.23,74.67,74.67,0,0,0-28.72,21c-7.79,9.47-14,21.75-18.26,36.45-4.24,14.52-6.48,32.27-6.48,52.21v66.73h27.48v-76.2c0-1.43,0-3,.06-4.55,0-.75.06-1.56.12-2.3.5-10.28,2-21.56,4.43-28.85,3-9,7.23-16.76,12.71-22.74a52.3,52.3,0,0,1,20.25-14,74.33,74.33,0,0,1,26.48-4.54,75.2,75.2,0,0,1,27,4.54,52.68,52.68,0,0,1,21,14,60.21,60.21,0,0,1,13.21,22.74c2.61,7.29,4.05,18.57,4.42,28.85.06.74.12,1.55.12,2.3.07,1.56.07,3.12.07,4.55v76.2h27.22v-67C394.15,96.69,391.91,79.19,387.18,64.42Z"/><path class="cls-1" d="M575.58,0V36.08c0,1.42,0,3-.06,4.52,0,.74-.06,1.55-.12,2.29-.5,10.22-2,21.44-4.4,28.69-3,8.92-7.19,16.66-12.64,22.61a52.16,52.16,0,0,1-20.13,13.88,74.06,74.06,0,0,1-26.33,4.52,74.9,74.9,0,0,1-26.83-4.52,52.54,52.54,0,0,1-20.88-13.88,59.81,59.81,0,0,1-13.13-22.61c-2.6-7.25-4-18.47-4.4-28.69-.06-.74-.12-1.55-.12-2.29-.06-1.55-.06-3.1-.06-4.52V0H419.4V26.91c0,19.82,2.23,37.23,6.94,51.92,4.71,14.37,11.15,26.57,19.39,36A79.43,79.43,0,0,0,475,135.94a94.26,94.26,0,0,0,20,5.58,107.3,107.3,0,0,0,17,1.36,103.17,103.17,0,0,0,15.3-1.11,90.13,90.13,0,0,0,22.43-6.07,74.5,74.5,0,0,0,28.56-20.88c7.74-9.42,13.94-21.62,18.15-36.24,4.22-14.44,6.44-32.09,6.44-51.92V0Z"/><path class="cls-1" d="M495.05,139v44.61h32.27V139Z"/><rect class="cls-1" x="218.04" y="121.03" width="167.7" height="27.48"/><path class="cls-1" d="M32.81,94.17H33c-.07.74-.19,5.37-.19,6.79Z"/><path class="cls-1" d="M161.55,94.17V101c0-1.42-.12-6-.18-6.79Z"/><path class="cls-1" d="M736.09,156.28a35.75,35.75,0,0,1-4.63-.21h-2.31c-10.1-.42-21.47-2.1-28.63-4.42C691.69,148.71,683.9,144.5,678,139a49.83,49.83,0,0,1-13.89-20.2,71.44,71.44,0,0,1-4.63-26.31c0-9.89,1.48-18.94,4.63-26.72A51.29,51.29,0,0,1,678,44.74a59.6,59.6,0,0,1,22.52-13c7.16-2.52,18.53-4,28.63-4.42.84,0,1.68-.21,2.31-.21h49.67V-.09h-36c-19.78,0-37.25,2.32-51.77,7C678.85,11.7,666.64,18,657.17,26.43a80.89,80.89,0,0,0-21,29.25,100.3,100.3,0,0,0-6.94,37,97.77,97.77,0,0,0,7.16,37.68A78,78,0,0,0,657.17,159c9.47,7.78,21.68,13.89,36.41,18.1,14.31,4.21,32,6.52,51.77,6.52h40V156.28Z"/><rect class="cls-1" x="649.52" y="77.99" width="119.33" height="27.33"/></svg>